SplineFontDB: 3.0
FontName: NovaSquareSlim-BookOblique
FullName: Nova Square Slim Book Oblique
FamilyName: Nova Square Slim
Weight: Book
Copyright: Copyright (c) 2020-2024 by Wojciech Kalinowski "wmk69" with Reserved Font Name "NovaSquareSlim-BookOblique".\nThis Font Software is licensed under the SIL Open Font License, Version 1.1.
Version: 3.1.0; 2021-05-23
ItalicAngle: -12
UnderlinePosition: -80
UnderlineWidth: 200
Ascent: 1638
Descent: 410
InvalidEm: 0
LayerCount: 2
Layer: 0 1 "Warstwa t+AUIA-a" 1
Layer: 1 1 "Plan pierwszy" 0
XUID: [1021 783 23647091 8360855]
StyleMap: 0x0001
FSType: 0
OS2Version: 3
OS2_WeightWidthSlopeOnly: 0
OS2_UseTypoMetrics: 1
CreationTime: 1260698820
ModificationTime: 1621762704
PfmFamily: 33
TTFWeight: 400
TTFWidth: 5
LineGap: 200
VLineGap: 0
Panose: 2 12 5 4 4 5 3 13 2 4
OS2TypoAscent: 2000
OS2TypoAOffset: 0
OS2TypoDescent: -500
OS2TypoDOffset: 0
OS2TypoLinegap: 200
OS2WinAscent: 2000
OS2WinAOffset: 0
OS2WinDescent: 500
OS2WinDOffset: 0
HheadAscent: 2000
HheadAOffset: 0
HheadDescent: -500
HheadDOffset: 0
OS2SubXSize: 1434
OS2SubYSize: 1331
OS2SubXOff: 0
OS2SubYOff: 287
OS2SupXSize: 1434
OS2SupYSize: 1331
OS2SupXOff: 0
OS2SupYOff: 977
OS2StrikeYSize: 102
OS2StrikeYPos: 512
OS2CapHeight: 1530
OS2XHeight: 1120
OS2Vendor: '    '
OS2CodePages: 20000093.00000000
OS2UnicodeRanges: 8000002f.4000204b.00000000.00000000
Lookup: 258 0 0 "'kern' Horizontal Kerning lookup 0" { "'kern' Horizontal Kerning lookup 0-1 subtable" [307,0,4] } ['kern' ('DFLT' <'dflt' > 'grek' <'dflt' > 'latn' <'dflt' > ) ]
MarkAttachClasses: 1
DEI: 91125
KernClass2: 65 55 "'kern' Horizontal Kerning lookup 0-1 subtable"
 134 A M N Agrave Aacute Acircumflex Atilde Adieresis Aring Ntilde Amacron Abreve Aogonek Nacute Ncommaaccent Ncaron Eng Aringacute uni1E40
 28 B germandbls uni1E02 uni1E9E
 47 C Ccedilla Cacute Ccircumflex Cdotaccent Ccaron
 122 D O Q Eth Ograve Oacute Ocircumflex Otilde Odieresis Oslash Dcaron Dcroat Omacron Obreve Ohungarumlaut Oslashacute uni1E0A

StartChar: .notdef
Encoding: 65536 -1 0
Width: 994
Flags: W
HStem: 0 68<274 748> 1442 68<567 1041>
VStem: 150 694<0 694> 471 694<816 1510>
DStem2: 150 0 259.546 0 0.207912 0.978148<92.2951 1497.19> 733.546 0 844 0 0.207912 0.978148<69.5192 1474.41>
LayerCount: 2
Fore
SplineSet
150 0 m 1,0,-1
 471 1510 l 1,1,-1
 1165 1510 l 1,2,-1
 844 0 l 1,3,-1
 150 0 l 1,0,-1
274 68 m 1,4,-1
 748 68 l 1,5,-1
 1041 1442 l 1,6,-1
 567 1442 l 1,7,-1
 274 68 l 1,4,-1
EndSplineSet
Validated: 1
EndChar

StartChar: exclam
Encoding: 33 33 4
Width: 600
GlyphClass: 2
Flags: W
HStem: -20 245<246.711 397.42> 1510 20G<668.556 725>
VStem: 199 246<27.5918 176.764>
DStem2: 195.726 -20 395.596 -20 0.207912 0.978148<562.949 1492.61>
LayerCount: 2
Fore
SplineSet
296 -20 m 128,-1,1
 246 -20 246 -20 218 16 c 0,2,3
 199 41 199 41 199 75 c 0,4,5
 199 88 199 88 202 102 c 0,6,7
 213 152 213 152 255.5 188.5 c 128,-1,8
 298 225 298 225 348 225 c 0,9,10
 400 225 400 225 426 189 c 0,11,12
 445 163 445 163 445 130 c 0,13,14
 445 116 445 116 442 102 c 0,15,16
 431 52 431 52 388.5 16 c 128,-1,0
 346 -20 346 -20 296 -20 c 128,-1,1
715 1530 m 1,17,-1
 725 1530 l 1,18,-1
 504 490 l 1,19,-1
 295 400 l 1,20,-1
 285 400 l 1,21,-1
 506 1440 l 1,22,-1
 715 1530 l 1,17,-1
EndSplineSet
Validated: 1
EndChar

StartChar: quotedbl
Encoding: 34 34 5
Width: 453
GlyphClass: 2
Flags: W
HStem: 1140 440
VStem: 292 447
DStem2: 292 1140 411.947 1140 0.207912 0.978148<78.1001 396.778> 525 1140 644.947 1140 0.207912 0.978148<78.1001 396.778>
LayerCount: 2
Fore
SplineSet
729 1580 m 1,0,-1
 739 1580 l 1,1,-1
 656 1192 l 1,2,-1
 535 1140 l 1,3,-1
 525 1140 l 1,4,-1
 608 1528 l 1,5,-1
 729 1580 l 1,0,-1
496 1580 m 1,6,-1
 506 1580 l 1,7,-1
 423 1192 l 1,8,-1
 302 1140 l 1,9,-1
 292 1140 l 1,10,-1
 375 1528 l 1,11,-1
 496 1580 l 1,6,-1
EndSplineSet
Validated: 1
EndChar

StartChar: numbersign
Encoding: 35 35 6
Width: 1368
GlyphClass: 2
Flags: W
HStem: 520 120<338 559 704 911 1056 1277> 872 120<413 633 779 985 1131 1351>
DStem2: 495 222 614.947 222 0.207912 0.978148<78.1001 304.794 452.319 664.488 812.221 1038.71> 847 222 966.947 222 0.207912 0.978148<78.1001 304.794 452.319 664.488 812.221 1038.71>
LayerCount: 2
Fore
SplineSet
832 1290 m 1,0,-1
 842 1290 l 1,1,-1
 779 992 l 1,2,-1
 1011 992 l 1,3,-1
 1063 1238 l 1,4,-1
 1184 1290 l 1,5,-1
 1194 1290 l 1,6,-1
 1131 992 l 1,7,-1
 1429 992 l 1,8,-1
 1427 982 l 1,9,-1
 1351 872 l 1,10,-1
 1105 872 l 1,11,-1
 1056 640 l 1,12,-1
 1354 640 l 1,13,-1
 1352 630 l 1,14,-1
 1277 520 l 1,15,-1
 1031 520 l 1,16,-1
 978 274 l 1,17,-1
 857 222 l 1,18,-1
 847 222 l 1,19,-1
 911 520 l 1,20,-1
 679 520 l 1,21,-1
 626 274 l 1,22,-1
 505 222 l 1,23,-1
 495 222 l 1,24,-1
 559 520 l 1,25,-1
 261 520 l 1,26,-1
 263 530 l 1,27,-1
 338 640 l 1,28,-1
 584 640 l 1,29,-1
 633 872 l 1,30,-1
 335 872 l 1,31,-1
 337 882 l 1,32,-1
 413 992 l 1,33,-1
 659 992 l 1,34,-1
 711 1238 l 1,35,-1
 832 1290 l 1,0,-1
985 872 m 1,36,-1
 753 872 l 1,37,-1
 704 640 l 1,38,-1
 936 640 l 1,39,-1
 985 872 l 1,36,-1
EndSplineSet
Validated: 1
EndChar

StartChar: dollar
Encoding: 36 36 7
Width: 1120
GlyphClass: 2
Flags: W
HStem: 0 90<336.68 516 635 824.141> 799 90<580.656 686 805 956.091> 1110 21G<988 1044.36> 1430 80<679.295 820 936 1017.41>
VStem: 133 186<105.513 367.118> 377 190<902.821 1091.36> 975 193<594.936 785.21> 1032 181<1192.39 1414.4>
DStem2: 127.894 -120 327.773 -120 0.207912 0.978148<1171.81 1567.61> 490 -120 590.073 -120 0.207912 0.978148<63.7446 122.783 235.558 939.668 1052.44 1584.74 1687.11 1746.36> 804.605 -120 1014.1 -120 0.207912 0.978148<304.082 825.27>
LayerCount: 2
Fore
SplineSet
710 0 m 2,0,-1
 616 0 l 1,1,-1
 599 -78 l 1,2,-1
 500 -120 l 1,3,-1
 490 -120 l 1,4,-1
 516 -0 l 1,5,-1
 430 0 l 2,6,7
 133 0 133 0 133 250 c 0,8,9
 133 301 133 301 146 362 c 1,10,-1
 362 455 l 1,11,-1
 372 455 l 1,12,-1
 324 230 l 2,13,14
 319 207 319 207 319 185 c 0,15,16
 319 90 319 90 434 90 c 2,17,-1
 535 90 l 1,18,-1
 686 799 l 1,19,-1
 643 799 l 2,20,21
 377 799 377 799 377 1009 c 0,22,23
 377 1051 377 1051 387 1099 c 2,24,-1
 410 1210 l 2,25,26
 472 1510 472 1510 754 1510 c 2,27,-1
 837 1510 l 1,28,-1
 854 1588 l 1,29,-1
 952 1630 l 1,30,-1
 962 1630 l 1,31,-1
 936 1510 l 1,32,-1
 958 1510 l 2,33,34
 1213 1510 1213 1510 1213 1294 c 0,35,36
 1213 1250 1213 1250 1202 1198 c 1,37,-1
 998 1110 l 1,38,-1
 988 1110 l 1,39,-1
 1027 1295 l 2,40,41
 1032 1319 1032 1319 1032 1336 c 0,42,43
 1032 1429 1032 1429 919 1430 c 1,44,-1
 805 889 l 1,45,-1
 859 889 l 2,46,47
 1168 889 1168 889 1168 648 c 0,48,49
 1168 599 1168 599 1155 539 c 2,50,-1
 1114 350 l 2,51,52
 1038 0 1038 0 710 0 c 2,0,-1
705 889 m 1,53,-1
 820 1430 l 1,54,-1
 797 1430 l 2,55,56
 657 1430 657 1430 627 1290 c 2,57,-1
 572 1029 l 2,58,59
 567 1005 567 1005 567 984 c 0,60,61
 567 889 567 889 682 889 c 2,62,-1
 705 889 l 1,53,-1
785 799 m 1,63,-1
 635 90 l 1,64,-1
 709 90 l 2,65,66
 849 90 849 90 879 230 c 2,67,-1
 970 659 l 2,68,69
 975 683 975 683 975 704 c 0,70,71
 975 799 975 799 860 799 c 2,72,-1
 785 799 l 1,63,-1
EndSplineSet
Validated: 1
EndChar

StartChar: percent
Encoding: 37 37 8
Width: 1547
GlyphClass: 2
Flags: W
HStem: -20 21G<444.284 504.756> 0 66<965.412 1267.83> 544 66<1055.91 1358.33> 900 66<509.673 812.092> 1444 66<600.17 902.588> 1510 20G<1363.26 1424.01>
VStem: 376 133<966.865 1217.84> 831 134<66.8654 317.844> 903 134<1192.16 1443.13> 1359 133<292.156 543.135>
DStem2: 146.212 -20 290.791 -20 0.207912 0.978148<1082.47 1523.67> 358 47 491 -20 0.566694 0.823928<20.1671 1799.35> 600.445 -20 746.024 -20 0.207912 0.978148<1011.28 1452.53> 792.513 -20 938.092 -20 0.207912 0.978148<162.367 603.615> 1247.75 -20 1392.33 -20 0.207912 0.978148<91.0178 532.214>
LayerCount: 2
Fore
SplineSet
1006 66 m 2,0,-1
 1216 66 l 2,1,2
 1266 66 1266 66 1277 116 c 2,3,-1
 1357 494 l 2,4,5
 1359 503 1359 503 1359 510 c 0,6,7
 1359 544 1359 544 1318 544 c 2,8,-1
 1108 544 l 2,9,10
 1058 544 1058 544 1047 494 c 2,11,-1
 967 116 l 2,12,13
 965 107 965 107 965 100 c 0,14,15
 965 66 965 66 1006 66 c 2,0,-1
862 1444 m 2,16,-1
 652 1444 l 2,17,18
 602 1444 602 1444 591 1394 c 2,19,-1
 511 1016 l 2,20,21
 509 1007 509 1007 509 1000 c 0,22,23
 509 966 509 966 550 966 c 2,24,-1
 760 966 l 2,25,26
 810 966 810 966 821 1016 c 2,27,-1
 901 1394 l 2,28,29
 903 1403 903 1403 903 1410 c 0,30,31
 903 1444 903 1444 862 1444 c 2,16,-1
481 -20 m 1,32,-1
 358 47 l 1,33,-1
 1377 1530 l 1,34,-1
 1387 1530 l 1,35,-1
 1511 1463 l 1,36,-1
 491 -20 l 1,37,-1
 481 -20 l 1,32,-1
1221 0 m 2,38,-1
 1013 0 l 2,39,40
 831 0 831 0 831 137 c 0,41,42
 831 163 831 163 838 194 c 2,43,-1
 885 416 l 2,44,45
 926 610 926 610 1103 610 c 2,46,-1
 1311 610 l 2,47,48
 1492 610 1492 610 1492 473 c 0,49,50
 1492 447 1492 447 1485 416 c 2,51,-1
 1438 194 l 2,52,53
 1397 0 1397 0 1221 0 c 2,38,-1
647 1510 m 2,54,-1
 855 1510 l 2,55,56
 1037 1510 1037 1510 1037 1373 c 0,57,58
 1037 1347 1037 1347 1030 1316 c 2,59,-1
 983 1094 l 2,60,61
 942 900 942 900 765 900 c 2,62,-1
 557 900 l 2,63,64
 376 900 376 900 376 1037 c 0,65,66
 376 1063 376 1063 383 1094 c 2,67,-1
 430 1316 l 2,68,69
 471 1510 471 1510 647 1510 c 2,54,-1
EndSplineSet
Validated: 1
EndChar

StartChar: ampersand
Encoding: 38 38 9
Width: 1624
GlyphClass: 2
Flags: W
HStem: -20 21G<1276.59 1345.67> 0 90<415.328 1026.04> 791 90<655.117 793> 1430 80<759.258 1103.97>
VStem: 212 192<104.005 415.641> 464 178<894.736 1083.2> 1124 180<1218.09 1414.37>
DStem2: 145.354 -20 355.861 -20 0.207912 0.978148<272.67 824.003> 235.787 -20 425.729 -20 0.207912 0.978148<1061.94 1442.97> 968 881 793 791 0.515711 -0.856763<0 562.857 742.145 937.486>
LayerCount: 2
Fore
SplineSet
1137 226 m 1,0,1
 793 791 l 1,2,-1
 668 791 l 2,3,4
 528 791 528 791 498 651 c 2,5,-1
 409 230 l 2,6,7
 404 205 404 205 404 185 c 0,8,9
 404 90 404 90 519 90 c 2,10,-1
 862 90 l 2,11,12
 1022 90 1022 90 1137 226 c 1,0,1
853 0 m 2,13,-1
 520 0 l 2,14,15
 212 0 212 0 212 243 c 0,16,17
 212 294 212 294 224 350 c 2,18,-1
 272 576 l 2,19,20
 325 824 325 824 514 884 c 1,21,22
 464 931 464 931 464 1016 c 0,23,24
 464 1053 464 1053 473 1096 c 2,25,-1
 495 1200 l 2,26,27
 561 1510 561 1510 891 1510 c 2,28,-1
 1001 1510 l 2,29,30
 1304 1510 1304 1510 1304 1283 c 0,31,32
 1304 1256 1304 1256 1300 1226 c 1,33,-1
 1097 1138 l 1,34,-1
 1087 1138 l 1,35,-1
 1119 1290 l 2,36,37
 1124 1314 1124 1314 1124 1334 c 0,38,39
 1124 1430 1124 1430 1009 1430 c 2,40,-1
 874 1430 l 2,41,42
 734 1430 734 1430 704 1290 c 2,43,-1
 647 1021 l 2,44,45
 642 997 642 997 642 976 c 0,46,47
 642 881 642 881 757 881 c 2,48,-1
 968 881 l 1,49,-1
 1257 398 l 1,50,51
 1385 626 1385 626 1423 827 c 1,52,-1
 1637 919 l 1,53,-1
 1650 914 l 1,54,55
 1582 601 1582 601 1324 287 c 1,56,-1
 1467 52 l 1,57,-1
 1299 -20 l 1,58,-1
 1289 -20 l 1,59,-1
 1186 146 l 1,60,61
 1043 0 1043 0 853 0 c 2,13,-1
EndSplineSet
Validated: 1
EndChar

StartChar: quotesingle
Encoding: 39 39 10
Width: 220
GlyphClass: 2
Flags: W
HStem: 1140 440
VStem: 292 214
DStem2: 292 1140 411.947 1140 0.207912 0.978148<78.1001 396.778>
LayerCount: 2
Fore
SplineSet
496 1580 m 1,0,-1
 506 1580 l 1,1,-1
 423 1192 l 1,2,-1
 302 1140 l 1,3,-1
 292 1140 l 1,4,-1
 375 1528 l 1,5,-1
 496 1580 l 1,0,-1
EndSplineSet
Validated: 1
EndChar

StartChar: parenleft
Encoding: 40 40 11
Width: 756
GlyphClass: 2
Flags: W
HStem: -240 90<406.218 655> 1660 90<770.305 1059>
VStem: 210 183<-135.349 56.4669>
DStem2: 148.605 -240 349.112 -240 0.207912 0.978148<251.955 1896.68>
LayerCount: 2
Fore
SplineSet
655 -240 m 1,0,-1
 519 -240 l 2,1,2
 210 -240 210 -240 210 3 c 0,3,4
 210 52 210 52 223 110 c 2,5,-1
 498 1400 l 2,6,7
 573 1750 573 1750 902 1750 c 2,8,-1
 1078 1750 l 1,9,-1
 1059 1660 l 1,10,-1
 893 1660 l 2,11,12
 753 1660 753 1660 723 1520 c 2,13,-1
 398 -10 l 2,14,15
 393 -35 393 -35 393 -55 c 0,16,17
 393 -150 393 -150 508 -150 c 2,18,-1
 674 -150 l 1,19,-1
 655 -240 l 1,0,-1
EndSplineSet
Validated: 1
EndChar

StartChar: parenright
Encoding: 41 41 12
Width: 756
GlyphClass: 2
Flags: W
HStem: -240 90<18 306.695> 1660 90<422 670.782>
VStem: 684 183<1346.09 1645.99>
DStem2: 305.112 -240 504.605 -240 0.207912 0.978148<179.418 1824.15>
LayerCount: 2
Fore
SplineSet
-1 -240 m 1,0,-1
 18 -150 l 1,1,-1
 184 -150 l 2,2,3
 324 -150 324 -150 354 -10 c 2,4,-1
 679 1520 l 2,5,6
 684 1545 684 1545 684 1565 c 0,7,8
 684 1660 684 1660 569 1660 c 2,9,-1
 403 1660 l 1,10,-1
 422 1750 l 1,11,-1
 558 1750 l 2,12,13
 867 1750 867 1750 867 1507 c 0,14,15
 867 1458 867 1458 854 1400 c 2,16,-1
 579 110 l 2,17,18
 504 -240 504 -240 175 -240 c 2,19,-1
 -1 -240 l 1,0,-1
EndSplineSet
Validated: 1
EndChar

StartChar: asterisk
Encoding: 42 42 13
Width: 748
GlyphClass: 2
Flags: W
HStem: 900 680
DStem2: 288 1122 377 1044 0.889118 0.457677<43.4327 243.802 485.703 686.073> 460 1436 339 1358 0.834738 -0.550647<0 156.342 356.679 512.186> 505 900 624.947 900 0.207912 0.978148<78.1001 241.238 478.999 642.137>
LayerCount: 2
Fore
SplineSet
760 1580 m 1,0,-1
 770 1580 l 1,1,-1
 720 1344 l 1,2,-1
 898 1436 l 1,3,-1
 984 1367 l 1,4,-1
 987 1358 l 1,5,-1
 758 1240 l 1,6,-1
 936 1122 l 1,7,-1
 930 1113 l 1,8,-1
 815 1044 l 1,9,-1
 675 1136 l 1,10,-1
 636 952 l 1,11,-1
 515 900 l 1,12,-1
 505 900 l 1,13,-1
 555 1136 l 1,14,-1
 377 1044 l 1,15,-1
 292 1113 l 1,16,-1
 288 1122 l 1,17,-1
 518 1240 l 1,18,-1
 339 1358 l 1,19,-1
 346 1367 l 1,20,-1
 460 1436 l 1,21,-1
 600 1344 l 1,22,-1
 639 1528 l 1,23,-1
 760 1580 l 1,0,-1
EndSplineSet
Validated: 1
EndChar

StartChar: plus
Encoding: 43 43 14
Width: 1200
GlyphClass: 2
Flags: W
HStem: 680 150<392 670 851 1129>
DStem2: 590 305 739.971 305 0.207912 0.978148<98.6553 383.438 567.792 852.575>
LayerCount: 2
Fore
SplineSet
767 1139 m 1,0,-1
 921 1205 l 1,1,-1
 931 1205 l 1,2,-1
 851 830 l 1,3,-1
 1226 830 l 1,4,-1
 1224 820 l 1,5,-1
 1129 680 l 1,6,-1
 820 680 l 1,7,-1
 754 371 l 1,8,-1
 600 305 l 1,9,-1
 590 305 l 1,10,-1
 670 680 l 1,11,-1
 295 680 l 1,12,-1
 297 690 l 1,13,-1
 392 830 l 1,14,-1
 701 830 l 1,15,-1
 767 1139 l 1,0,-1
EndSplineSet
Validated: 1
EndChar

StartChar: comma
Encoding: 44 44 15
Width: 389
GlyphClass: 2
Flags: W
HStem: -276 554
VStem: 187 166<-64.7295 154.218>
LayerCount: 2
Fore
SplineSet
279 278 m 1,0,-1
 289 278 l 1,1,2
 353 198 353 198 353 101 c 0,3,4
 353 68 353 68 346 34 c 0,5,6
 304 -163 304 -163 55 -276 c 1,7,-1
 50 -269 l 1,8,9
 155 -139 155 -139 182 -10 c 0,10,11
 187 14 187 14 187 37 c 0,12,13
 187 134 187 134 92 198 c 1,14,-1
 279 278 l 1,0,-1
EndSplineSet
Validated: 1
EndChar

StartChar: hyphen
Encoding: 45 45 16
Width: 1200
GlyphClass: 2
Flags: W
HStem: 680 150<392 1129>
LayerCount: 2
Fore
SplineSet
392 830 m 5,0,-1
 1226 830 l 5,1,-1
 1224 820 l 5,2,-1
 1129 680 l 5,3,-1
 295 680 l 5,4,-1
 297 690 l 5,5,-1
 392 830 l 5,0,-1
EndSplineSet
Validated: 1
EndChar

StartChar: period
Encoding: 46 46 17
Width: 340
GlyphClass: 2
Flags: W
HStem: -20 245<116.901 267.42>
VStem: 69 246<27.5918 176.764>
LayerCount: 2
Fore
SplineSet
166 -20 m 0,0,1
 114 -20 114 -20 88 16 c 0,2,3
 69 42 69 42 69 75 c 0,4,5
 69 88 69 88 72 102 c 0,6,7
 83 152 83 152 125.5 188.5 c 128,-1,8
 168 225 168 225 218 225 c 128,-1,9
 268 225 268 225 296 189 c 0,10,11
 315 165 315 165 315 130 c 0,12,13
 315 116 315 116 312 102 c 0,14,15
 301 52 301 52 258.5 16 c 128,-1,16
 216 -20 216 -20 166 -20 c 0,0,1
EndSplineSet
Validated: 1
EndChar

StartChar: slash
Encoding: 47 47 18
Width: 1039
GlyphClass: 2
Flags: W
DStem2: -18 -133 114 -200 0.565598 0.824681<19.4053 2233.67>
LayerCount: 2
Fore
SplineSet
104 -200 m 1,0,-1
 -18 -133 l 1,1,-1
 1244 1710 l 1,2,-1
 1254 1710 l 1,3,-1
 1378 1643 l 1,4,-1
 114 -200 l 1,5,-1
 104 -200 l 1,0,-1
EndSplineSet
Validated: 1
EndChar

StartChar: zero
Encoding: 48 48 19
Width: 1330
GlyphClass: 2
Flags: W
HStem: 0 90<432.909 954.445> 1420 90<696.555 1218.09>
VStem: 221 193<103.79 411.875> 1237 193<1098.12 1406.21>
DStem2: 159.605 0 370.112 0 0.207912 0.978148<250.977 1405.97> 960.112 0 1169.61 0 0.207912 0.978148<181.497 1336.49>
LayerCount: 2
Fore
SplineSet
529 90 m 2,0,-1
 839 90 l 2,1,2
 979 90 979 90 1009 230 c 2,3,-1
 1232 1280 l 2,4,5
 1237 1305 1237 1305 1237 1325 c 0,6,7
 1237 1420 1237 1420 1122 1420 c 2,8,-1
 812 1420 l 2,9,10
 672 1420 672 1420 642 1280 c 2,11,-1
 419 230 l 2,12,13
 414 205 414 205 414 185 c 0,14,15
 414 90 414 90 529 90 c 2,0,-1
530 0 m 2,16,17
 221 0 221 0 221 242 c 0,18,19
 221 291 221 291 234 350 c 2,20,-1
 407 1160 l 2,21,22
 482 1510 482 1510 811 1510 c 2,23,-1
 1121 1510 l 2,24,25
 1430 1510 1430 1510 1430 1268 c 0,26,27
 1430 1219 1430 1219 1417 1160 c 2,28,-1
 1244 350 l 2,29,30
 1169 0 1169 0 840 0 c 2,31,-1
 530 0 l 2,16,17
EndSplineSet
Validated: 1
EndChar

StartChar: one
Encoding: 49 49 20
Width: 714
GlyphClass: 2
Flags: W
HStem: -20 21G<260 316.444> 1510 20G<732.816 789>
VStem: 260 529
DStem2: 260 -20 459.87 -20 0.207912 0.978148<133.566 1392.32> 301 1323 281 1228 0.917649 0.397392<0 235.127>
LayerCount: 2
Fore
SplineSet
260 -20 m 1,0,-1
 549 1342 l 1,1,-1
 281 1228 l 1,2,-1
 301 1323 l 1,3,-1
 779 1530 l 1,4,-1
 789 1530 l 1,5,-1
 479 70 l 1,6,-1
 270 -20 l 1,7,-1
 260 -20 l 1,0,-1
EndSplineSet
Validated: 1
EndChar

StartChar: two
Encoding: 50 50 21
Width: 1233
GlyphClass: 2
Flags: W
HStem: 0 179<370 1023> 1420 90<646.869 1127.09>
VStem: 1146 193<1091.27 1406.43>
DStem2: 198 180 370 179 0.809035 0.58776<138.566 1006.06> 869.154 0 1078.58 0 0.207912 0.978148<905.133 1337.42>
LayerCount: 2
Fore
SplineSet
80 0 m 1,0,-1
 82 10 l 1,1,-1
 198 180 l 1,2,-1
 783 605 l 2,3,4
 1037 790 1037 790 1090 1039 c 2,5,-1
 1141 1280 l 2,6,7
 1146 1304 1146 1304 1146 1325 c 0,8,9
 1146 1420 1146 1420 1031 1420 c 2,10,-1
 766 1420 l 2,11,12
 626 1420 626 1420 596 1280 c 2,13,-1
 565 1134 l 1,14,-1
 339 1036 l 1,15,-1
 329 1036 l 1,16,-1
 356 1160 l 2,17,18
 432 1510 432 1510 790 1510 c 2,19,-1
 1030 1510 l 2,20,21
 1339 1510 1339 1510 1339 1269 c 0,22,23
 1339 1219 1339 1219 1326 1160 c 2,24,-1
 1299 1037 l 2,25,26
 1248 803 1248 803 899 555 c 2,27,-1
 370 179 l 1,28,-1
 1141 180 l 1,29,-1
 1139 170 l 1,30,-1
 1023 0 l 1,31,-1
 80 0 l 1,0,-1
EndSplineSet
Validated: 1
EndChar

StartChar: three
Encoding: 51 51 22
Width: 1223
GlyphClass: 2
Flags: W
HStem: 0 90<376.68 867.445> 861 90<915 1012.09> 1420 90<572 1052>
VStem: 173 186<105.513 367.118> 1031 193<656.422 846.779>
DStem2: 678 911 915 951 0.60251 0.798111<174.719 631.577> 873.112 0 1082.61 0 0.207912 0.978148<181.497 764.99>
LayerCount: 2
Fore
SplineSet
915 951 m 1,0,1
 1224 951 1224 951 1224 709 c 0,2,3
 1224 661 1224 661 1211 601 c 2,4,-1
 1157 350 l 2,5,6
 1082 0 1082 0 753 0 c 2,7,-1
 470 0 l 2,8,9
 173 0 173 0 173 250 c 0,10,11
 173 301 173 301 186 362 c 1,12,-1
 402 455 l 1,13,-1
 412 455 l 1,14,-1
 364 230 l 2,15,16
 359 207 359 207 359 185 c 0,17,18
 359 90 359 90 474 90 c 2,19,-1
 752 90 l 2,20,21
 892 90 892 90 922 230 c 2,22,-1
 1026 721 l 2,23,24
 1031 745 1031 745 1031 766 c 0,25,26
 1031 861 1031 861 916 861 c 2,27,-1
 707 861 l 1,28,-1
 678 911 l 1,29,-1
 1052 1420 l 1,30,-1
 515 1420 l 1,31,-1
 517 1430 l 1,32,-1
 572 1510 l 1,33,-1
 1337 1510 l 1,34,-1
 915 951 l 1,0,1
EndSplineSet
Validated: 1
EndChar

StartChar: four
Encoding: 52 52 23
Width: 1232
GlyphClass: 2
Flags: W
HStem: -20 21G<778 834.444> 340 90<277 854 1073 1166> 1510 20G<1250.56 1307>
DStem2: 84 350 277 430 0.677495 0.735527<189.599 1333.24> 778 -20 977.87 -20 0.207912 0.978148<133.566 367.934 501.5 1319.76>
LayerCount: 2
Fore
SplineSet
277 430 m 1,0,-1
 873 430 l 1,1,-1
 1052 1271 l 1,2,-1
 277 430 l 1,0,-1
778 -20 m 1,3,-1
 854 340 l 1,4,-1
 82 340 l 1,5,-1
 84 350 l 1,6,-1
 1088 1440 l 1,7,-1
 1297 1530 l 1,8,-1
 1307 1530 l 1,9,-1
 1073 430 l 1,10,-1
 1223 430 l 1,11,-1
 1221 420 l 1,12,-1
 1166 340 l 1,13,-1
 1054 340 l 1,14,-1
 997 70 l 1,15,-1
 788 -20 l 1,16,-1
 778 -20 l 1,3,-1
EndSplineSet
Validated: 1
EndChar

StartChar: five
Encoding: 53 53 24
Width: 1223
GlyphClass: 2
Flags: W
HStem: 0 90<376.68 867.445> 861 90<583.715 1012.09> 1420 90<811 1290>
VStem: 173 186<105.513 367.118> 1031 193<535.602 847.21>
DStem2: 338 808 496 723 0.410473 0.911873<0 139.396 208.258 752.22> 873.112 0 1082.61 0 0.207912 0.978148<181.497 764.99>
LayerCount: 2
Fore
SplineSet
470 0 m 2,0,1
 173 0 173 0 173 250 c 0,2,3
 173 301 173 301 186 362 c 1,4,-1
 402 455 l 1,5,-1
 412 455 l 1,6,-1
 364 230 l 2,7,8
 359 207 359 207 359 185 c 0,9,10
 359 90 359 90 474 90 c 2,11,-1
 752 90 l 2,12,13
 892 90 892 90 922 230 c 2,14,-1
 1026 721 l 2,15,16
 1031 745 1031 745 1031 766 c 0,17,18
 1031 861 1031 861 916 861 c 2,19,-1
 683 861 l 2,20,21
 554 861 554 861 496 723 c 1,22,-1
 338 808 l 1,23,-1
 654 1510 l 1,24,-1
 1347 1510 l 1,25,-1
 1345 1500 l 1,26,-1
 1290 1420 l 1,27,-1
 811 1420 l 1,28,-1
 581 927 l 1,29,30
 654 951 654 951 712 951 c 2,31,-1
 915 951 l 2,32,33
 1224 951 1224 951 1224 709 c 0,34,35
 1224 661 1224 661 1211 601 c 2,36,-1
 1157 350 l 2,37,38
 1082 0 1082 0 753 0 c 2,39,-1
 470 0 l 2,0,1
EndSplineSet
Validated: 1
EndChar

StartChar: six
Encoding: 54 54 25
Width: 1300
GlyphClass: 2
Flags: W
HStem: 0 90<419.218 936.75> 864 90<563.305 1089.33> 1420 90<681.305 1196.32>
VStem: 223 183<103.79 414.266> 1101 191<537.641 850.21> 1214 186<1142.88 1404.49>
DStem2: 161.605 0 362.112 0 0.207912 0.978148<250.917 906.844 969.949 1405.97> 942.112 0 1151.61 0 0.207912 0.978148<181.593 767.596 1215.41 1326.1>
LayerCount: 2
Fore
SplineSet
516 724 m 2,0,-1
 411 230 l 2,1,2
 406 205 406 205 406 185 c 0,3,4
 406 90 406 90 521 90 c 2,5,-1
 821 90 l 2,6,7
 961 90 961 90 991 230 c 2,8,-1
 1096 724 l 2,9,10
 1101 749 1101 749 1101 769 c 0,11,12
 1101 864 1101 864 986 864 c 2,13,-1
 686 864 l 2,14,15
 546 864 546 864 516 724 c 2,0,-1
822 0 m 2,16,-1
 532 0 l 2,17,18
 223 0 223 0 223 242 c 0,19,20
 223 289 223 289 236 350 c 2,21,-1
 409 1160 l 2,22,23
 484 1510 484 1510 813 1510 c 2,24,-1
 1103 1510 l 2,25,26
 1400 1510 1400 1510 1400 1260 c 0,27,28
 1400 1209 1400 1209 1387 1148 c 1,29,-1
 1171 1055 l 1,30,-1
 1161 1055 l 1,31,-1
 1209 1280 l 2,32,33
 1214 1303 1214 1303 1214 1325 c 0,34,35
 1214 1420 1214 1420 1099 1420 c 2,36,-1
 804 1420 l 2,37,38
 664 1420 664 1420 634 1280 c 2,39,-1
 555 908 l 1,40,41
 617 954 617 954 695 954 c 2,42,-1
 985 954 l 2,43,44
 1292 954 1292 954 1292 712 c 0,45,46
 1292 660 1292 660 1280 604 c 2,47,-1
 1226 350 l 2,48,49
 1152 0 1152 0 822 0 c 2,16,-1
EndSplineSet
Validated: 1
EndChar

StartChar: seven
Encoding: 55 55 26
Width: 967
GlyphClass: 2
Flags: W
HStem: -20 21G<158 214.333> 1420 90<369 1022>
DStem2: 158 -20 446 100 0.514496 0.857493<251.074 1679.31>
LayerCount: 2
Fore
SplineSet
158 -20 m 1,0,-1
 1022 1420 l 1,1,-1
 312 1420 l 1,2,-1
 314 1430 l 1,3,-1
 369 1510 l 1,4,-1
 1278 1510 l 1,5,-1
 1276 1500 l 1,6,-1
 446 100 l 1,7,-1
 168 -20 l 1,8,-1
 158 -20 l 1,0,-1
EndSplineSet
Validated: 1
EndChar

StartChar: eight
Encoding: 56 56 27
Width: 1210
GlyphClass: 2
Flags: W
HStem: 0 90<375.328 884.75> 791 90<615.117 989.695> 1430 80<719.258 1083.35>
VStem: 172 192<104.005 415.641> 424 178<895.313 1207.77> 1033 198<464.906 777.369 963.065 1084.22> 1099 176<1103.78 1415.09>
DStem2: 109.605 0 320.112 0 0.207912 0.978148<252.163 776.97> 200.038 0 389.98 0 0.207912 0.978148<1045.35 1422.52> 819.98 0 1010.04 0 0.207912 0.978148<984.079 1351.28> 890.112 0 1099.61 0 0.207912 0.978148<181.593 709.886>
LayerCount: 2
Fore
SplineSet
479 90 m 2,0,1
 769 90 l 2,2,3
 909 90 909 90 939 230 c 2,4,-1
 1028 651 l 2,5,6
 1033 676 1033 676 1033 696 c 0,7,8
 1033 791 1033 791 918 791 c 2,9,-1
 628 791 l 2,10,11
 488 791 488 791 458 651 c 2,12,-1
 369 230 l 2,13,14
 364 205 364 205 364 185 c 0,15,16
 364 90 364 90 479 90 c 2,0,1
717 881 m 2,17,-1
 867 881 l 2,18,19
 1007 881 1007 881 1037 1021 c 2,20,-1
 1094 1290 l 2,21,22
 1099 1315 1099 1315 1099 1335 c 0,23,24
 1099 1430 1099 1430 984 1430 c 2,25,-1
 834 1430 l 2,26,27
 694 1430 694 1430 664 1290 c 2,28,-1
 607 1021 l 2,29,30
 602 996 602 996 602 976 c 0,31,32
 602 881 602 881 717 881 c 2,17,-1
770 0 m 2,33,-1
 480 0 l 2,34,35
 172 0 172 0 172 243 c 0,36,37
 172 292 172 292 184 350 c 2,38,-1
 232 576 l 2,39,40
 282 810 282 810 515 862 c 1,41,42
 424 908 424 908 424 1020 c 0,43,44
 424 1055 424 1055 433 1096 c 2,45,-1
 455 1200 l 2,46,47
 521 1510 521 1510 851 1510 c 2,48,-1
 961 1510 l 2,49,50
 1275 1510 1275 1510 1275 1286 c 0,51,52
 1275 1246 1275 1246 1265 1200 c 2,53,-1
 1243 1096 l 2,54,55
 1206 922 1206 922 1061 862 c 1,56,57
 1231 820 1231 820 1231 659 c 0,58,59
 1231 621 1231 621 1222 576 c 2,60,-1
 1174 350 l 2,61,62
 1100 0 1100 0 770 0 c 2,33,-1
EndSplineSet
Validated: 1
EndChar

StartChar: nine
Encoding: 57 57 28
Width: 1300
GlyphClass: 2
Flags: W
HStem: 0 90<426.68 941.695> 556 90<533.668 1059.7> 1420 90<686.25 1203.78>
VStem: 223 186<105.513 367.118> 331 191<659.79 972.359> 1217 183<1095.73 1406.21>
DStem2: 159.055 0 365.112 0 0.207912 0.978148<259.394 370.087 817.902 1425.32> 940.112 0 1139.61 0 0.207912 0.978148<179.418 615.434 678.539 1334.47>
LayerCount: 2
Fore
SplineSet
1107 786 m 2,0,-1
 1212 1280 l 2,1,2
 1217 1305 1217 1305 1217 1325 c 0,3,4
 1217 1420 1217 1420 1102 1420 c 2,5,-1
 802 1420 l 2,6,7
 662 1420 662 1420 632 1280 c 2,8,-1
 527 786 l 2,9,10
 522 761 522 761 522 741 c 0,11,12
 522 646 522 646 637 646 c 2,13,-1
 937 646 l 2,14,15
 1077 646 1077 646 1107 786 c 2,0,-1
810 0 m 2,16,-1
 520 0 l 2,17,18
 223 0 223 0 223 250 c 0,19,20
 223 301 223 301 236 362 c 1,21,-1
 452 455 l 1,22,-1
 462 455 l 1,23,-1
 414 230 l 2,24,25
 409 207 409 207 409 185 c 0,26,27
 409 90 409 90 524 90 c 2,28,-1
 819 90 l 2,29,30
 959 90 959 90 989 230 c 2,31,-1
 1068 602 l 1,32,33
 1006 556 1006 556 928 556 c 2,34,-1
 638 556 l 2,35,36
 331 556 331 556 331 798 c 0,37,38
 331 850 331 850 343 906 c 2,39,-1
 397 1160 l 2,40,41
 471 1510 471 1510 801 1510 c 2,42,-1
 1091 1510 l 2,43,44
 1400 1510 1400 1510 1400 1268 c 0,45,46
 1400 1221 1400 1221 1387 1160 c 2,47,-1
 1214 350 l 2,48,49
 1139 0 1139 0 810 0 c 2,16,-1
EndSplineSet
Validated: 1
EndChar

StartChar: colon
Encoding: 58 58 29
Width: 340
GlyphClass: 2
Flags: W
HStem: -20 245<116.711 267.42> 632 245<254.711 405.42>
VStem: 69 246<27.5918 176.764> 207 246<679.592 828.764>
LayerCount: 2
Fore
SplineSet
356 877 m 0,0,1
 408 877 408 877 434 841 c 0,2,3
 453 816 453 816 453 782 c 0,4,5
 453 768 453 768 450 754 c 0,6,7
 439 704 439 704 396.5 668 c 128,-1,8
 354 632 354 632 304 632 c 128,-1,9
 254 632 254 632 226 668 c 0,10,11
 207 693 207 693 207 727 c 0,12,13
 207 740 207 740 210 754 c 0,14,15
 221 804 221 804 263.5 840.5 c 128,-1,16
 306 877 306 877 356 877 c 0,0,1
166 -20 m 128,-1,18
 116 -20 116 -20 88 16 c 0,19,20
 69 41 69 41 69 75 c 0,21,22
 69 88 69 88 72 102 c 0,23,24
 83 152 83 152 125.5 188.5 c 128,-1,25
 168 225 168 225 218 225 c 0,26,27
 270 225 270 225 296 189 c 0,28,29
 315 163 315 163 315 130 c 0,30,31
 315 116 315 116 312 102 c 0,32,33
 301 52 301 52 258.5 16 c 128,-1,17
 216 -20 216 -20 166 -20 c 128,-1,18
EndSplineSet
Validated: 1
EndChar

StartChar: semicolon
Encoding: 59 59 30
Width: 389
GlyphClass: 2
Flags: W
HStem: 632 245<274.711 425.42>
VStem: 187 166<-64.7295 154.218> 227 246<679.592 828.764>
LayerCount: 2
Fore
SplineSet
376 877 m 0,0,1
 428 877 428 877 454 841 c 0,2,3
 473 816 473 816 473 782 c 0,4,5
 473 768 473 768 470 754 c 0,6,7
 459 704 459 704 416.5 668 c 128,-1,8
 374 632 374 632 324 632 c 128,-1,9
 274 632 274 632 246 668 c 0,10,11
 227 693 227 693 227 727 c 0,12,13
 227 740 227 740 230 754 c 0,14,15
 241 804 241 804 283.5 840.5 c 128,-1,16
 326 877 326 877 376 877 c 0,0,1
279 278 m 1,17,-1
 289 278 l 1,18,19
 353 198 353 198 353 101 c 0,20,21
 353 68 353 68 346 34 c 0,22,23
 304 -163 304 -163 55 -276 c 1,24,-1
 50 -269 l 1,25,26
 155 -139 155 -139 182 -10 c 0,27,28
 187 14 187 14 187 37 c 0,29,30
 187 134 187 134 92 198 c 1,31,-1
 279 278 l 1,17,-1
EndSplineSet
Validated: 1
EndChar

StartChar: less
Encoding: 60 60 31
Width: 1315
GlyphClass: 2
Flags: W
DStem2: 484 774 295 680 0.933865 -0.357626<0 749.109> 392 830 484 774 0.945706 0.325023<68.8037 977.047>
LayerCount: 2
Fore
SplineSet
392 830 m 1,0,-1
 1326 1151 l 1,1,-1
 1345 1079 l 1,2,-1
 1343 1069 l 1,3,-1
 484 774 l 1,4,-1
 1222 505 l 1,5,-1
 1220 495 l 1,6,-1
 1128 361 l 1,7,-1
 295 680 l 1,8,-1
 297 690 l 1,9,-1
 392 830 l 1,0,-1
EndSplineSet
Validated: 1
EndChar

StartChar: equal
Encoding: 61 61 32
Width: 1200
GlyphClass: 2
Flags: W
HStem: 480 150<350 1086> 880 150<435 1171>
LayerCount: 2
Fore
SplineSet
435 1030 m 1,0,-1
 1269 1030 l 1,1,-1
 1267 1020 l 1,2,-1
 1171 880 l 1,3,-1
 337 880 l 1,4,-1
 339 890 l 1,5,-1
 435 1030 l 1,0,-1
350 630 m 1,6,-1
 1184 630 l 1,7,-1
 1182 620 l 1,8,-1
 1086 480 l 1,9,-1
 252 480 l 1,10,-1
 254 490 l 1,11,-1
 350 630 l 1,6,-1
EndSplineSet
Validated: 1
EndChar

StartChar: greater
Encoding: 62 62 33
Width: 1315
GlyphClass: 2
Flags: W
DStem2: 293 441 310 359 0.945706 0.325023<0 908.243> 508 1149 414 1005 0.933865 -0.357626<0 749.109>
LayerCount: 2
Fore
SplineSet
1244 680 m 1,0,-1
 310 359 l 1,1,-1
 291 431 l 1,2,-1
 293 441 l 1,3,-1
 1152 736 l 1,4,-1
 414 1005 l 1,5,-1
 416 1015 l 1,6,-1
 508 1149 l 1,7,-1
 1341 830 l 1,8,-1
 1339 820 l 1,9,-1
 1244 680 l 1,0,-1
EndSplineSet
Validated: 1
EndChar

StartChar: question
Encoding: 63 63 34
Width: 1270
GlyphClass: 2
Flags: W
HStem: -20 245<541.901 692.42> 1420 90<687.869 1168.09>
VStem: 494 246<27.5918 176.764> 1187 193<1218.19 1406.64>
DStem2: 905.579 -20 1115.75 -20 0.207912 0.978148<982.604 1358.92>
LayerCount: 2
Fore
SplineSet
831 1510 m 2,0,1
 1071 1510 l 2,2,3
 1380 1510 1380 1510 1380 1270 c 0,4,5
 1380 1220 1380 1220 1367 1160 c 2,6,-1
 1357 1115 l 2,7,8
 1287 798 1287 798 926 636 c 0,9,10
 826 591 826 591 786 399 c 1,11,-1
 573 306 l 1,12,-1
 563 306 l 1,13,14
 622 583 622 583 854 688 c 0,15,16
 1077 789 1077 789 1126 1017 c 2,17,-1
 1182 1280 l 2,18,19
 1187 1305 1187 1305 1187 1325 c 0,20,21
 1187 1420 1187 1420 1072 1420 c 2,22,-1
 807 1420 l 2,23,24
 667 1420 667 1420 637 1280 c 2,25,-1
 606 1134 l 1,26,-1
 380 1036 l 1,27,-1
 370 1036 l 1,28,-1
 397 1160 l 2,29,30
 473 1510 473 1510 831 1510 c 2,0,1
591 -20 m 0,31,32
 539 -20 539 -20 513 16 c 0,33,34
 494 42 494 42 494 75 c 0,35,36
 494 88 494 88 497 102 c 0,37,38
 508 152 508 152 550.5 188.5 c 128,-1,39
 593 225 593 225 643 225 c 128,-1,40
 693 225 693 225 721 189 c 0,41,42
 740 165 740 165 740 130 c 0,43,44
 740 116 740 116 737 102 c 0,45,46
 726 52 726 52 683.5 16 c 128,-1,47
 641 -20 641 -20 591 -20 c 0,31,32
EndSplineSet
Validated: 1
EndChar

StartChar: at
Encoding: 64 64 35
Width: 1380
GlyphClass: 2
Flags: W
HStem: -410 80<335.544 636> 0 80<759.448 1010> 589 80<849.566 1145> 1020 80<602.961 1191.04>
VStem: 155 160<-315.859 -7.73438> 588 163<83.6652 366.102> 1209 162<696.906 1005.86>
DStem2: 92.6052 -410 273.238 -410 0.207912 0.978148<252.163 1405.69> 451.336 -410 630.717 -410 0.207912 0.978148<621.388 1016.95> 932.847 -410 1112.72 -410 0.207912 0.978148<548.568 1021.28 1102.44 1328.91>
LayerCount: 2
Fore
SplineSet
933 589 m 2,0,1
 843 589 843 589 824 499 c 2,2,-1
 754 170 l 2,3,4
 751 154 751 154 751 141 c 0,5,6
 751 80 751 80 825 80 c 2,7,-1
 1037 80 l 1,8,-1
 1145 589 l 1,9,-1
 933 589 l 2,0,1
1010 0 m 1,10,-1
 838 0 l 2,11,12
 588 0 588 0 588 195 c 0,13,14
 588 234 588 234 598 280 c 2,15,-1
 621 389 l 2,16,17
 680 669 680 669 940 669 c 2,18,-1
 1159 669 l 1,19,-1
 1204 880 l 2,20,21
 1209 905 1209 905 1209 925 c 0,22,23
 1209 1020 1209 1020 1094 1020 c 2,24,-1
 717 1020 l 2,25,26
 577 1020 577 1020 547 880 c 2,27,-1
 320 -190 l 2,28,29
 315 -215 315 -215 315 -235 c 0,30,31
 315 -330 315 -330 430 -330 c 2,32,-1
 686 -330 l 1,33,-1
 684 -340 l 1,34,-1
 636 -410 l 1,35,-1
 463 -410 l 2,36,37
 155 -410 155 -410 155 -167 c 0,38,39
 155 -118 155 -118 167 -60 c 2,40,-1
 339 750 l 2,41,42
 413 1100 413 1100 744 1100 c 2,43,-1
 1064 1100 l 2,44,45
 1371 1100 1371 1100 1371 857 c 0,46,47
 1371 808 1371 808 1359 750 c 2,48,-1
 1219 90 l 1,49,-1
 1010 0 l 1,10,-1
EndSplineSet
Validated: 1
EndChar

StartChar: A
Encoding: 65 65 36
Width: 1370
GlyphClass: 2
Flags: W
HStem: -20 21G<176 232.444 986 1042.44> 710 90<550 1141> 1420 90<699.305 1253.42>
VStem: 1267 182<1215.69 1405.35>
DStem2: 176 -20 375.87 -20 0.207912 0.978148<133.566 787.856 879.84 1426.18> 986 -20 1185.87 -20 0.207912 0.978148<133.566 746.274 838.258 1353.64>
LayerCount: 2
Fore
SplineSet
186 -20 m 1,0,-1
 176 -20 l 1,1,-1
 427 1160 l 2,2,3
 501 1510 501 1510 831 1510 c 2,4,-1
 1141 1510 l 2,5,6
 1449 1510 1449 1510 1449 1267 c 0,7,8
 1449 1218 1449 1218 1437 1160 c 2,9,-1
 1205 70 l 1,10,-1
 996 -20 l 1,11,-1
 986 -20 l 1,12,-1
 1141 710 l 1,13,-1
 531 710 l 1,14,-1
 395 70 l 1,15,-1
 186 -20 l 1,0,-1
550 800 m 1,16,-1
 1160 800 l 1,17,-1
 1262 1280 l 2,18,19
 1267 1305 1267 1305 1267 1325 c 0,20,21
 1267 1420 1267 1420 1152 1420 c 2,22,-1
 822 1420 l 2,23,24
 682 1420 682 1420 652 1280 c 2,25,-1
 550 800 l 1,16,-1
EndSplineSet
Validated: 1
EndChar

StartChar: B
Encoding: 66 66 37
Width: 1250
GlyphClass: 2
Flags: W
HStem: 0 90<419 954.75> 791 90<587 1048.64> 1420 90<702 1139.26>
VStem: 1103 200<464.906 775.999 953.324 1065.06> 1157 188<1094.93 1405.15>
DStem2: 200 0 399.87 0 0.207912 0.978148<133.566 850.226 942.21 1472.15> 879.98 0 1080.04 0 0.207912 0.978148<968.851 1352.41> 960.112 0 1169.61 0 0.207912 0.978148<181.593 709.886>
LayerCount: 2
Fore
SplineSet
419 90 m 1,0,-1
 839 90 l 2,1,2
 979 90 979 90 1009 230 c 2,3,-1
 1098 651 l 2,4,5
 1103 676 1103 676 1103 696 c 0,6,7
 1103 791 1103 791 988 791 c 2,8,-1
 568 791 l 1,9,-1
 419 90 l 1,0,-1
587 881 m 1,10,-1
 927 881 l 2,11,12
 1067 881 1067 881 1097 1021 c 2,13,-1
 1152 1280 l 2,14,15
 1157 1305 1157 1305 1157 1325 c 0,16,17
 1157 1420 1157 1420 1042 1420 c 2,18,-1
 702 1420 l 1,19,-1
 587 881 l 1,10,-1
200 0 m 1,20,-1
 506 1440 l 1,21,-1
 669 1510 l 1,22,-1
 1021 1510 l 2,23,24
 1345 1510 1345 1510 1345 1285 c 0,25,26
 1345 1246 1345 1246 1335 1200 c 2,27,-1
 1313 1096 l 2,28,29
 1275 915 1275 915 1165 871 c 1,30,31
 1303 824 1303 824 1303 671 c 0,32,33
 1303 628 1303 628 1292 576 c 2,34,-1
 1244 350 l 2,35,36
 1170 0 1170 0 840 0 c 2,37,-1
 200 0 l 1,20,-1
EndSplineSet
Validated: 1
EndChar

StartChar: C
Encoding: 67 67 38
Width: 1230
GlyphClass: 2
Flags: W
HStem: 0 90<432.909 934.141> 1420 90<696.555 1194.32>
VStem: 221 193<104.221 296.021> 1212 186<1142.88 1404.49>
DStem2: 159.605 0 370.112 0 0.207912 0.978148<250.917 1405.97> 935.112 0 1149.61 0 0.207912 0.978148<182.441 384.393 1216.45 1327.14>
LayerCount: 2
Fore
SplineSet
530 0 m 2,0,1
 221 0 221 0 221 242 c 0,2,3
 221 289 221 289 234 350 c 2,4,-1
 407 1160 l 2,5,6
 482 1510 482 1510 811 1510 c 2,7,-1
 1101 1510 l 2,8,9
 1398 1510 1398 1510 1398 1260 c 0,10,11
 1398 1209 1398 1209 1385 1148 c 1,12,-1
 1169 1055 l 1,13,-1
 1159 1055 l 9,14,-1
 1207 1280 l 2,15,16
 1212 1303 1212 1303 1212 1325 c 0,17,18
 1212 1420 1212 1420 1097 1420 c 2,19,-1
 812 1420 l 2,20,21
 672 1420 672 1420 642 1280 c 2,22,-1
 419 230 l 2,23,24
 414 206 414 206 414 185 c 0,25,26
 414 90 414 90 529 90 c 2,27,-1
 814 90 l 2,28,29
 954 90 954 90 984 230 c 2,30,-1
 1015 376 l 1,31,-1
 1241 474 l 1,32,-1
 1251 474 l 1,33,-1
 1224 350 l 2,34,35
 1148 0 1148 0 820 0 c 2,36,-1
 530 0 l 2,0,1
EndSplineSet
Validated: 1
EndChar

StartChar: D
Encoding: 68 68 39
Width: 1350
GlyphClass: 2
Flags: W
HStem: 0 90<419 974.445> 1420 90<702 1238.09>
VStem: 1257 193<1098.12 1406.21>
DStem2: 200 0 399.87 0 0.207912 0.978148<133.566 1472.15> 980.112 0 1189.61 0 0.207912 0.978148<181.497 1336.49>
LayerCount: 2
Fore
SplineSet
419 90 m 1,0,-1
 859 90 l 2,1,2
 999 90 999 90 1029 230 c 2,3,-1
 1252 1280 l 2,4,5
 1257 1305 1257 1305 1257 1325 c 0,6,7
 1257 1420 1257 1420 1142 1420 c 2,8,-1
 702 1420 l 1,9,-1
 419 90 l 1,0,-1
200 0 m 1,10,-1
 506 1440 l 1,11,-1
 669 1510 l 1,12,-1
 1141 1510 l 2,13,14
 1450 1510 1450 1510 1450 1268 c 0,15,16
 1450 1219 1450 1219 1437 1160 c 2,17,-1
 1264 350 l 2,18,19
 1189 0 1189 0 860 0 c 2,20,-1
 200 0 l 1,10,-1
EndSplineSet
Validated: 1
EndChar

StartChar: E
Encoding: 69 69 40
Width: 1060
GlyphClass: 2
Flags: W
HStem: 0 90<419 972> 710 90<570 1073> 1420 90<702 1224>
DStem2: 200 0 399.87 0 0.207912 0.978148<133.566 767.462 859.445 1472.15>
CounterMasks: 1 e0
LayerCount: 2
Fore
SplineSet
200 0 m 1,0,-1
 506 1440 l 1,1,-1
 669 1510 l 1,2,-1
 1281 1510 l 1,3,-1
 1279 1500 l 1,4,-1
 1224 1420 l 1,5,-1
 702 1420 l 1,6,-1
 570 800 l 1,7,-1
 1130 800 l 1,8,-1
 1128 790 l 1,9,-1
 1073 710 l 1,10,-1
 551 710 l 1,11,-1
 419 90 l 1,12,-1
 1029 90 l 1,13,-1
 1027 80 l 1,14,-1
 972 0 l 1,15,-1
 200 0 l 1,0,-1
EndSplineSet
Validated: 1
EndChar

StartChar: F
Encoding: 70 70 41
Width: 1010
GlyphClass: 2
Flags: W
HStem: -20 21G<196 252.444> 710 90<570 1073> 1420 90<702 1224>
DStem2: 196 -20 395.87 -20 0.207912 0.978148<133.566 787.856 879.84 1492.55>
LayerCount: 2
Fore
SplineSet
196 -20 m 1,0,-1
 506 1440 l 1,1,-1
 669 1510 l 1,2,-1
 1281 1510 l 1,3,-1
 1279 1500 l 1,4,-1
 1224 1420 l 1,5,-1
 702 1420 l 1,6,-1
 570 800 l 1,7,-1
 1130 800 l 1,8,-1
 1128 790 l 1,9,-1
 1073 710 l 1,10,-1
 551 710 l 1,11,-1
 415 70 l 1,12,-1
 206 -20 l 1,13,-1
 196 -20 l 1,0,-1
EndSplineSet
Validated: 1
EndChar

StartChar: G
Encoding: 71 71 42
Width: 1310
GlyphClass: 2
Flags: W
HStem: 0 90<432.909 951.695> 710 90<830 1101> 1420 90<696.555 1194.32>
VStem: 221 193<104.221 296.021> 1212 186<1142.88 1404.49>
DStem2: 159.605 0 370.112 0 0.207912 0.978148<250.917 1405.97> 950.112 0 1149.61 0 0.207912 0.978148<179.418 725.856 1213.33 1324.03>
CounterMasks: 1 e0
LayerCount: 2
Fore
SplineSet
530 0 m 2,0,1
 221 0 221 0 221 242 c 0,2,3
 221 289 221 289 234 350 c 2,4,-1
 407 1160 l 2,5,6
 482 1510 482 1510 811 1510 c 2,7,-1
 1101 1510 l 2,8,9
 1398 1510 1398 1510 1398 1260 c 0,10,11
 1398 1209 1398 1209 1385 1148 c 1,12,-1
 1169 1055 l 1,13,-1
 1159 1055 l 1,14,-1
 1207 1280 l 2,15,16
 1212 1303 1212 1303 1212 1325 c 0,17,18
 1212 1420 1212 1420 1097 1420 c 2,19,-1
 812 1420 l 2,20,21
 672 1420 672 1420 642 1280 c 2,22,-1
 419 230 l 2,23,24
 414 206 414 206 414 185 c 0,25,26
 414 90 414 90 529 90 c 2,27,-1
 829 90 l 2,28,29
 969 90 969 90 999 230 c 2,30,-1
 1101 710 l 1,31,-1
 773 710 l 1,32,-1
 775 720 l 1,33,-1
 830 800 l 1,34,-1
 1320 800 l 1,35,-1
 1224 350 l 2,36,37
 1149 0 1149 0 820 0 c 2,38,-1
 530 0 l 2,0,1
EndSplineSet
Validated: 1
EndChar

StartChar: H
Encoding: 72 72 43
Width: 1400
GlyphClass: 2
Flags: W
HStem: -20 21G<196 252.444 996 1052.44> 710 90<570 1151> 1510 20G<668.556 725 1468.56 1525>
DStem2: 196 -20 395.87 -20 0.207912 0.978148<133.566 787.856 879.84 1492.55> 996 -20 1195.87 -20 0.207912 0.978148<133.566 746.274 838.258 1492.55>
LayerCount: 2
Fore
SplineSet
196 -20 m 1,0,-1
 506 1440 l 1,1,-1
 715 1530 l 1,2,-1
 725 1530 l 1,3,-1
 570 800 l 1,4,-1
 1170 800 l 1,5,-1
 1306 1440 l 1,6,-1
 1515 1530 l 1,7,-1
 1525 1530 l 1,8,-1
 1215 70 l 1,9,-1
 1006 -20 l 1,10,-1
 996 -20 l 1,11,-1
 1151 710 l 1,12,-1
 551 710 l 1,13,-1
 415 70 l 1,14,-1
 206 -20 l 1,15,-1
 196 -20 l 1,0,-1
EndSplineSet
Validated: 1
EndChar

StartChar: I
Encoding: 73 73 44
Width: 600
GlyphClass: 2
Flags: W
HStem: -20 21G<196 252.444> 1510 20G<668.556 725>
VStem: 196 529
DStem2: 196 -20 395.87 -20 0.207912 0.978148<133.566 1492.55>
LayerCount: 2
Fore
SplineSet
196 -20 m 1,0,-1
 506 1440 l 1,1,-1
 715 1530 l 1,2,-1
 725 1530 l 1,3,-1
 415 70 l 1,4,-1
 206 -20 l 1,5,-1
 196 -20 l 1,0,-1
EndSplineSet
Validated: 1
EndChar

StartChar: J
Encoding: 74 74 45
Width: 1150
GlyphClass: 2
Flags: W
HStem: 0 90<306.68 791.695> 1420 90<484 1092>
VStem: 103 186<105.513 367.118>
DStem2: 790.112 0 989.605 0 0.207912 0.978148<179.418 1451.74>
LayerCount: 2
Fore
SplineSet
400 0 m 2,0,1
 103 0 103 0 103 250 c 0,2,3
 103 301 103 301 116 362 c 1,4,-1
 332 455 l 1,5,-1
 342 455 l 1,6,-1
 294 230 l 2,7,8
 289 207 289 207 289 185 c 0,9,10
 289 90 289 90 404 90 c 2,11,-1
 669 90 l 2,12,13
 809 90 809 90 839 230 c 2,14,-1
 1092 1420 l 1,15,-1
 427 1420 l 1,16,-1
 429 1430 l 1,17,-1
 484 1510 l 1,18,-1
 1311 1510 l 1,19,-1
 1064 350 l 2,20,21
 989 0 989 0 660 0 c 2,22,-1
 400 0 l 2,0,1
EndSplineSet
Validated: 1
EndChar

StartChar: K
Encoding: 75 75 46
Width: 1330
GlyphClass: 2
Flags: W
HStem: -20 21G<196 252.444 966 1022.44> 900 90<802 1122.42> 1510 20G<668.556 725 1353.84 1428.92>
VStem: 1137 181<694.608 885.349>
DStem2: 196 -20 395.87 -20 0.207912 0.978148<133.566 963.968 1040.27 1492.55> 603 957 802 990 0.805186 0.593023<179.802 966.237> 966 -20 1165.87 -20 0.207912 0.978148<133.566 821.924>
LayerCount: 2
Fore
SplineSet
206 -20 m 1,0,-1
 196 -20 l 1,1,-1
 506 1440 l 1,2,-1
 715 1530 l 1,3,-1
 725 1530 l 1,4,-1
 603 957 l 1,5,-1
 1381 1530 l 1,6,-1
 1391 1530 l 1,7,-1
 1482 1482 l 1,8,-1
 802 990 l 1,9,-1
 1010 990 l 2,10,11
 1318 990 1318 990 1318 747 c 0,12,13
 1318 698 1318 698 1306 640 c 2,14,-1
 1185 70 l 1,15,-1
 976 -20 l 1,16,-1
 966 -20 l 1,17,-1
 1132 760 l 2,18,19
 1137 785 1137 785 1137 805 c 0,20,21
 1137 900 1137 900 1021 900 c 2,22,-1
 731 900 l 2,23,24
 592 900 592 900 562 760 c 2,25,-1
 415 70 l 1,26,-1
 206 -20 l 1,0,-1
EndSplineSet
Validated: 1
EndChar

StartChar: L
Encoding: 76 76 47
Width: 1020
GlyphClass: 2
Flags: W
HStem: 0 90<419 972> 1510 20G<668.556 725>
DStem2: 200 0 399.87 0 0.207912 0.978148<133.566 1472.15>
LayerCount: 2
Fore
SplineSet
200 0 m 1,0,-1
 506 1440 l 1,1,-1
 715 1530 l 1,2,-1
 725 1530 l 1,3,-1
 419 90 l 1,4,-1
 1029 90 l 1,5,-1
 1027 80 l 1,6,-1
 972 0 l 1,7,-1
 200 0 l 1,0,-1
EndSplineSet
Validated: 1
EndChar

StartChar: M
Encoding: 77 77 48
Width: 2180
GlyphClass: 2
Flags: W
HStem: -20 21G<176 232.444 986 1042.44 1796 1852.44> 1420 90<699.305 1254.31 1509.86 2063.42>
VStem: 2077 182<1213.68 1405.35>
DStem2: 176 -20 375.87 -20 0.207912 0.978148<133.566 1426.18> 986 -20 1185.87 -20 0.207912 0.978148<133.566 1373.42> 1796 -20 1995.87 -20 0.207912 0.978148<133.566 1353.64>
LayerCount: 2
Fore
SplineSet
186 -20 m 1,0,-1
 176 -20 l 1,1,-1
 427 1160 l 2,2,3
 501 1510 501 1510 831 1510 c 2,4,-1
 1141 1510 l 2,5,6
 1304 1510 1304 1510 1375 1434 c 1,7,8
 1478 1510 1478 1510 1641 1510 c 2,9,-1
 1951 1510 l 2,10,11
 2259 1510 2259 1510 2259 1267 c 0,12,13
 2259 1218 2259 1218 2247 1160 c 2,14,-1
 2015 70 l 1,15,-1
 1806 -20 l 1,16,-1
 1796 -20 l 1,17,-1
 2072 1280 l 2,18,19
 2077 1305 2077 1305 2077 1325 c 0,20,21
 2077 1420 2077 1420 1962 1420 c 2,22,-1
 1632 1420 l 2,23,24
 1492 1420 1492 1420 1462 1280 c 2,25,-1
 1205 70 l 1,26,-1
 996 -20 l 1,27,-1
 986 -20 l 1,28,-1
 1262 1280 l 2,29,30
 1267 1305 1267 1305 1267 1325 c 0,31,32
 1267 1420 1267 1420 1152 1420 c 2,33,-1
 822 1420 l 2,34,35
 682 1420 682 1420 652 1280 c 2,36,-1
 395 70 l 1,37,-1
 186 -20 l 1,0,-1
EndSplineSet
Validated: 1
EndChar

StartChar: N
Encoding: 78 78 49
Width: 1370
GlyphClass: 2
Flags: W
HStem: -20 21G<176 232.444 986 1042.44> 1420 90<699.305 1253.42>
VStem: 1267 182<1213.68 1405.35>
DStem2: 176 -20 375.87 -20 0.207912 0.978148<133.566 1426.18> 986 -20 1185.87 -20 0.207912 0.978148<133.566 1353.64>
LayerCount: 2
Fore
SplineSet
186 -20 m 1,0,-1
 176 -20 l 1,1,-1
 427 1160 l 2,2,3
 501 1510 501 1510 831 1510 c 2,4,-1
 1141 1510 l 2,5,6
 1449 1510 1449 1510 1449 1267 c 0,7,8
 1449 1218 1449 1218 1437 1160 c 2,9,-1
 1205 70 l 1,10,-1
 996 -20 l 1,11,-1
 986 -20 l 1,12,-1
 1262 1280 l 2,13,14
 1267 1305 1267 1305 1267 1325 c 0,15,16
 1267 1420 1267 1420 1152 1420 c 2,17,-1
 822 1420 l 2,18,19
 682 1420 682 1420 652 1280 c 2,20,-1
 395 70 l 1,21,-1
 186 -20 l 1,0,-1
EndSplineSet
Validated: 1
EndChar

StartChar: O
Encoding: 79 79 50
Width: 1330
GlyphClass: 2
Flags: W
HStem: 0 90<432.909 954.445> 1420 90<696.555 1218.09>
VStem: 221 193<103.79 411.875> 1237 193<1098.12 1406.21>
DStem2: 159.605 0 370.112 0 0.207912 0.978148<250.977 1405.97> 960.112 0 1169.61 0 0.207912 0.978148<181.497 1336.49>
LayerCount: 2
Fore
SplineSet
529 90 m 2,0,-1
 839 90 l 2,1,2
 979 90 979 90 1009 230 c 2,3,-1
 1232 1280 l 2,4,5
 1237 1305 1237 1305 1237 1325 c 0,6,7
 1237 1420 1237 1420 1122 1420 c 2,8,-1
 812 1420 l 2,9,10
 672 1420 672 1420 642 1280 c 2,11,-1
 419 230 l 2,12,13
 414 205 414 205 414 185 c 0,14,15
 414 90 414 90 529 90 c 2,0,-1
530 0 m 2,16,17
 221 0 221 0 221 242 c 0,18,19
 221 291 221 291 234 350 c 2,20,-1
 407 1160 l 2,21,22
 482 1510 482 1510 811 1510 c 2,23,-1
 1121 1510 l 2,24,25
 1430 1510 1430 1510 1430 1268 c 0,26,27
 1430 1219 1430 1219 1417 1160 c 2,28,-1
 1244 350 l 2,29,30
 1169 0 1169 0 840 0 c 2,31,-1
 530 0 l 2,16,17
EndSplineSet
Validated: 1
EndChar

StartChar: P
Encoding: 80 80 51
Width: 1210
GlyphClass: 2
Flags: W
HStem: -20 21G<196 252.444> 500 90<525 1020.79> 1420 90<702 1185.67>
VStem: 1197 192<1095.86 1405.99>
DStem2: 196 -20 395.87 -20 0.207912 0.978148<133.566 573.089 665.073 1492.55> 915.583 -20 1126.08 -20 0.207912 0.978148<713.295 1355.8>
LayerCount: 2
Fore
SplineSet
702 1420 m 1,0,-1
 525 590 l 1,1,-1
 905 590 l 2,2,3
 1045 590 1045 590 1075 730 c 2,4,-1
 1192 1280 l 2,5,6
 1197 1305 1197 1305 1197 1325 c 0,7,8
 1197 1420 1197 1420 1082 1420 c 2,9,-1
 702 1420 l 1,0,-1
206 -20 m 1,10,-1
 196 -20 l 1,11,-1
 506 1440 l 1,12,-1
 669 1510 l 1,13,-1
 1081 1510 l 2,14,15
 1389 1510 1389 1510 1389 1267 c 0,16,17
 1389 1218 1389 1218 1377 1160 c 2,18,-1
 1311 850 l 2,19,20
 1236 500 1236 500 906 500 c 2,21,-1
 506 500 l 1,22,-1
 415 70 l 1,23,-1
 206 -20 l 1,10,-1
EndSplineSet
Validated: 1
EndChar

StartChar: Q
Encoding: 81 81 52
Width: 1330
GlyphClass: 2
Flags: W
HStem: 0 90<432.909 838.824> 1420 90<696.555 1218.09>
VStem: 221 193<104.221 296.021> 1237 193<1213.97 1405.78>
DStem2: 151.103 -40 361.61 -40 0.207912 0.978148<291.871 1446.86> 865 540 661 457 0.436318 -0.899793<0 334.54 502.13 538.023> 951.697 -40 1161.1 -40 0.207912 0.978148<287.347 1377.36>
LayerCount: 2
Fore
SplineSet
530 0 m 2,0,1
 221 0 221 0 221 242 c 0,2,3
 221 291 221 291 234 350 c 2,4,-1
 407 1160 l 2,5,6
 482 1510 482 1510 811 1510 c 2,7,-1
 1121 1510 l 2,8,9
 1430 1510 1430 1510 1430 1268 c 0,10,11
 1430 1219 1430 1219 1417 1160 c 2,12,-1
 1244 350 l 2,13,14
 1205 165 1205 165 1090 78 c 1,15,-1
 1106 43 l 1,16,-1
 912 -40 l 1,17,-1
 902 -40 l 1,18,-1
 882 3 l 1,19,20
 852 0 852 0 820 0 c 2,21,-1
 530 0 l 2,0,1
529 90 m 2,22,-1
 839 90 l 1,23,-1
 661 457 l 1,24,-1
 855 540 l 1,25,-1
 865 540 l 1,26,-1
 1011 239 l 1,27,-1
 1232 1280 l 2,28,29
 1237 1305 1237 1305 1237 1325 c 0,30,31
 1237 1420 1237 1420 1122 1420 c 2,32,-1
 812 1420 l 2,33,34
 672 1420 672 1420 642 1280 c 2,35,-1
 419 230 l 2,36,37
 414 205 414 205 414 185 c 0,38,39
 414 90 414 90 529 90 c 2,22,-1
EndSplineSet
Validated: 1
EndChar

StartChar: R
Encoding: 82 82 53
Width: 1294
GlyphClass: 2
Flags: W
HStem: -20 21G<196 252.444 1031 1100.65> 500 90<525 756 972 1027.7> 1420 90<702 1185.67>
VStem: 1197 192<1095.86 1405.99>
DStem2: 196 -20 395.87 -20 0.207912 0.978148<133.566 573.089 665.073 1492.55> 972 507 756 500 0.481919 -0.876216<0 495.5> 915.583 -20 1126.08 -20 0.207912 0.978148<697.02 1355.8>
LayerCount: 2
Fore
SplineSet
702 1420 m 1,0,-1
 525 590 l 1,1,-1
 905 590 l 2,2,3
 1045 590 1045 590 1075 730 c 2,4,-1
 1192 1280 l 2,5,6
 1197 1305 1197 1305 1197 1325 c 0,7,8
 1197 1420 1197 1420 1082 1420 c 2,9,-1
 702 1420 l 1,0,-1
206 -20 m 1,10,-1
 196 -20 l 1,11,-1
 506 1440 l 1,12,-1
 669 1510 l 1,13,-1
 1081 1510 l 2,14,15
 1389 1510 1389 1510 1389 1267 c 0,16,17
 1389 1218 1389 1218 1377 1160 c 2,18,-1
 1311 850 l 2,19,20
 1238 507 1238 507 972 507 c 1,21,-1
 1232 54 l 1,22,-1
 1052 -20 l 1,23,-1
 1042 -20 l 1,24,-1
 756 500 l 1,25,-1
 506 500 l 1,26,-1
 415 70 l 1,27,-1
 206 -20 l 1,10,-1
EndSplineSet
Validated: 1
EndChar

StartChar: T
Encoding: 84 84 54
Width: 1070
GlyphClass: 2
Flags: W
HStem: -20 21G<431 487.444> 1420 90<369 737 937 1324>
DStem2: 431 -20 630.87 -20 0.207912 0.978148<133.566 1472.15>
LayerCount: 2
Fore
SplineSet
431 -20 m 1,0,-1
 737 1420 l 1,1,-1
 312 1420 l 1,2,-1
 314 1430 l 1,3,-1
 369 1510 l 1,4,-1
 1381 1510 l 1,5,-1
 1379 1500 l 1,6,-1
 1324 1420 l 1,7,-1
 937 1420 l 1,8,-1
 650 70 l 1,9,-1
 441 -20 l 1,10,-1
 431 -20 l 1,0,-1
EndSplineSet
Validated: 1
EndChar

StartChar: U
Encoding: 85 85 55
Width: 1370
GlyphClass: 2
Flags: W
HStem: 0 90<437.583 991.695> 1510 20G<648.556 705 1458.56 1515>
VStem: 242 182<104.651 296.323>
DStem2: 179.605 0 380.112 0 0.207912 0.978148<252.163 1472.24> 990.112 0 1189.61 0 0.207912 0.978148<179.513 1472.13>
LayerCount: 2
Fore
SplineSet
550 0 m 2,0,1
 242 0 242 0 242 243 c 0,2,3
 242 292 242 292 254 350 c 2,4,-1
 486 1440 l 1,5,-1
 695 1530 l 1,6,-1
 705 1530 l 1,7,-1
 429 230 l 2,8,9
 424 205 424 205 424 185 c 0,10,11
 424 90 424 90 539 90 c 2,12,-1
 869 90 l 2,13,14
 1009 90 1009 90 1039 230 c 2,15,-1
 1296 1440 l 1,16,-1
 1505 1530 l 1,17,-1
 1515 1530 l 1,18,-1
 1264 350 l 2,19,20
 1190 0 1190 0 860 0 c 2,21,-1
 550 0 l 2,0,1
EndSplineSet
Validated: 1
EndChar

StartChar: V
Encoding: 86 86 56
Width: 1241
GlyphClass: 2
Flags: W
HStem: -20 21G<521.153 580.4> 1510 20G<441.6 500.901 1440.34 1499.87>
DStem2: 498 1530 314 1455 0.140952 -0.990017<48.3162 1323.7> 688 220 708 55 0.508364 0.861143<0 1516.49>
LayerCount: 2
Fore
SplineSet
534 -20 m 1,0,-1
 524 -20 l 1,1,-1
 314 1455 l 1,2,-1
 488 1530 l 1,3,-1
 498 1530 l 1,4,-1
 688 220 l 1,5,-1
 1452 1530 l 1,6,-1
 1462 1530 l 1,7,-1
 1551 1483 l 1,8,-1
 708 55 l 1,9,-1
 534 -20 l 1,0,-1
EndSplineSet
Validated: 1
EndChar

StartChar: W
Encoding: 87 87 57
Width: 2180
GlyphClass: 2
Flags: W
HStem: 0 90<437.583 991.141 1246.69 1801.7> 1510 20G<648.556 705 1458.56 1515 2268.56 2325>
VStem: 242 182<104.651 296.323>
DStem2: 179.605 0 380.112 0 0.207912 0.978148<252.163 1472.24> 990.112 0 1190.11 0 0.207912 0.978148<232.277 1472.13> 1800.11 0 1999.61 0 0.207912 0.978148<179.513 1472.13>
LayerCount: 2
Fore
SplineSet
550 0 m 2,0,1
 242 0 242 0 242 243 c 0,2,3
 242 292 242 292 254 350 c 2,4,-1
 486 1440 l 1,5,-1
 695 1530 l 1,6,-1
 705 1530 l 1,7,-1
 429 230 l 2,8,9
 424 205 424 205 424 185 c 0,10,11
 424 90 424 90 539 90 c 2,12,-1
 869 90 l 2,13,14
 1009 90 1009 90 1039 230 c 2,15,-1
 1296 1440 l 1,16,-1
 1505 1530 l 1,17,-1
 1515 1530 l 1,18,-1
 1239 230 l 2,19,20
 1234 205 1234 205 1234 185 c 0,21,22
 1234 90 1234 90 1349 90 c 2,23,-1
 1679 90 l 2,24,25
 1819 90 1819 90 1849 230 c 2,26,-1
 2106 1440 l 1,27,-1
 2315 1530 l 1,28,-1
 2325 1530 l 1,29,-1
 2074 350 l 2,30,31
 2000 0 2000 0 1670 0 c 2,32,-1
 1360 0 l 2,33,34
 1197 0 1197 0 1126 76 c 1,35,36
 1023 0 1023 0 860 0 c 2,37,-1
 550 0 l 2,0,1
EndSplineSet
Validated: 1
EndChar

StartChar: X
Encoding: 88 88 58
Width: 1156
GlyphClass: 2
Flags: W
HStem: -20 21G<120.128 184.545 939.823 1004.4> 1510 20G<473.333 538.152 1295.44 1360.3>
DStem2: 69 27 168 -20 0.63761 0.77036<26.9165 845.846 1128.65 1950.4> 530 1530 345 1455 0.378413 -0.925637<0 683.559 911.206 1592.91>
LayerCount: 2
Fore
SplineSet
168 -20 m 1,0,-1
 158 -20 l 1,1,-1
 69 27 l 1,2,-1
 644 723 l 1,3,-1
 345 1455 l 1,4,-1
 520 1530 l 1,5,-1
 530 1530 l 1,6,-1
 788 897 l 1,7,-1
 1312 1530 l 1,8,-1
 1322 1530 l 1,9,-1
 1412 1483 l 1,10,-1
 834 785 l 1,11,-1
 1132 55 l 1,12,-1
 958 -20 l 1,13,-1
 948 -20 l 1,14,-1
 690 611 l 1,15,-1
 168 -20 l 1,0,-1
EndSplineSet
Validated: 1
EndChar

StartChar: Y
Encoding: 89 89 59
Width: 1210
GlyphClass: 2
Flags: W
HStem: -20 21G<501 557.444> 450 90<473.583 601 801 987.695> 1510 20G<588.556 645 1358.56 1415>
VStem: 278 182<554.651 745.868>
DStem2: 115.704 -20 316.21 -20 0.207912 0.978148<732.663 1492.61> 501 -20 700.87 -20 0.207912 0.978148<133.566 480.521> 886.21 -20 1085.7 -20 0.207912 0.978148<660.013 1492.5>
LayerCount: 2
Fore
SplineSet
511 -20 m 1,0,-1
 501 -20 l 1,1,-1
 601 450 l 1,2,-1
 586 450 l 2,3,4
 278 450 278 450 278 693 c 0,5,6
 278 742 278 742 290 800 c 2,7,-1
 426 1440 l 1,8,-1
 635 1530 l 1,9,-1
 645 1530 l 1,10,-1
 465 680 l 2,11,12
 460 655 460 655 460 635 c 0,13,14
 460 540 460 540 575 540 c 2,15,-1
 865 540 l 2,16,17
 1005 540 1005 540 1035 680 c 2,18,-1
 1196 1440 l 1,19,-1
 1405 1530 l 1,20,-1
 1415 1530 l 1,21,-1
 1260 800 l 2,22,23
 1186 450 1186 450 856 450 c 2,24,-1
 801 450 l 1,25,-1
 720 70 l 1,26,-1
 511 -20 l 1,0,-1
EndSplineSet
Validated: 1
EndChar

StartChar: Z
Encoding: 90 90 60
Width: 1040
GlyphClass: 2
Flags: W
HStem: 0 90<320 962> 1420 90<429 1038>
DStem2: 42 10 320 90 0.578114 0.815956<225.992 1726.3>
LayerCount: 2
Fore
SplineSet
40 0 m 1,0,-1
 42 10 l 1,1,-1
 1038 1420 l 1,2,-1
 372 1420 l 1,3,-1
 374 1430 l 1,4,-1
 429 1510 l 1,5,-1
 1321 1510 l 1,6,-1
 1319 1500 l 1,7,-1
 320 90 l 1,8,-1
 1019 90 l 1,9,-1
 1017 80 l 1,10,-1
 962 0 l 1,11,-1
 40 0 l 1,0,-1
EndSplineSet
Validated: 19457
EndChar

StartChar: bracketleft
Encoding: 91 91 61
Width: 880
GlyphClass: 2
Flags: W
HStem: -240 90<368 741> 1660 90<762 1145>
DStem2: 149 -240 348.87 -240 0.207912 0.978148<133.566 1942.48>
LayerCount: 2
Fore
SplineSet
149 -240 m 1,0,-1
 553 1660 l 1,1,-1
 762 1750 l 1,2,-1
 1202 1750 l 1,3,-1
 1200 1740 l 1,4,-1
 1145 1660 l 1,5,-1
 753 1660 l 1,6,-1
 368 -150 l 1,7,-1
 798 -150 l 1,8,-1
 796 -160 l 1,9,-1
 741 -240 l 1,10,-1
 149 -240 l 1,0,-1
EndSplineSet
Validated: 1
EndChar

StartChar: backslash
Encoding: 92 92 62
Width: 1001
GlyphClass: 2
Flags: W
VStem: 361 600
DStem2: 502 1710 361 1652 0.240562 -0.970634<22.3775 1908.03>
LayerCount: 2
Fore
SplineSet
830 -200 m 1,0,-1
 820 -200 l 1,1,-1
 361 1652 l 1,2,-1
 492 1710 l 1,3,-1
 502 1710 l 1,4,-1
 961 -142 l 1,5,-1
 830 -200 l 1,0,-1
EndSplineSet
Validated: 1
EndChar

StartChar: bracketright
Encoding: 93 93 63
Width: 880
GlyphClass: 2
Flags: W
HStem: -240 90<56 439> 1660 90<460 833>
DStem2: 428.87 -240 628.87 -240 0.207912 0.978148<133.593 1942.5>
LayerCount: 2
Fore
SplineSet
439 -240 m 1,0,-1
 -1 -240 l 1,1,-1
 1 -230 l 1,2,-1
 56 -150 l 1,3,-1
 448 -150 l 1,4,-1
 833 1660 l 1,5,-1
 403 1660 l 1,6,-1
 405 1670 l 1,7,-1
 460 1750 l 1,8,-1
 1052 1750 l 1,9,-1
 648 -150 l 1,10,-1
 439 -240 l 1,0,-1
EndSplineSet
Validated: 1
EndChar

StartChar: asciicircum
Encoding: 94 94 64
Width: 905
GlyphClass: 2
Flags: W
HStem: 1164 406
DStem2: 856 1570 736 1441 0.611181 -0.791491<28.7606 378.185>
LayerCount: 2
Fore
SplineSet
846 1570 m 1,0,-1
 856 1570 l 1,1,-1
 1117 1232 l 1,2,-1
 959 1164 l 1,3,-1
 949 1164 l 1,4,-1
 736 1441 l 1,5,-1
 396 1160 l 1,6,-1
 386 1160 l 1,7,-1
 309 1201 l 1,8,-1
 655 1488 l 1,9,-1
 846 1570 l 1,0,-1
EndSplineSet
Validated: 1
EndChar

StartChar: underscore
Encoding: 95 95 65
Width: 1364
GlyphClass: 2
Flags: W
HStem: -410 120<140 1075>
LayerCount: 2
Fore
SplineSet
63 -410 m 1,0,-1
 65 -400 l 1,1,-1
 140 -290 l 1,2,-1
 1152 -290 l 1,3,-1
 1150 -300 l 1,4,-1
 1075 -410 l 1,5,-1
 63 -410 l 1,0,-1
EndSplineSet
Validated: 1
EndChar

StartChar: grave
Encoding: 96 96 66
Width: 377
GlyphClass: 2
Flags: W
HStem: 1160 367
VStem: 362 223
DStem2: 505 1527 362 1470 0.261536 -0.965194<17.6163 321.098>
LayerCount: 2
Fore
SplineSet
495 1527 m 1,0,-1
 505 1527 l 1,1,-1
 585 1216 l 1,2,-1
 456 1160 l 1,3,-1
 446 1160 l 1,4,-1
 362 1470 l 1,5,-1
 495 1527 l 1,0,-1
EndSplineSet
Validated: 1
EndChar

StartChar: a
Encoding: 97 97 67
Width: 1064
GlyphClass: 2
Flags: W
HStem: -20 21G<700 756.173> 0 80<327.979 706.472> 660 80<433.563 829.773> 1020 80<511 896.552>
VStem: 150 173<83.9795 235.164> 905 163<736.234 1016.33>
DStem2: 96.233 -20 285.614 -20 0.207912 0.978148<222.675 690.708> 704.614 -20 879.783 -20 0.207912 0.978148<119.229 631.768 754.534 979.144>
LayerCount: 2
Fore
SplineSet
400 0 m 2,0,1
 150 0 150 0 150 195 c 0,2,3
 150 234 150 234 160 280 c 2,4,-1
 198 460 l 2,5,6
 257 740 257 740 517 740 c 2,7,-1
 741 740 l 2,8,9
 820 740 820 740 857 719 c 1,10,-1
 902 930 l 2,11,12
 905 946 905 946 905 959 c 0,13,14
 905 1020 905 1020 831 1020 c 2,15,-1
 461 1020 l 1,16,-1
 463 1030 l 1,17,-1
 511 1100 l 1,18,-1
 818 1100 l 2,19,20
 1068 1100 1068 1100 1068 905 c 0,21,22
 1068 866 1068 866 1058 820 c 2,23,-1
 897 61 l 1,24,-1
 710 -20 l 1,25,-1
 700 -20 l 1,26,-1
 708 21 l 1,27,28
 659 0 659 0 624 0 c 2,29,-1
 400 0 l 2,0,1
397 80 m 2,30,-1
 636 80 l 2,31,32
 726 80 726 80 745 170 c 2,33,-1
 830 570 l 2,34,35
 833 586 833 586 833 599 c 0,36,37
 833 660 833 660 759 660 c 2,38,-1
 520 660 l 2,39,40
 430 660 430 660 411 570 c 2,41,-1
 326 170 l 2,42,43
 323 154 323 154 323 141 c 0,44,45
 323 80 323 80 397 80 c 2,30,-1
EndSplineSet
Validated: 1
EndChar

StartChar: b
Encoding: 98 98 68
Width: 1170
GlyphClass: 2
Flags: W
HStem: 0 80<401.448 833.751> 1020 80<590.594 1016.02> 1510 20G<628.827 685>
VStem: 230 163<83.6652 356.531> 1021 173<737.812 1016.33>
DStem2: 180.484 0 359.865 0 0.207912 0.978148<202.228 1081.29 1140.36 1481.27> 819.865 0 1010.48 0 0.207912 0.978148<131.662 961.816>
LayerCount: 2
Fore
SplineSet
667 1020 m 2,0,1
 577 1020 577 1020 558 930 c 2,2,-1
 396 170 l 2,3,4
 393 154 393 154 393 141 c 0,5,6
 393 80 393 80 467 80 c 2,7,-1
 747 80 l 2,8,9
 837 80 837 80 856 170 c 2,10,-1
 1018 930 l 2,11,12
 1021 946 1021 946 1021 959 c 0,13,14
 1021 1020 1021 1020 947 1020 c 2,15,-1
 667 1020 l 2,0,1
480 0 m 2,16,17
 230 0 230 0 230 195 c 0,18,19
 230 234 230 234 240 280 c 2,20,-1
 488 1449 l 1,21,-1
 675 1530 l 1,22,-1
 685 1530 l 1,23,-1
 589 1079 l 1,24,25
 640 1100 640 1100 694 1100 c 2,26,-1
 944 1100 l 2,27,28
 1194 1100 1194 1100 1194 905 c 0,29,30
 1194 866 1194 866 1184 820 c 2,31,-1
 1070 280 l 2,32,33
 1011 0 1011 0 750 0 c 2,34,-1
 480 0 l 2,16,17
EndSplineSet
Validated: 1
EndChar

StartChar: c
Encoding: 99 99 69
Width: 1050
GlyphClass: 2
Flags: W
HStem: 0 80<387.979 787.158> 1020 80<570.249 972.853>
VStem: 210 173<83.9795 236.032> 976 167<804.64 1015.04>
DStem2: 160.484 0 349.865 0 0.207912 0.978148<202.198 1038.32> 774.865 0 970.484 0 0.207912 0.978148<126.962 306.779 867.738 954.669>
LayerCount: 2
Fore
SplineSet
460 0 m 2,0,1
 210 0 210 0 210 195 c 0,2,3
 210 233 210 233 220 280 c 2,4,-1
 334 820 l 2,5,6
 393 1100 393 1100 654 1100 c 2,7,-1
 904 1100 l 2,8,9
 1143 1100 1143 1100 1143 899 c 0,10,11
 1143 859 1143 859 1133 811 c 1,12,-1
 940 727 l 1,13,-1
 930 727 l 1,14,-1
 973 930 l 2,15,16
 976 944 976 944 976 959 c 0,17,18
 976 1020 976 1020 902 1020 c 2,19,-1
 657 1020 l 2,20,21
 567 1020 567 1020 548 930 c 2,22,-1
 386 170 l 2,23,24
 383 156 383 156 383 141 c 0,25,26
 383 80 383 80 457 80 c 2,27,-1
 702 80 l 2,28,29
 792 80 792 80 811 170 c 2,30,-1
 839 300 l 1,31,-1
 1042 388 l 1,32,-1
 1052 388 l 1,33,-1
 1030 280 l 2,34,35
 973 0 973 0 710 0 c 2,36,-1
 460 0 l 2,0,1
EndSplineSet
Validated: 1
EndChar

StartChar: d
Encoding: 100 100 70
Width: 1170
GlyphClass: 2
Flags: W
HStem: 0 80<387.979 820.773> 1020 80<570.249 1007.95> 1510 20G<1258.83 1315>
VStem: 210 173<83.6652 362.188>
DStem2: 160.484 0 349.865 0 0.207912 0.978148<202.228 1038.32> 809.865 0 990.484 0 0.207912 0.978148<129.583 979.464 1103.06 1481.4>
LayerCount: 2
Fore
SplineSet
937 1020 m 2,0,-1
 657 1020 l 2,1,2
 567 1020 567 1020 548 930 c 2,3,-1
 386 170 l 2,4,5
 383 154 383 154 383 141 c 0,6,7
 383 80 383 80 457 80 c 2,8,-1
 737 80 l 2,9,10
 827 80 827 80 846 170 c 2,11,-1
 1008 930 l 2,12,13
 1011 946 1011 946 1011 959 c 0,14,15
 1011 1020 1011 1020 937 1020 c 2,0,-1
460 0 m 2,16,17
 210 0 210 0 210 195 c 0,18,19
 210 234 210 234 220 280 c 2,20,-1
 334 820 l 2,21,22
 393 1100 393 1100 654 1100 c 2,23,-1
 924 1100 l 2,24,25
 997 1100 997 1100 1039 1079 c 1,26,-1
 1118 1449 l 1,27,-1
 1305 1530 l 1,28,-1
 1315 1530 l 1,29,-1
 1050 280 l 2,30,31
 991 0 991 0 730 0 c 2,32,-1
 460 0 l 2,16,17
EndSplineSet
Validated: 1
EndChar

StartChar: e
Encoding: 101 101 71
Width: 1130
GlyphClass: 2
Flags: W
HStem: 0 80<387.979 787.158> 1020 80<570.249 976.021>
VStem: 210 173<83.6652 346.359> 981 173<866.057 1016.02>
DStem2: 160.484 0 349.865 0 0.207912 0.978148<202.228 395.183 492.266 1038.32> 444 443 424 348 0.917539 0.397645<0 516.829> 774.865 0 970.484 0 0.207912 0.978148<126.962 306.779 698.982 962.886>
LayerCount: 2
Fore
SplineSet
710 0 m 2,0,-1
 460 0 l 2,1,2
 210 0 210 0 210 195 c 0,3,4
 210 234 210 234 220 280 c 2,5,-1
 334 820 l 2,6,7
 393 1100 393 1100 654 1100 c 2,8,-1
 904 1100 l 2,9,10
 1154 1100 1154 1100 1154 905 c 0,11,12
 1154 867 1154 867 1144 820 c 2,13,-1
 1107 644 l 1,14,-1
 424 348 l 1,15,-1
 386 170 l 2,16,17
 383 154 383 154 383 141 c 0,18,19
 383 80 383 80 457 80 c 2,20,-1
 702 80 l 2,21,22
 792 80 792 80 811 170 c 2,23,-1
 839 300 l 1,24,-1
 1042 388 l 1,25,-1
 1052 388 l 1,26,-1
 1030 280 l 2,27,28
 973 0 973 0 710 0 c 2,0,-1
444 443 m 1,29,-1
 918 649 l 1,30,-1
 978 930 l 2,31,32
 981 946 981 946 981 959 c 0,33,34
 981 1020 981 1020 907 1020 c 2,35,-1
 657 1020 l 2,36,37
 567 1020 567 1020 548 930 c 2,38,-1
 444 443 l 1,29,-1
EndSplineSet
Validated: 1
EndChar

StartChar: f
Encoding: 102 102 72
Width: 780
GlyphClass: 2
Flags: W
HStem: -20 21G<176 232.173> 820 80<551 872> 1430 80<670.227 1041>
DStem2: 176 -20 355.783 -20 0.207912 0.978148<120.189 896.076 977.863 1477.95>
LayerCount: 2
Fore
SplineSet
186 -20 m 1,0,-1
 176 -20 l 1,1,-1
 441 1230 l 2,2,3
 500 1510 500 1510 761 1510 c 2,4,-1
 1091 1510 l 1,5,-1
 1089 1500 l 1,6,-1
 1041 1430 l 1,7,-1
 754 1430 l 2,8,9
 664 1430 664 1430 645 1340 c 2,10,-1
 551 900 l 1,11,-1
 922 900 l 1,12,-1
 920 890 l 1,13,-1
 872 820 l 1,14,-1
 534 820 l 1,15,-1
 373 61 l 1,16,-1
 186 -20 l 1,0,-1
EndSplineSet
Validated: 1
EndChar

StartChar: g
Encoding: 103 103 73
Width: 1170
GlyphClass: 2
Flags: W
HStem: -410 80<263 733.129> 0 80<387.979 812.587> 1020 80<570.249 1002.55>
VStem: 210 173<83.9795 236.032> 1011 163<863.968 1016.02>
DStem2: 73.336 -410 262.717 -410 0.207912 0.978148<621.388 1457.48> 722.865 -410 902.484 -410 0.207912 0.978148<129.309 440.53 499.799 1378.87>
LayerCount: 2
Fore
SplineSet
460 0 m 2,0,1
 210 0 210 0 210 195 c 0,2,3
 210 234 210 234 220 280 c 2,4,-1
 334 820 l 2,5,6
 393 1100 393 1100 654 1100 c 2,7,-1
 924 1100 l 2,8,9
 1174 1100 1174 1100 1174 905 c 0,10,11
 1174 866 1174 866 1164 820 c 2,12,-1
 962 -130 l 2,13,14
 902 -410 902 -410 643 -410 c 2,15,-1
 213 -410 l 1,16,-1
 215 -400 l 1,17,-1
 263 -330 l 1,18,-1
 650 -330 l 2,19,20
 740 -330 740 -330 759 -240 c 2,21,-1
 814 21 l 1,22,23
 769 0 769 0 710 0 c 2,24,-1
 460 0 l 2,0,1
937 1020 m 2,25,-1
 657 1020 l 2,26,27
 567 1020 567 1020 548 930 c 2,28,-1
 386 170 l 2,29,30
 383 154 383 154 383 141 c 0,31,32
 383 80 383 80 457 80 c 2,33,-1
 737 80 l 2,34,35
 827 80 827 80 846 170 c 2,36,-1
 1008 930 l 2,37,38
 1011 946 1011 946 1011 959 c 0,39,40
 1011 1020 1011 1020 937 1020 c 2,25,-1
EndSplineSet
Validated: 1
EndChar

StartChar: h
Encoding: 104 104 74
Width: 1210
GlyphClass: 2
Flags: W
HStem: -20 21G<196 252.173 846 902.173> 1020 80<610.533 1042.55> 1510 20G<648.827 705>
VStem: 1051 163<863.565 1016.02>
DStem2: 196 -20 375.783 -20 0.207912 0.978148<120.189 1101.79 1160.85 1501.77> 846 -20 1025.78 -20 0.207912 0.978148<120.189 980.134>
LayerCount: 2
Fore
SplineSet
206 -20 m 1,0,-1
 196 -20 l 1,1,-1
 508 1449 l 1,2,-1
 695 1530 l 1,3,-1
 705 1530 l 1,4,-1
 609 1079 l 1,5,6
 658 1100 658 1100 714 1100 c 2,7,-1
 964 1100 l 2,8,9
 1214 1100 1214 1100 1214 905 c 0,10,11
 1214 867 1214 867 1204 820 c 2,12,-1
 1043 61 l 1,13,-1
 856 -20 l 1,14,-1
 846 -20 l 1,15,-1
 1048 930 l 2,16,17
 1051 944 1051 944 1051 959 c 0,18,19
 1051 1020 1051 1020 977 1020 c 2,20,-1
 687 1020 l 2,21,22
 597 1020 597 1020 578 930 c 2,23,-1
 393 61 l 1,24,-1
 206 -20 l 1,0,-1
EndSplineSet
Validated: 1
EndChar

StartChar: i
Encoding: 105 105 75
Width: 580
GlyphClass: 2
Flags: W
HStem: -20 21G<196 252.173> 1100 20G<561.827 618> 1220 245<499.711 650.42>
VStem: 452 246<1267.59 1416.76>
DStem2: 196 -20 375.783 -20 0.207912 0.978148<120.189 1082.64>
LayerCount: 2
Fore
SplineSet
601 1465 m 0,0,1
 653 1465 653 1465 679 1429 c 0,2,3
 698 1404 698 1404 698 1370 c 0,4,5
 698 1356 698 1356 695 1342 c 0,6,7
 684 1292 684 1292 641.5 1256 c 128,-1,8
 599 1220 599 1220 549 1220 c 128,-1,9
 499 1220 499 1220 471 1256 c 0,10,11
 452 1281 452 1281 452 1315 c 0,12,13
 452 1328 452 1328 455 1342 c 0,14,15
 466 1392 466 1392 508.5 1428.5 c 128,-1,16
 551 1465 551 1465 601 1465 c 0,0,1
196 -20 m 1,17,-1
 421 1039 l 1,18,-1
 608 1120 l 1,19,-1
 618 1120 l 1,20,-1
 393 61 l 1,21,-1
 206 -20 l 1,22,-1
 196 -20 l 1,17,-1
EndSplineSet
Validated: 1
EndChar

StartChar: j
Encoding: 106 106 76
Width: 580
GlyphClass: 2
Flags: W
HStem: -410 80<-72 123.129> 1100 20G<561.827 618> 1220 245<499.711 650.42>
VStem: 452 246<1267.59 1416.76>
DStem2: 112.865 -410 292.484 -410 0.207912 0.978148<129.309 1481.4>
LayerCount: 2
Fore
SplineSet
-122 -410 m 1,0,-1
 -120 -400 l 1,1,-1
 -72 -330 l 1,2,-1
 40 -330 l 2,3,4
 130 -330 130 -330 149 -240 c 2,5,-1
 421 1039 l 1,6,-1
 608 1120 l 1,7,-1
 618 1120 l 1,8,-1
 352 -130 l 2,9,10
 292 -410 292 -410 33 -410 c 2,11,-1
 -122 -410 l 1,0,-1
601 1465 m 0,12,13
 653 1465 653 1465 679 1429 c 0,14,15
 698 1404 698 1404 698 1370 c 0,16,17
 698 1356 698 1356 695 1342 c 0,18,19
 684 1292 684 1292 641.5 1256 c 128,-1,20
 599 1220 599 1220 549 1220 c 128,-1,21
 499 1220 499 1220 471 1256 c 0,22,23
 452 1281 452 1281 452 1315 c 0,24,25
 452 1328 452 1328 455 1342 c 0,26,27
 466 1392 466 1392 508.5 1428.5 c 128,-1,28
 551 1465 551 1465 601 1465 c 0,12,13
EndSplineSet
Validated: 1
EndChar

StartChar: k
Encoding: 107 107 77
Width: 1170
GlyphClass: 2
Flags: W
HStem: -20 21G<196 252.173 826 882.173> 676 80<700 949.552> 1100 20G<1075.93 1152.83> 1510 20G<648.827 705>
VStem: 958 163<520.185 672.021>
DStem2: 196 -20 375.783 -20 0.207912 0.978148<120.189 750.13 829.586 1501.77> 540 755 700 756 0.840841 0.541282<135.076 674.325> 826 -20 1005.78 -20 0.207912 0.978148<120.189 628.443>
LayerCount: 2
Fore
SplineSet
206 -20 m 1,0,-1
 196 -20 l 1,1,-1
 508 1449 l 1,2,-1
 695 1530 l 1,3,-1
 705 1530 l 1,4,-1
 540 755 l 1,5,-1
 1107 1120 l 1,6,-1
 1117 1120 l 1,7,-1
 1203 1072 l 1,8,-1
 700 756 l 1,9,-1
 871 756 l 2,10,11
 1121 756 1121 756 1121 561 c 0,12,13
 1121 522 1121 522 1111 476 c 2,14,-1
 1023 61 l 1,15,-1
 836 -20 l 1,16,-1
 826 -20 l 1,17,-1
 955 586 l 2,18,19
 958 602 958 602 958 615 c 0,20,21
 958 676 958 676 884 676 c 2,22,-1
 614 676 l 2,23,24
 524 676 524 676 505 586 c 2,25,-1
 393 61 l 1,26,-1
 206 -20 l 1,0,-1
EndSplineSet
Validated: 1
EndChar

StartChar: l
Encoding: 108 108 78
Width: 580
GlyphClass: 2
Flags: W
HStem: -20 21G<196 252.173> 1510 20G<648.827 705>
VStem: 196 509
DStem2: 196 -20 375.783 -20 0.207912 0.978148<120.189 1501.77>
LayerCount: 2
Fore
SplineSet
196 -20 m 1,0,-1
 508 1449 l 1,1,-1
 695 1530 l 1,2,-1
 705 1530 l 1,3,-1
 393 61 l 1,4,-1
 206 -20 l 1,5,-1
 196 -20 l 1,0,-1
EndSplineSet
Validated: 1
EndChar

StartChar: m
Encoding: 109 109 79
Width: 1840
GlyphClass: 2
Flags: W
HStem: -20 21G<176 232.173 826 882.173 1476 1532.17> 1020 80<583.227 1025.89 1229.45 1672.55>
VStem: 1681 163<863.565 1016.02>
DStem2: 176 -20 355.783 -20 0.207912 0.978148<120.189 1058.82> 826 -20 1005.78 -20 0.207912 0.978148<120.189 999.83> 1476 -20 1655.78 -20 0.207912 0.978148<120.189 980.104>
LayerCount: 2
Fore
SplineSet
186 -20 m 1,0,-1
 176 -20 l 1,1,-1
 354 820 l 2,2,3
 413 1100 413 1100 674 1100 c 2,4,-1
 944 1100 l 2,5,6
 1065 1100 1065 1100 1123 1047 c 1,7,8
 1203 1100 1203 1100 1324 1100 c 2,9,-1
 1594 1100 l 2,10,11
 1844 1100 1844 1100 1844 905 c 0,12,13
 1844 866 1844 866 1834 820 c 2,14,-1
 1673 61 l 1,15,-1
 1486 -20 l 1,16,-1
 1476 -20 l 1,17,-1
 1678 930 l 2,18,19
 1681 946 1681 946 1681 959 c 0,20,21
 1681 1020 1681 1020 1607 1020 c 2,22,-1
 1317 1020 l 2,23,24
 1227 1020 1227 1020 1208 930 c 2,25,-1
 1023 61 l 1,26,-1
 836 -20 l 1,27,-1
 826 -20 l 1,28,-1
 1028 930 l 2,29,30
 1031 946 1031 946 1031 959 c 0,31,32
 1031 1020 1031 1020 957 1020 c 2,33,-1
 667 1020 l 2,34,35
 577 1020 577 1020 558 930 c 2,36,-1
 373 61 l 1,37,-1
 186 -20 l 1,0,-1
EndSplineSet
Validated: 1
EndChar

StartChar: n
Encoding: 110 110 80
Width: 1190
GlyphClass: 2
Flags: W
HStem: -20 21G<176 232.173 826 882.173> 1020 80<583.227 1028.91>
VStem: 1032 162<863.887 1016.02>
DStem2: 176 -20 355.783 -20 0.207912 0.978148<120.189 1058.82> 826 -20 1005.78 -20 0.207912 0.978148<120.189 980.134>
LayerCount: 2
Fore
SplineSet
186 -20 m 1,0,-1
 176 -20 l 1,1,-1
 354 820 l 2,2,3
 413 1100 413 1100 674 1100 c 2,4,-1
 944 1100 l 2,5,6
 1194 1100 1194 1100 1194 905 c 0,7,8
 1194 867 1194 867 1184 820 c 2,9,-1
 1023 61 l 1,10,-1
 836 -20 l 1,11,-1
 826 -20 l 1,12,-1
 1028 930 l 2,13,14
 1032 949 1032 949 1032 959 c 0,15,16
 1032 1020 1032 1020 957 1020 c 2,17,-1
 667 1020 l 2,18,19
 577 1020 577 1020 558 930 c 2,20,-1
 373 61 l 1,21,-1
 186 -20 l 1,0,-1
EndSplineSet
Validated: 1
EndChar

StartChar: o
Encoding: 111 111 81
Width: 1150
GlyphClass: 2
Flags: W
HStem: 0 80<387.979 813.751> 1020 80<570.249 996.021>
VStem: 210 173<83.6652 362.188> 1001 173<737.812 1016.33>
DStem2: 160.484 0 349.865 0 0.207912 0.978148<202.228 1038.32> 799.865 0 990.484 0 0.207912 0.978148<131.662 961.816>
LayerCount: 2
Fore
SplineSet
457 80 m 2,0,-1
 727 80 l 2,1,2
 817 80 817 80 836 170 c 2,3,-1
 998 930 l 2,4,5
 1001 946 1001 946 1001 959 c 0,6,7
 1001 1020 1001 1020 927 1020 c 2,8,-1
 657 1020 l 2,9,10
 567 1020 567 1020 548 930 c 2,11,-1
 386 170 l 2,12,13
 383 154 383 154 383 141 c 0,14,15
 383 80 383 80 457 80 c 2,0,-1
460 0 m 2,16,17
 210 0 210 0 210 195 c 0,18,19
 210 234 210 234 220 280 c 2,20,-1
 334 820 l 2,21,22
 393 1100 393 1100 654 1100 c 2,23,-1
 924 1100 l 2,24,25
 1174 1100 1174 1100 1174 905 c 0,26,27
 1174 866 1174 866 1164 820 c 2,28,-1
 1050 280 l 2,29,30
 991 0 991 0 730 0 c 2,31,-1
 460 0 l 2,16,17
EndSplineSet
Validated: 1
EndChar

StartChar: p
Encoding: 112 112 82
Width: 1170
GlyphClass: 2
Flags: W
HStem: -430 21G<89 145.173> 0 80<397.107 833.751> 1020 80<583.227 1016.02>
VStem: 1021 173<737.812 1016.33>
DStem2: 89 -430 268.783 -430 0.207912 0.978148<120.189 498.32 622.126 1477.95> 728.466 -430 919.085 -430 0.207912 0.978148<571.268 1401.42>
LayerCount: 2
Fore
SplineSet
667 1020 m 2,0,1
 577 1020 577 1020 558 930 c 2,2,-1
 396 170 l 2,3,4
 393 154 393 154 393 141 c 0,5,6
 393 80 393 80 467 80 c 2,7,-1
 747 80 l 2,8,9
 837 80 837 80 856 170 c 2,10,-1
 1018 930 l 2,11,12
 1021 946 1021 946 1021 959 c 0,13,14
 1021 1020 1021 1020 947 1020 c 2,15,-1
 667 1020 l 2,0,1
750 0 m 2,16,-1
 480 0 l 2,17,18
 407 0 407 0 364 21 c 1,19,-1
 286 -349 l 1,20,-1
 99 -430 l 1,21,-1
 89 -430 l 1,22,-1
 354 820 l 2,23,24
 413 1100 413 1100 674 1100 c 2,25,-1
 944 1100 l 2,26,27
 1194 1100 1194 1100 1194 905 c 0,28,29
 1194 866 1194 866 1184 820 c 2,30,-1
 1070 280 l 2,31,32
 1011 0 1011 0 750 0 c 2,16,-1
EndSplineSet
Validated: 1
EndChar

StartChar: q
Encoding: 113 113 83
Width: 1170
GlyphClass: 2
Flags: W
HStem: -430 21G<719 775.173> 0 80<387.979 812.406> 1020 80<570.249 1002.55>
VStem: 210 173<83.6652 362.188> 1011 163<743.469 1016.33>
DStem2: 69.0848 -430 258.466 -430 0.207912 0.978148<641.834 1477.93> 719 -430 898.783 -430 0.207912 0.978148<120.189 460.896 520.166 1399.23>
LayerCount: 2
Fore
SplineSet
937 1020 m 2,0,-1
 657 1020 l 2,1,2
 567 1020 567 1020 548 930 c 2,3,-1
 386 170 l 2,4,5
 383 154 383 154 383 141 c 0,6,7
 383 80 383 80 457 80 c 2,8,-1
 737 80 l 2,9,10
 827 80 827 80 846 170 c 2,11,-1
 1008 930 l 2,12,13
 1011 946 1011 946 1011 959 c 0,14,15
 1011 1020 1011 1020 937 1020 c 2,0,-1
460 0 m 2,16,17
 210 0 210 0 210 195 c 0,18,19
 210 234 210 234 220 280 c 2,20,-1
 334 820 l 2,21,22
 393 1100 393 1100 654 1100 c 2,23,-1
 924 1100 l 2,24,25
 1174 1100 1174 1100 1174 905 c 0,26,27
 1174 866 1174 866 1164 820 c 2,28,-1
 916 -349 l 1,29,-1
 729 -430 l 1,30,-1
 719 -430 l 1,31,-1
 814 21 l 1,32,33
 763 0 763 0 710 0 c 2,34,-1
 460 0 l 2,16,17
EndSplineSet
Validated: 1
EndChar

StartChar: r
Encoding: 114 114 84
Width: 780
GlyphClass: 2
Flags: W
HStem: -20 21G<176 232.173> 1020 80<583.227 954>
DStem2: 176 -20 355.783 -20 0.207912 0.978148<120.189 1058.82>
LayerCount: 2
Fore
SplineSet
186 -20 m 1,0,-1
 176 -20 l 1,1,-1
 354 820 l 2,2,3
 413 1100 413 1100 674 1100 c 2,4,-1
 1004 1100 l 1,5,-1
 1002 1090 l 1,6,-1
 954 1020 l 1,7,-1
 667 1020 l 2,8,9
 577 1020 577 1020 558 930 c 2,10,-1
 373 61 l 1,11,-1
 186 -20 l 1,0,-1
EndSplineSet
Validated: 1
EndChar

StartChar: t
Encoding: 116 116 85
Width: 780
GlyphClass: 2
Flags: W
HStem: -20 21G<296 352.076> 1020 80<277 517 709 954> 1510 20G<743.924 800>
DStem2: 296 -20 471.208 -20 0.207912 0.978148<117.193 1063.22 1181.39 1503.72>
LayerCount: 2
Fore
SplineSet
296 -20 m 1,0,-1
 517 1020 l 1,1,-1
 227 1020 l 1,2,-1
 229 1030 l 1,3,-1
 277 1100 l 1,4,-1
 534 1100 l 1,5,-1
 608 1451 l 1,6,-1
 790 1530 l 1,7,-1
 800 1530 l 1,8,-1
 709 1100 l 1,9,-1
 1004 1100 l 1,10,-1
 1002 1090 l 1,11,-1
 954 1020 l 1,12,-1
 692 1020 l 1,13,-1
 488 59 l 1,14,-1
 306 -20 l 1,15,-1
 296 -20 l 1,0,-1
EndSplineSet
Validated: 1
EndChar

StartChar: u
Encoding: 117 117 86
Width: 1190
GlyphClass: 2
Flags: W
HStem: 0 80<401.448 840.773> 1100 20G<541.827 598 1191.83 1248>
VStem: 230 163<83.9795 236.435>
DStem2: 180.484 0 359.865 0 0.207912 0.978148<202.228 1062.14> 829.865 0 1010.48 0 0.207912 0.978148<129.583 1062.27>
LayerCount: 2
Fore
SplineSet
480 0 m 2,0,1
 230 0 230 0 230 195 c 0,2,3
 230 234 230 234 240 280 c 2,4,-1
 401 1039 l 1,5,-1
 588 1120 l 1,6,-1
 598 1120 l 1,7,-1
 396 170 l 2,8,9
 393 154 393 154 393 141 c 0,10,11
 393 80 393 80 467 80 c 2,12,-1
 757 80 l 2,13,14
 847 80 847 80 866 170 c 2,15,-1
 1051 1039 l 1,16,-1
 1238 1120 l 1,17,-1
 1248 1120 l 1,18,-1
 1070 280 l 2,19,20
 1011 0 1011 0 750 0 c 2,21,-1
 480 0 l 2,0,1
EndSplineSet
Validated: 1
EndChar

StartChar: v
Encoding: 118 118 87
Width: 961
GlyphClass: 2
Flags: W
HStem: -20 21G<386.015 445.4> 1100 20G<339.824 398.899 1090.28 1149>
DStem2: 396 1120 229 1052 0.147619 -0.989044<42.6027 976.083> 536 154 573 55 0.513264 0.858231<0 1119.56>
LayerCount: 2
Fore
SplineSet
399 -20 m 1,0,-1
 389 -20 l 1,1,-1
 229 1052 l 1,2,-1
 386 1120 l 1,3,-1
 396 1120 l 1,4,-1
 536 154 l 1,5,-1
 1102 1120 l 1,6,-1
 1112 1120 l 1,7,-1
 1186 1080 l 1,8,-1
 573 55 l 1,9,-1
 399 -20 l 1,0,-1
EndSplineSet
Validated: 1
EndChar

StartChar: w
Encoding: 119 119 88
Width: 1840
GlyphClass: 2
Flags: W
HStem: 0 80<401.448 844.548 1048.11 1490.77> 1100 20G<541.827 598 1191.83 1248 1841.83 1898>
VStem: 230 163<83.9795 236.435>
DStem2: 180.484 0 359.865 0 0.207912 0.978148<202.228 1062.14> 829.865 0 1009.87 0 0.207912 0.978148<182.63 1062.27> 1479.87 0 1660.48 0 0.207912 0.978148<129.583 1062.27>
LayerCount: 2
Fore
SplineSet
480 0 m 2,0,1
 230 0 230 0 230 195 c 0,2,3
 230 234 230 234 240 280 c 2,4,-1
 401 1039 l 1,5,-1
 588 1120 l 1,6,-1
 598 1120 l 1,7,-1
 396 170 l 2,8,9
 393 154 393 154 393 141 c 0,10,11
 393 80 393 80 467 80 c 2,12,-1
 757 80 l 2,13,14
 847 80 847 80 866 170 c 2,15,-1
 1051 1039 l 1,16,-1
 1238 1120 l 1,17,-1
 1248 1120 l 1,18,-1
 1046 170 l 2,19,20
 1043 154 1043 154 1043 141 c 0,21,22
 1043 80 1043 80 1117 80 c 2,23,-1
 1407 80 l 2,24,25
 1497 80 1497 80 1516 170 c 2,26,-1
 1701 1039 l 1,27,-1
 1888 1120 l 1,28,-1
 1898 1120 l 1,29,-1
 1720 280 l 2,30,31
 1661 0 1661 0 1400 0 c 2,32,-1
 1130 0 l 2,33,34
 1009 0 1009 0 951 53 c 1,35,36
 871 0 871 0 750 0 c 2,37,-1
 480 0 l 2,0,1
EndSplineSet
Validated: 1
EndChar

StartChar: x
Encoding: 120 120 89
Width: 892
GlyphClass: 2
Flags: W
HStem: -20 21G<74.1111 140.401 695.806 759.938> 1100 20G<365.75 430.15 984.599 1048.84>
DStem2: 43 16 123 -20 0.655789 0.754944<25.2852 627.066 860.579 1462.36> 422 1120 264 1056 0.378499 -0.925602<0 490.245 671.299 1161.92>
LayerCount: 2
Fore
SplineSet
123 -20 m 1,0,-1
 113 -20 l 1,1,-1
 43 16 l 1,2,-1
 482 522 l 1,3,-1
 264 1056 l 1,4,-1
 412 1120 l 1,5,-1
 422 1120 l 1,6,-1
 607 666 l 1,7,-1
 1002 1120 l 1,8,-1
 1012 1120 l 1,9,-1
 1082 1082 l 1,10,-1
 643 578 l 1,11,-1
 861 44 l 1,12,-1
 714 -20 l 1,13,-1
 704 -20 l 1,14,-1
 518 434 l 1,15,-1
 123 -20 l 1,0,-1
EndSplineSet
Validated: 19457
EndChar

StartChar: y
Encoding: 121 121 90
Width: 1210
GlyphClass: 2
Flags: W
HStem: -410 80<283 753.129> 0 80<401.448 832.437> 1100 20G<541.827 598 1191.83 1248>
VStem: 230 163<83.9795 236.435>
DStem2: 93.336 -410 272.717 -410 0.207912 0.978148<621.388 1481.3> 742.865 -410 922.484 -410 0.207912 0.978148<129.309 440.53 499.799 1481.4>
LayerCount: 2
Fore
SplineSet
480 0 m 2,0,1
 230 0 230 0 230 195 c 0,2,3
 230 234 230 234 240 280 c 2,4,-1
 401 1039 l 1,5,-1
 588 1120 l 1,6,-1
 598 1120 l 1,7,-1
 396 170 l 2,8,9
 393 154 393 154 393 141 c 0,10,11
 393 80 393 80 467 80 c 2,12,-1
 757 80 l 2,13,14
 847 80 847 80 866 170 c 2,15,-1
 1051 1039 l 1,16,-1
 1238 1120 l 1,17,-1
 1248 1120 l 1,18,-1
 982 -130 l 2,19,20
 922 -410 922 -410 663 -410 c 2,21,-1
 233 -410 l 1,22,-1
 235 -400 l 1,23,-1
 283 -330 l 1,24,-1
 670 -330 l 2,25,26
 760 -330 760 -330 779 -240 c 2,27,-1
 834 21 l 1,28,29
 784 0 784 0 730 0 c 2,30,-1
 480 0 l 2,0,1
EndSplineSet
Validated: 1
EndChar

StartChar: z
Encoding: 122 122 91
Width: 850
GlyphClass: 2
Flags: W
HStem: 0 80<295 777> 1020 80<337 790>
DStem2: 42 10 295 80 0.595151 0.803614<206.826 1256.82>
LayerCount: 2
Fore
SplineSet
40 0 m 1,0,-1
 42 10 l 1,1,-1
 790 1020 l 1,2,-1
 287 1020 l 1,3,-1
 289 1030 l 1,4,-1
 337 1100 l 1,5,-1
 1044 1100 l 1,6,-1
 1042 1090 l 1,7,-1
 295 80 l 1,8,-1
 827 80 l 1,9,-1
 825 70 l 1,10,-1
 777 0 l 1,11,-1
 40 0 l 1,0,-1
EndSplineSet
Validated: 19457
EndChar

StartChar: braceleft
Encoding: 123 123 92
Width: 830
GlyphClass: 2
Flags: W
HStem: -240 90<480.218 729> 710 90<258 425> 1660 90<844.305 1133>
VStem: 284 183<-135.779 56.4669>
DStem2: 222.605 -240 423.112 -240 0.207912 0.978148<250.977 971.32 1063.3 1896.68>
CounterMasks: 1 e0
LayerCount: 2
Fore
SplineSet
729 -240 m 1,0,-1
 593 -240 l 2,1,2
 284 -240 284 -240 284 2 c 0,3,4
 284 51 284 51 297 110 c 2,5,-1
 425 710 l 1,6,-1
 201 710 l 1,7,-1
 203 720 l 1,8,-1
 258 800 l 1,9,-1
 444 800 l 1,10,-1
 572 1400 l 2,11,12
 647 1750 647 1750 976 1750 c 2,13,-1
 1152 1750 l 1,14,-1
 1133 1660 l 1,15,-1
 967 1660 l 2,16,17
 827 1660 827 1660 797 1520 c 2,18,-1
 472 -10 l 2,19,20
 467 -35 467 -35 467 -55 c 0,21,22
 467 -150 467 -150 582 -150 c 2,23,-1
 748 -150 l 1,24,-1
 729 -240 l 1,0,-1
EndSplineSet
Validated: 1
EndChar

StartChar: bar
Encoding: 124 124 93
Width: 650
GlyphClass: 2
Flags: W
VStem: 207 556
DStem2: 207 -200 357.971 -200 0.207912 0.978148<98.8632 1885.21>
LayerCount: 2
Fore
SplineSet
207 -200 m 1,0,-1
 599 1644 l 1,1,-1
 753 1710 l 1,2,-1
 763 1710 l 1,3,-1
 372 -134 l 1,4,-1
 217 -200 l 1,5,-1
 207 -200 l 1,0,-1
EndSplineSet
Validated: 1
EndChar

StartChar: braceright
Encoding: 125 125 94
Width: 830
GlyphClass: 2
Flags: W
HStem: -240 90<18 306.695> 710 90<726 893> 1660 90<422 670.782>
VStem: 684 183<1343.52 1646.21>
DStem2: 305.112 -240 504.605 -240 0.207912 0.978148<179.418 1012.8 1104.78 1825.12>
CounterMasks: 1 e0
LayerCount: 2
Fore
SplineSet
-1 -240 m 1,0,-1
 18 -150 l 1,1,-1
 184 -150 l 2,2,3
 324 -150 324 -150 354 -10 c 2,4,-1
 679 1520 l 2,5,6
 684 1545 684 1545 684 1565 c 0,7,8
 684 1660 684 1660 569 1660 c 2,9,-1
 403 1660 l 1,10,-1
 422 1750 l 1,11,-1
 558 1750 l 2,12,13
 867 1750 867 1750 867 1508 c 0,14,15
 867 1459 867 1459 854 1400 c 2,16,-1
 726 800 l 1,17,-1
 950 800 l 1,18,-1
 948 790 l 1,19,-1
 893 710 l 1,20,-1
 707 710 l 1,21,-1
 579 110 l 2,22,23
 504 -240 504 -240 175 -240 c 2,24,-1
 -1 -240 l 1,0,-1
EndSplineSet
Validated: 1
EndChar

StartChar: asciitilde
Encoding: 126 126 95
Width: 1138
GlyphClass: 2
Flags: W
HStem: 576 127<836.669 1009.53> 810 127<449.556 622.331>
LayerCount: 2
Fore
SplineSet
605 937 m 0,0,1
 714 937 714 937 789 810 c 0,2,3
 853 703 853 703 926 703 c 0,4,5
 1041 703 1041 703 1084 896 c 1,6,-1
 1177 937 l 1,7,-1
 1187 937 l 1,8,9
 1110 576 1110 576 854 576 c 0,10,11
 745 576 745 576 670 703 c 0,12,13
 606 810 606 810 533 810 c 0,14,15
 418 810 418 810 376 617 c 1,16,-1
 282 576 l 1,17,-1
 272 576 l 1,18,19
 349 937 349 937 605 937 c 0,0,1
EndSplineSet
Validated: 1
EndChar

StartChar: exclamdown
Encoding: 161 161 97
Width: 600
GlyphClass: 2
Flags: W
HStem: -430 21G<109 165.444> 875 245<436.711 587.42>
VStem: 389 246<922.592 1071.76>
DStem2: 109 -430 308.87 -430 0.207912 0.978148<133.566 1063.22>
LayerCount: 2
Fore
SplineSet
538 1120 m 0,0,1
 590 1120 590 1120 616 1084 c 0,2,3
 635 1059 635 1059 635 1025 c 0,4,5
 635 1011 635 1011 632 997 c 0,6,7
 621 947 621 947 578.5 911 c 128,-1,8
 536 875 536 875 486 875 c 128,-1,9
 436 875 436 875 408 911 c 0,10,11
 389 936 389 936 389 970 c 0,12,13
 389 983 389 983 392 997 c 0,14,15
 403 1047 403 1047 445.5 1083.5 c 128,-1,16
 488 1120 488 1120 538 1120 c 0,0,1
119 -430 m 1,17,-1
 109 -430 l 1,18,-1
 330 610 l 1,19,-1
 539 700 l 1,20,-1
 549 700 l 1,21,-1
 328 -340 l 1,22,-1
 119 -430 l 1,17,-1
EndSplineSet
Validated: 1
EndChar

StartChar: cent
Encoding: 162 162 98
Width: 1070
GlyphClass: 2
Flags: W
HStem: 0 80<387.979 525 642 787.158> 1020 80<570.249 741 858 972.853>
VStem: 210 173<83.9795 236.032> 976 167<804.64 1015.04>
DStem2: 134.977 -120 324.359 -120 0.207912 0.978148<324.879 1161.01> 499 -120 599.073 -120 0.207912 0.978148<63.7446 122.783 225.361 1165.4 1267.98 1327.02> 749.359 -120 944.977 -120 0.207912 0.978148<249.643 429.459 990.419 1077.35>
LayerCount: 2
Fore
SplineSet
710 0 m 2,0,-1
 625 -0 l 1,1,-1
 608 -78 l 1,2,-1
 509 -120 l 1,3,-1
 499 -120 l 1,4,-1
 525 -0 l 1,5,-1
 460 0 l 2,6,7
 210 0 210 0 210 195 c 0,8,9
 210 233 210 233 220 280 c 2,10,-1
 334 820 l 2,11,12
 393 1100 393 1100 654 1100 c 2,13,-1
 758 1100 l 1,14,-1
 775 1178 l 1,15,-1
 874 1220 l 1,16,-1
 884 1220 l 1,17,-1
 858 1100 l 1,18,-1
 904 1100 l 2,19,20
 1143 1100 1143 1100 1143 899 c 0,21,22
 1143 859 1143 859 1133 811 c 1,23,-1
 940 727 l 1,24,-1
 930 727 l 1,25,-1
 973 930 l 2,26,27
 976 944 976 944 976 959 c 0,28,29
 976 1020 976 1020 902 1020 c 2,30,-1
 841 1020 l 1,31,-1
 642 80 l 1,32,-1
 702 80 l 2,33,34
 792 80 792 80 811 170 c 2,35,-1
 839 300 l 1,36,-1
 1042 388 l 1,37,-1
 1052 388 l 1,38,-1
 1030 280 l 2,39,40
 973 0 973 0 710 0 c 2,0,-1
542 80 m 1,41,-1
 741 1020 l 1,42,-1
 657 1020 l 2,43,44
 567 1020 567 1020 548 930 c 2,45,-1
 386 170 l 2,46,47
 383 156 383 156 383 141 c 0,48,49
 383 80 383 80 457 80 c 2,50,-1
 542 80 l 1,41,-1
EndSplineSet
Validated: 1
EndChar

StartChar: sterling
Encoding: 163 163 99
Width: 1335
GlyphClass: 2
Flags: W
HStem: 0 90<249 319 519 1147> 645 90<345 437 656 1014> 1420 90<819.305 1182.4>
VStem: 1200 171<1143.42 1404.49>
DStem2: 299.87 0 499.87 0 0.207912 0.978148<133.593 659.416 792.982 1405.91>
LayerCount: 2
Fore
SplineSet
150 0 m 1,0,-1
 152 10 l 1,1,-1
 249 90 l 1,2,-1
 319 90 l 1,3,-1
 437 645 l 1,4,-1
 288 645 l 1,5,-1
 290 655 l 1,6,-1
 345 735 l 1,7,-1
 456 735 l 1,8,-1
 547 1160 l 2,9,10
 622 1510 622 1510 951 1510 c 2,11,-1
 1074 1510 l 2,12,13
 1371 1510 1371 1510 1371 1260 c 0,14,15
 1371 1209 1371 1209 1358 1148 c 1,16,-1
 1159 1062 l 1,17,-1
 1149 1062 l 9,18,-1
 1195 1280 l 2,19,20
 1200 1304 1200 1304 1200 1325 c 0,21,22
 1200 1420 1200 1420 1085 1420 c 2,23,-1
 942 1420 l 2,24,25
 802 1420 802 1420 772 1280 c 2,26,-1
 656 735 l 1,27,-1
 1071 735 l 1,28,-1
 1069 725 l 1,29,-1
 1014 645 l 1,30,-1
 637 645 l 1,31,-1
 519 90 l 1,32,-1
 1204 90 l 1,33,-1
 1202 80 l 1,34,-1
 1147 0 l 1,35,-1
 150 0 l 1,0,-1
EndSplineSet
Validated: 1
EndChar

StartChar: currency
Encoding: 164 164 100
Width: 1395
GlyphClass: 2
Flags: W
HStem: 240 90<510 1044.67> 1179 90<670.305 1206>
VStem: 309 188<402.039 656.766> 1218 190<852.234 1122.06>
DStem2: 242.605 240 453.112 240 0.207912 0.978148<290.651 889.993> 1043.11 240 1252.61 240 0.207912 0.978148<209.925 829.708>
LayerCount: 2
Fore
SplineSet
612 330 m 2,0,-1
 922 330 l 2,1,2
 1062 330 1062 330 1092 470 c 2,3,-1
 1213 1039 l 2,4,5
 1218 1064 1218 1064 1218 1084 c 0,6,7
 1218 1179 1218 1179 1103 1179 c 2,8,-1
 793 1179 l 2,9,10
 653 1179 653 1179 623 1039 c 2,11,-1
 502 470 l 2,12,13
 497 445 497 445 497 425 c 0,14,15
 497 330 497 330 612 330 c 2,0,-1
1255 407 m 1,16,-1
 1315 330 l 1,17,-1
 1307 323 l 1,18,-1
 1114 259 l 1,19,-1
 1100 276 l 1,20,21
 1016 240 1016 240 903 240 c 2,22,-1
 593 240 l 2,23,24
 514 240 514 240 419 293 c 1,25,-1
 394 275 l 1,26,-1
 229 339 l 1,27,-1
 224 346 l 1,28,-1
 327 429 l 1,29,30
 309 472 309 472 309 522 c 0,31,32
 309 555 309 555 317 590 c 2,33,-1
 387 919 l 2,34,35
 410 1029 410 1029 462 1106 c 1,36,-1
 402 1184 l 1,37,-1
 410 1191 l 1,38,-1
 602 1255 l 1,39,-1
 618 1234 l 1,40,41
 701 1269 701 1269 812 1269 c 2,42,-1
 1122 1269 l 2,43,44
 1206 1269 1206 1269 1290 1226 c 1,45,-1
 1326 1255 l 1,46,-1
 1491 1191 l 1,47,-1
 1497 1184 l 1,48,-1
 1392 1098 l 1,49,50
 1408 1062 1408 1062 1408 1012 c 0,51,52
 1408 970 1408 970 1397 919 c 2,53,-1
 1327 590 l 2,54,55
 1303 479 1303 479 1255 407 c 1,16,-1
EndSplineSet
Validated: 1
EndChar

StartChar: yen
Encoding: 165 165 101
Width: 1310
GlyphClass: 2
Flags: W
HStem: -20 21G<551 607.444> 114 90<371 579 798 1006> 314 90<414 622 841 1049> 450 90<513.583 651 851 1047.7> 1510 20G<628.556 685 1418.56 1475>
VStem: 318 182<554.651 745.868>
DStem2: 155.704 -20 356.21 -20 0.207912 0.978148<732.663 1492.61> 946.21 -20 1145.7 -20 0.207912 0.978148<660.013 1492.5>
LayerCount: 2
Fore
SplineSet
561 -20 m 1,0,-1
 551 -20 l 1,1,-1
 579 114 l 1,2,-1
 314 114 l 1,3,-1
 316 124 l 1,4,-1
 371 204 l 1,5,-1
 598 204 l 1,6,-1
 622 314 l 1,7,-1
 357 314 l 1,8,-1
 359 324 l 1,9,-1
 414 404 l 1,10,-1
 641 404 l 1,11,-1
 651 450 l 1,12,-1
 626 450 l 2,13,14
 318 450 318 450 318 693 c 0,15,16
 318 742 318 742 330 800 c 2,17,-1
 466 1440 l 1,18,-1
 675 1530 l 1,19,-1
 685 1530 l 1,20,-1
 505 680 l 2,21,22
 500 655 500 655 500 635 c 0,23,24
 500 540 500 540 615 540 c 2,25,-1
 925 540 l 2,26,27
 1065 540 1065 540 1095 680 c 2,28,-1
 1256 1440 l 1,29,-1
 1465 1530 l 1,30,-1
 1475 1530 l 1,31,-1
 1320 800 l 2,32,33
 1246 450 1246 450 916 450 c 2,34,-1
 851 450 l 1,35,-1
 841 404 l 1,36,-1
 1106 404 l 1,37,-1
 1104 394 l 1,38,-1
 1049 314 l 1,39,-1
 822 314 l 1,40,-1
 798 204 l 1,41,-1
 1063 204 l 1,42,-1
 1061 194 l 1,43,-1
 1006 114 l 1,44,-1
 779 114 l 1,45,-1
 770 70 l 1,46,-1
 561 -20 l 1,0,-1
EndSplineSet
Validated: 1
EndChar

StartChar: brokenbar
Encoding: 166 166 102
Width: 650
GlyphClass: 2
Flags: W
VStem: 207 556
DStem2: 207 -200 357.971 -200 0.207912 0.978148<98.8632 804.731 1171.1 1885.21>
LayerCount: 2
Fore
SplineSet
207 -200 m 1,0,-1
 375 587 l 1,1,-1
 529 653 l 1,2,-1
 539 653 l 1,3,-1
 372 -134 l 1,4,-1
 217 -200 l 1,5,-1
 207 -200 l 1,0,-1
753 1710 m 1,6,-1
 763 1710 l 1,7,-1
 594 915 l 1,8,-1
 440 849 l 1,9,-1
 430 849 l 1,10,-1
 599 1644 l 1,11,-1
 753 1710 l 1,6,-1
EndSplineSet
Validated: 1
EndChar

StartChar: section
Encoding: 167 167 103
Width: 1050
GlyphClass: 2
Flags: W
HStem: 0 70<427.007 677.519> 458 80<474.053 745.219> 972 80<625.781 896.947> 1440 70<693.481 943.993>
VStem: 257 162<74.0883 255.423> 297 174<544.672 692.247> 445 173<1055.05 1339.7> 753 173<170.305 454.954> 900 174<817.753 965.328> 952 162<1254.58 1435.91>
DStem2: 150.133 0 340.514 0 0.207912 0.978148<667.556 928.928> 213.073 0 389.054 0 0.207912 0.978148<180.372 254.563 1173.33 1495.52> 660.758 0 836.966 0 0.207912 0.978148<84.8547 407.044 1325.81 1400> 671.991 0 851.986 0 0.207912 0.978148<105.997 404.709> 709.964 0 900.336 0 0.207912 0.978148<654.298 915.669>
LayerCount: 2
Fore
SplineSet
632 0 m 2,0,1
 464 0 l 2,2,3
 257 0 257 0 257 174 c 0,4,5
 257 208 257 208 266 249 c 1,6,-1
 449 328 l 1,7,-1
 459 328 l 1,8,-1
 422 155 l 2,9,10
 419 141 419 141 419 129 c 0,11,12
 419 70 419 70 494 70 c 2,13,-1
 597 70 l 2,14,15
 687 70 687 70 706 160 c 2,16,-1
 750 368 l 2,17,18
 753 382 753 382 753 397 c 0,19,20
 753 458 753 458 680 458 c 2,21,-1
 528 458 l 2,22,23
 297 458 297 458 297 650 c 0,24,25
 297 690 297 690 307 738 c 2,26,-1
 324 820 l 2,27,28
 343 911 343 911 383 972 c 1,29,-1
 525 870 l 1,30,-1
 474 628 l 2,31,32
 471 614 471 614 471 599 c 0,33,34
 471 538 471 538 545 538 c 2,35,-1
 727 538 l 2,36,37
 926 538 926 538 926 377 c 0,38,39
 926 343 926 343 916 298 c 2,40,-1
 903 240 l 2,41,42
 849 0 849 0 632 0 c 2,0,1
739 1510 m 2,43,-1
 907 1510 l 2,44,45
 1114 1510 1114 1510 1114 1336 c 0,46,47
 1114 1302 1114 1302 1105 1261 c 1,48,-1
 922 1182 l 1,49,-1
 912 1182 l 1,50,-1
 949 1355 l 2,51,52
 952 1369 952 1369 952 1381 c 0,53,54
 952 1440 952 1440 877 1440 c 2,55,-1
 774 1440 l 2,56,57
 684 1440 684 1440 665 1350 c 2,58,-1
 621 1142 l 2,59,60
 618 1128 618 1128 618 1113 c 0,61,62
 618 1052 618 1052 691 1052 c 2,63,-1
 843 1052 l 2,64,65
 1074 1052 1074 1052 1074 860 c 0,66,67
 1074 820 1074 820 1064 772 c 2,68,-1
 1047 690 l 2,69,70
 1028 599 1028 599 988 538 c 1,71,-1
 846 640 l 1,72,-1
 897 882 l 2,73,74
 900 896 900 896 900 911 c 0,75,76
 900 972 900 972 826 972 c 2,77,-1
 644 972 l 2,78,79
 445 972 445 972 445 1133 c 0,80,81
 445 1167 445 1167 455 1212 c 2,82,-1
 468 1270 l 2,83,84
 522 1510 522 1510 739 1510 c 2,43,-1
EndSplineSet
Validated: 1
EndChar

StartChar: dieresis
Encoding: 168 168 104
Width: 600
GlyphClass: 2
Flags: W
HStem: 1230 227<374.232 520.636 650.141 796.574>
VStem: 333 229<1271.58 1415.8> 610 229<1272.58 1416.8>
LayerCount: 2
Fore
SplineSet
749 1458 m 128,-1,1
 795 1458 795 1458 821 1425 c 0,2,3
 839 1402 839 1402 839 1369 c 0,4,5
 839 1357 839 1357 837 1345 c 0,6,7
 827 1299 827 1299 786.5 1265 c 128,-1,8
 746 1231 746 1231 700 1231 c 0,9,10
 655 1231 655 1231 629 1265 c 0,11,12
 610 1289 610 1289 610 1320 c 0,13,14
 611 1333 611 1333 613 1345 c 0,15,16
 623 1391 623 1391 663 1424.5 c 128,-1,0
 703 1458 703 1458 749 1458 c 128,-1,1
472 1457 m 128,-1,18
 518 1457 518 1457 544 1424 c 0,19,20
 562 1401 562 1401 562 1368 c 0,21,22
 562 1356 562 1356 560 1344 c 0,23,24
 550 1298 550 1298 509.5 1264 c 128,-1,25
 469 1230 469 1230 423 1230 c 0,26,27
 378 1230 378 1230 352 1264 c 0,28,29
 333 1288 333 1288 333 1319 c 0,30,31
 334 1332 334 1332 336 1344 c 0,32,33
 346 1390 346 1390 386 1423.5 c 128,-1,17
 426 1457 426 1457 472 1457 c 128,-1,18
EndSplineSet
Validated: 1
EndChar

StartChar: copyright
Encoding: 169 169 105
Width: 1401
GlyphClass: 2
Flags: W
HStem: 386 52<634.584 955.646> 556 71<737.619 973.625> 1280 71<857.974 1096.29> 1478 52<854.632 1173.39>
VStem: 332 59<686.575 1015.56> 598 135<627.634 876.461> 1098 126<1130.63 1278.56> 1416 59<900.437 1234>
DStem2: 527.629 386 673.146 386 0.207912 0.978148<312.815 942.869> 917.465 386 1062.42 386 0.207912 0.978148<244.332 401.78 795.056 872.72>
LayerCount: 2
Fore
SplineSet
917 1351 m 2,0,-1
 1063 1351 l 2,1,2
 1224 1351 1224 1351 1224 1214 c 0,3,4
 1224 1184 1224 1184 1216 1149 c 2,5,-1
 1213 1136 l 1,6,-1
 1075 1084 l 1,7,-1
 1065 1084 l 1,8,-1
 1096 1230 l 2,9,10
 1098 1239 1098 1239 1098 1246 c 0,11,12
 1098 1280 1098 1280 1057 1280 c 2,13,-1
 913 1280 l 2,14,15
 863 1280 863 1280 852 1230 c 2,16,-1
 735 677 l 2,17,18
 733 668 733 668 733 661 c 0,19,20
 733 627 733 627 774 627 c 2,21,-1
 918 627 l 2,22,23
 968 627 968 627 979 677 c 2,24,-1
 1001 779 l 1,25,-1
 1147 833 l 1,26,-1
 1157 833 l 1,27,-1
 1140 751 l 2,28,29
 1100 556 1100 556 914 556 c 2,30,-1
 768 556 l 2,31,32
 598 556 598 556 598 690 c 0,33,34
 598 717 598 717 605 750 c 2,35,-1
 692 1157 l 2,36,37
 733 1351 733 1351 917 1351 c 2,0,-1
784 386 m 0,38,39
 558 386 558 386 428 549 c 0,40,41
 332 669 332 669 332 841 c 0,42,43
 332 890 332 890 340 943 c 0,44,45
 375 1183 375 1183 585 1362 c 0,46,47
 782 1530 782 1530 1023 1530 c 0,48,49
 1249 1530 1249 1530 1379 1367 c 0,50,51
 1475 1247 1475 1247 1475 1075 c 0,52,53
 1475 1026 1475 1026 1467 973 c 0,54,55
 1432 733 1432 733 1222 554 c 0,56,57
 1024 386 1024 386 784 386 c 0,38,39
1013 1478 m 0,58,59
 813 1478 813 1478 633 1330 c 0,60,61
 451 1181 451 1181 403 953 c 0,62,63
 391 897 391 897 391 843 c 0,64,65
 391 704 391 704 472 587 c 0,66,67
 575 438 575 438 794 438 c 0,68,69
 994 438 994 438 1174 586 c 0,70,71
 1356 735 1356 735 1404 963 c 0,72,73
 1416 1022 1416 1022 1416 1077 c 0,74,75
 1416 1216 1416 1216 1338 1329 c 0,76,77
 1235 1478 1235 1478 1013 1478 c 0,58,59
EndSplineSet
Validated: 1
EndChar

StartChar: ordfeminine
Encoding: 170 170 106
Width: 554
GlyphClass: 2
Flags: W
HStem: 790 120<295 620> 969 61<426.679 588> 1319 61<479.094 651.849> 1499 61<500 687.321>
VStem: 306 119<1032 1120.89> 688 120<1318.64 1498.28>
DStem2: 239.943 790 369.673 790 0.207912 0.978148<298.958 575.865> 543.673 790 671.875 790 0.207912 0.978148<248.503 523.212 593.704 698.912>
LayerCount: 2
Fore
SplineSet
500 1560 m 1,0,-1
 666 1560 l 2,1,2
 808 1560 808 1560 808 1449 c 0,3,4
 808 1428 808 1428 802 1400 c 2,5,-1
 718 1007 l 1,6,-1
 588 959 l 1,7,-1
 578 959 l 1,8,-1
 582 978 l 1,9,10
 565 969 565 969 550 969 c 2,11,-1
 448 969 l 2,12,13
 306 969 306 969 306 1081 c 0,14,15
 306 1100 306 1100 312 1129 c 2,16,-1
 331 1220 l 2,17,18
 364 1380 364 1380 515 1380 c 2,19,-1
 627 1380 l 2,20,21
 653 1380 653 1380 667 1377 c 1,22,-1
 687 1474 l 2,23,24
 688 1478 688 1478 688 1482 c 0,25,26
 688 1499 688 1499 668 1499 c 2,27,-1
 463 1499 l 1,28,-1
 465 1509 l 1,29,-1
 500 1560 l 1,0,-1
632 1319 m 2,30,-1
 507 1319 l 2,31,32
 482 1319 482 1319 477 1294 c 2,33,-1
 426 1055 l 2,34,35
 425 1051 425 1051 425 1047 c 0,36,37
 425 1030 425 1030 446 1030 c 2,38,-1
 571 1030 l 2,39,40
 595 1030 595 1030 600 1055 c 2,41,-1
 651 1294 l 2,42,43
 652 1298 652 1298 652 1302 c 0,44,45
 652 1319 652 1319 632 1319 c 2,30,-1
218 790 m 1,46,-1
 220 800 l 1,47,-1
 295 910 l 1,48,-1
 697 910 l 1,49,-1
 695 900 l 1,50,-1
 620 790 l 1,51,-1
 218 790 l 1,46,-1
EndSplineSet
Validated: 1
EndChar

StartChar: guillemotleft
Encoding: 171 171 107
Width: 1100
GlyphClass: 2
Flags: W
DStem2: 310 755 458 818 0.625082 0.780559<141.687 630.317> 458 818 310 755 0.355733 -0.934588<6.23058 475.076> 662 755 810 818 0.625082 0.780559<141.687 630.317> 810 818 662 755 0.355733 -0.934588<6.23058 475.076>
LayerCount: 2
Fore
SplineSet
662 755 m 1,0,-1
 1056 1247 l 1,1,-1
 1066 1247 l 1,2,-1
 1129 1213 l 1,3,-1
 810 818 l 1,4,-1
 979 374 l 1,5,-1
 839 313 l 1,6,-1
 829 313 l 1,7,-1
 662 755 l 1,0,-1
310 755 m 1,8,-1
 704 1247 l 1,9,-1
 714 1247 l 1,10,-1
 777 1213 l 1,11,-1
 458 818 l 1,12,-1
 627 374 l 1,13,-1
 487 313 l 1,14,-1
 477 313 l 1,15,-1
 310 755 l 1,8,-1
EndSplineSet
Validated: 1
EndChar

StartChar: logicalnot
Encoding: 172 172 108
Width: 1200
GlyphClass: 2
Flags: W
HStem: 680 150<392 1009>
VStem: 827 120<418 538>
DStem2: 827 418 947 418 0.567398 0.823444<68.0877 319.009>
LayerCount: 2
Fore
SplineSet
392 830 m 1,0,-1
 1226 830 l 1,1,-1
 1224 820 l 1,2,-1
 947 418 l 1,3,-1
 827 418 l 1,4,-1
 1009 680 l 1,5,-1
 295 680 l 1,6,-1
 297 690 l 1,7,-1
 392 830 l 1,0,-1
EndSplineSet
Validated: 1
EndChar

StartChar: uni00AD
Encoding: 173 173 109
Width: 1200
GlyphClass: 2
Flags: W
HStem: 680 150<392 1129>
LayerCount: 2
Fore
SplineSet
392 830 m 5,0,-1
 1226 830 l 5,1,-1
 1224 820 l 5,2,-1
 1129 680 l 5,3,-1
 295 680 l 5,4,-1
 297 690 l 5,5,-1
 392 830 l 5,0,-1
EndSplineSet
Validated: 1
EndChar

StartChar: registered
Encoding: 174 174 110
Width: 1401
GlyphClass: 2
Flags: W
HStem: 386 52<634.584 955.646> 807 71<791 870> 1283 71<877 1086.95> 1478 52<854.632 1173.39>
VStem: 332 59<686.575 1015.56> 1087 134<1032.45 1282.1> 1416 59<900.437 1234>
DStem2: 545.778 386 685.938 386 0.207912 0.978148<245.877 459.666 532.233 944.605> 1023 817 870 807 0.489624 -0.871934<0 231.995> 904.965 386 1049.91 386 0.207912 0.978148<500.85 879.647>
LayerCount: 2
Fore
SplineSet
1046 1283 m 2,0,-1
 877 1283 l 1,1,-1
 791 878 l 1,2,-1
 960 878 l 2,3,4
 1010 878 1010 878 1020 928 c 2,5,-1
 1085 1233 l 2,6,7
 1087 1242 1087 1242 1087 1249 c 0,8,9
 1087 1283 1087 1283 1046 1283 c 2,0,-1
784 386 m 0,10,11
 558 386 558 386 428 549 c 0,12,13
 332 669 332 669 332 841 c 0,14,15
 332 890 332 890 340 943 c 0,16,17
 375 1183 375 1183 585 1362 c 0,18,19
 782 1530 782 1530 1023 1530 c 0,20,21
 1249 1530 1249 1530 1379 1367 c 0,22,23
 1475 1247 1475 1247 1475 1075 c 0,24,25
 1475 1026 1475 1026 1467 973 c 0,26,27
 1432 733 1432 733 1222 554 c 0,28,29
 1024 386 1024 386 784 386 c 0,10,11
1013 1478 m 0,30,31
 813 1478 813 1478 633 1330 c 0,32,33
 451 1181 451 1181 403 953 c 0,34,35
 391 897 391 897 391 843 c 0,36,37
 391 704 391 704 472 587 c 0,38,39
 575 438 575 438 794 438 c 0,40,41
 994 438 994 438 1174 586 c 0,42,43
 1356 735 1356 735 1404 963 c 0,44,45
 1416 1022 1416 1022 1416 1077 c 0,46,47
 1416 1216 1416 1216 1338 1329 c 0,48,49
 1235 1478 1235 1478 1013 1478 c 0,30,31
1026 547 m 1,50,-1
 1016 547 l 1,51,-1
 870 807 l 1,52,-1
 776 807 l 1,53,-1
 731 598 l 1,54,-1
 590 547 l 1,55,-1
 580 547 l 1,56,-1
 742 1310 l 1,57,-1
 841 1354 l 1,58,-1
 1052 1354 l 2,59,60
 1221 1354 1221 1354 1221 1219 c 0,61,62
 1221 1191 1221 1191 1214 1158 c 2,63,-1
 1181 1003 l 2,64,65
 1146 838 1146 838 1023 817 c 1,66,-1
 1149 595 l 1,67,-1
 1026 547 l 1,50,-1
EndSplineSet
Validated: 1
EndChar

StartChar: macron
Encoding: 175 175 111
Width: 600
GlyphClass: 2
Flags: W
HStem: 1299 130<411 769>
VStem: 326 528
LayerCount: 2
Fore
SplineSet
411 1429 m 1,0,-1
 854 1429 l 1,1,-1
 852 1419 l 1,2,-1
 769 1299 l 1,3,-1
 326 1299 l 1,4,-1
 328 1309 l 1,5,-1
 411 1429 l 1,0,-1
EndSplineSet
Validated: 1
EndChar

StartChar: degree
Encoding: 176 176 112
Width: 650
GlyphClass: 2
Flags: W
HStem: 1000 66<432.516 685.145> 1494 66<509.567 762.25>
VStem: 297 133<1066.62 1316.75> 764 133<1243.25 1493.38>
DStem2: 262.764 1000 407.343 1000 0.207912 0.978148<140.943 532.234> 667.625 1000 812.204 1000 0.207912 0.978148<70.3884 461.628>
LayerCount: 2
Fore
SplineSet
723 1494 m 2,0,-1
 563 1494 l 2,1,2
 513 1494 513 1494 502 1444 c 2,3,-1
 432 1116 l 2,4,5
 430 1107 430 1107 430 1100 c 0,6,7
 430 1066 430 1066 472 1066 c 2,8,-1
 632 1066 l 2,9,10
 682 1066 682 1066 692 1116 c 2,11,-1
 762 1444 l 2,12,13
 764 1453 764 1453 764 1460 c 0,14,15
 764 1494 764 1494 723 1494 c 2,0,-1
632 1000 m 2,16,-1
 474 1000 l 2,17,18
 297 1000 297 1000 297 1136 c 0,19,20
 297 1162 297 1162 304 1194 c 2,21,-1
 340 1366 l 2,22,23
 381 1560 381 1560 563 1560 c 2,24,-1
 721 1560 l 2,25,26
 897 1560 897 1560 897 1424 c 0,27,28
 897 1398 897 1398 890 1366 c 2,29,-1
 854 1194 l 2,30,31
 813 1000 813 1000 632 1000 c 2,16,-1
EndSplineSet
Validated: 1
EndChar

StartChar: plusminus
Encoding: 177 177 113
Width: 1200
GlyphClass: 2
Flags: W
HStem: 275 150<306 1042> 858 150<430 707 889 1166>
DStem2: 583.788 275 733.76 275 0.207912 0.978148<311.302 595.877 780.439 1065.22>
LayerCount: 2
Fore
SplineSet
306 425 m 1,0,-1
 1140 425 l 1,1,-1
 1138 415 l 1,2,-1
 1042 275 l 1,3,-1
 208 275 l 1,4,-1
 211 285 l 1,5,-1
 306 425 l 1,0,-1
805 1317 m 1,6,-1
 959 1383 l 1,7,-1
 969 1383 l 1,8,-1
 889 1008 l 1,9,-1
 1264 1008 l 1,10,-1
 1262 998 l 1,11,-1
 1166 858 l 1,12,-1
 857 858 l 1,13,-1
 792 549 l 1,14,-1
 638 483 l 1,15,-1
 628 483 l 1,16,-1
 707 858 l 1,17,-1
 332 858 l 1,18,-1
 334 868 l 1,19,-1
 430 1008 l 1,20,-1
 739 1008 l 1,21,-1
 805 1317 l 1,6,-1
EndSplineSet
Validated: 1
EndChar

StartChar: uni00B2
Encoding: 178 178 114
Width: 651
VWidth: 1406
GlyphClass: 2
Flags: W
HStem: 765 131<413 717> 1494 66<525.945 751.361>
VStem: 753 134<1261.41 1492.9>
DStem2: 283 888 413 896 0.819759 0.572708<111.15 518.006> 606.432 765 763.155 765 0.207912 0.978148<460.519 706.079>
LayerCount: 2
Fore
SplineSet
596 1560 m 2,0,-1
 716 1560 l 2,1,2
 887 1560 887 1560 887 1428 c 0,3,4
 887 1403 887 1403 880 1370 c 2,5,-1
 867 1309 l 2,6,7
 840 1182 840 1182 668 1067 c 2,8,-1
 413 896 l 1,9,-1
 791 896 l 1,10,-1
 789 886 l 1,11,-1
 717 765 l 1,12,-1
 213 765 l 1,13,-1
 215 775 l 1,14,-1
 283 888 l 1,15,-1
 575 1092 l 2,16,17
 693 1175 693 1175 721 1304 c 2,18,-1
 751 1444 l 2,19,20
 753 1453 753 1453 753 1460 c 0,21,22
 753 1494 753 1494 712 1494 c 2,23,-1
 580 1494 l 2,24,25
 530 1494 530 1494 519 1444 c 2,26,-1
 498 1345 l 1,27,-1
 347 1283 l 1,28,-1
 337 1283 l 1,29,-1
 354 1365 l 2,30,31
 394 1560 394 1560 596 1560 c 2,0,-1
EndSplineSet
Validated: 1
EndChar

StartChar: uni00B3
Encoding: 179 179 115
Width: 631
VWidth: 1396
GlyphClass: 2
Flags: W
HStem: 765 66<387.262 613.033> 1494 66<459 687>
VStem: 246 137<832.354 985.492> 686 133<1101.15 1214.13>
DStem2: 516 1258 680 1280 0.609026 0.79315<117.33 291.327> 598.343 765 743.764 765 0.207912 0.978148<73.8734 418.642>
LayerCount: 2
Fore
SplineSet
459 1560 m 1,0,-1
 895 1560 l 1,1,-1
 680 1280 l 1,2,3
 819 1273 819 1273 819 1147 c 0,4,5
 819 1118 819 1118 812 1085 c 2,6,-1
 785 959 l 2,7,8
 743 765 743 765 559 765 c 2,9,-1
 418 765 l 2,10,11
 246 765 246 765 246 898 c 0,12,13
 246 926 246 926 255 964 c 2,14,-1
 259 981 l 1,15,-1
 408 1033 l 1,16,-1
 418 1033 l 1,17,-1
 385 881 l 2,18,19
 383 872 383 872 383 865 c 0,20,21
 383 831 383 831 425 831 c 2,22,-1
 563 831 l 2,23,24
 612 831 612 831 623 881 c 2,25,-1
 684 1166 l 2,26,27
 686 1175 686 1175 686 1182 c 0,28,29
 686 1216 686 1216 644 1216 c 2,30,-1
 541 1216 l 1,31,-1
 516 1258 l 1,32,-1
 687 1494 l 1,33,-1
 424 1494 l 1,34,-1
 426 1505 l 1,35,-1
 459 1560 l 1,0,-1
EndSplineSet
Validated: 1
EndChar

StartChar: acute
Encoding: 180 180 116
Width: 372
GlyphClass: 2
Flags: W
HStem: 1160 367
VStem: 310 323
DStem2: 310 1224 433 1160 0.550881 0.834584<14.3449 363.055>
LayerCount: 2
Fore
SplineSet
520 1527 m 1,0,-1
 633 1463 l 1,1,-1
 433 1160 l 1,2,-1
 423 1160 l 1,3,-1
 310 1224 l 1,4,-1
 510 1527 l 1,5,-1
 520 1527 l 1,0,-1
EndSplineSet
Validated: 1
EndChar

StartChar: uni00B5
Encoding: 181 181 117
Width: 1190
GlyphClass: 2
Flags: W
HStem: -430 21G<89 145.173> 0 80<396.579 840.773> 1100 20G<541.827 598 1191.83 1248>
DStem2: 89 -430 268.783 -430 0.207912 0.978148<120.189 489.762 622.126 1501.77> 738.466 -430 919.085 -430 0.207912 0.978148<569.189 1501.88>
LayerCount: 2
Fore
SplineSet
750 0 m 2,0,-1
 480 0 l 2,1,2
 404 0 404 0 362 11 c 1,3,-1
 286 -349 l 1,4,-1
 99 -430 l 1,5,-1
 89 -430 l 1,6,-1
 401 1039 l 1,7,-1
 588 1120 l 1,8,-1
 598 1120 l 1,9,-1
 396 170 l 2,10,11
 393 154 393 154 393 141 c 0,12,13
 393 80 393 80 467 80 c 2,14,-1
 757 80 l 2,15,16
 847 80 847 80 866 170 c 2,17,-1
 1051 1039 l 1,18,-1
 1238 1120 l 1,19,-1
 1248 1120 l 1,20,-1
 1070 280 l 2,21,22
 1011 0 1011 0 750 0 c 2,0,-1
EndSplineSet
Validated: 1
EndChar

StartChar: paragraph
Encoding: 182 182 118
Width: 1180
GlyphClass: 2
Flags: W
HStem: -20 21G<776 833.143> 1490 20G<600.5 1126>
DStem2: 776 -20 846.048 -20 0.207912 0.978148<43.1894 587.8> 909.459 -20 975.87 -20 0.207912 0.978148<105.818 1185.91>
LayerCount: 2
Fore
SplineSet
786 -20 m 1,0,-1
 776 -20 l 1,1,-1
 898 555 l 1,2,3
 859 548 859 548 816 548 c 2,4,-1
 566 548 l 2,5,6
 316 548 316 548 316 743 c 0,7,8
 316 782 316 782 326 828 c 2,9,-1
 411 1230 l 2,10,11
 470 1510 470 1510 731 1510 c 2,12,-1
 1001 1510 l 2,13,14
 1251 1510 1251 1510 1251 1315 c 0,15,16
 1251 1276 1251 1276 1241 1230 c 2,17,-1
 995 70 l 1,18,-1
 922 39 l 1,19,-1
 1156 1140 l 1,20,-1
 1086 1110 l 1,21,-1
 852 8 l 1,22,-1
 786 -20 l 1,0,-1
EndSplineSet
Validated: 1
EndChar

StartChar: periodcentered
Encoding: 183 183 119
Width: 340
GlyphClass: 2
Flags: W
HStem: 632 245<254.711 405.42>
VStem: 207 246<679.592 828.764>
LayerCount: 2
Fore
SplineSet
356 877 m 0,0,1
 408 877 408 877 434 841 c 0,2,3
 453 816 453 816 453 782 c 0,4,5
 453 768 453 768 450 754 c 0,6,7
 439 704 439 704 396.5 668 c 128,-1,8
 354 632 354 632 304 632 c 128,-1,9
 254 632 254 632 226 668 c 0,10,11
 207 693 207 693 207 727 c 0,12,13
 207 740 207 740 210 754 c 0,14,15
 221 804 221 804 263.5 840.5 c 128,-1,16
 306 877 306 877 356 877 c 0,0,1
EndSplineSet
Validated: 1
EndChar

StartChar: cedilla
Encoding: 184 184 120
Width: 420
GlyphClass: 2
Flags: W
HStem: -410 410 -20 20G<156 254.5>
VStem: 188 143<-239.266 -78.4795>
LayerCount: 2
Fore
SplineSet
-37 -410 m 1,0,-1
 -35 -400 l 1,1,-1
 47 -280 l 1,2,3
 165 -264 165 -264 185 -173 c 0,4,5
 188 -158 188 -158 188 -145 c 0,6,7
 188 -95 188 -95 140 -76 c 1,8,-1
 156 0 l 1,9,-1
 259 0 l 1,10,-1
 250 -40 l 1,11,12
 331 -77 331 -77 331 -165 c 0,13,14
 331 -176 331 -176 330 -187 c 0,15,16
 304 -410 304 -410 -37 -410 c 1,0,-1
EndSplineSet
Validated: 1
EndChar

StartChar: uni00B9
Encoding: 185 185 121
Width: 412
VWidth: 1401
GlyphClass: 2
Flags: W
VStem: 328 318
DStem2: 328 736 468.16 736 0.207912 0.978148<81.2802 729.022> 360 1460 346 1391 0.92894 0.37023<0 107.4>
LayerCount: 2
Fore
SplineSet
636 1570 m 1,0,-1
 646 1570 l 1,1,-1
 479 787 l 1,2,-1
 338 736 l 1,3,-1
 328 736 l 1,4,-1
 480 1449 l 1,5,-1
 346 1391 l 1,6,-1
 360 1460 l 1,7,-1
 636 1570 l 1,0,-1
EndSplineSet
Validated: 1
EndChar

StartChar: ordmasculine
Encoding: 186 186 122
Width: 554
GlyphClass: 2
Flags: W
HStem: 790 120<295 620> 969 61<404.679 595.688> 1499 61<493.001 687.321>
VStem: 284 119<1030.72 1259.11> 688 120<1269.89 1498.28>
DStem2: 217.943 790 347.673 790 0.207912 0.978148<298.071 760.143> 541.611 790 672.34 790 0.207912 0.978148<237.238 699.311>
LayerCount: 2
Fore
SplineSet
493 1474 m 2,0,-1
 404 1055 l 2,1,2
 403 1051 403 1051 403 1047 c 0,3,4
 403 1030 403 1030 423 1030 c 2,5,-1
 569 1030 l 2,6,7
 593 1030 593 1030 598 1055 c 2,8,-1
 687 1474 l 2,9,10
 688 1478 688 1478 688 1482 c 0,11,12
 688 1499 688 1499 669 1499 c 2,13,-1
 523 1499 l 2,14,15
 498 1499 498 1499 493 1474 c 2,0,-1
532 1560 m 2,16,-1
 666 1560 l 2,17,18
 808 1560 808 1560 808 1449 c 0,19,20
 808 1427 808 1427 802 1400 c 2,21,-1
 744 1129 l 2,22,23
 710 969 710 969 560 969 c 2,24,-1
 426 969 l 2,25,26
 284 969 284 969 284 1080 c 0,27,28
 284 1102 284 1102 290 1129 c 2,29,-1
 348 1400 l 2,30,31
 382 1560 382 1560 532 1560 c 2,16,-1
218 790 m 1,32,-1
 220 800 l 1,33,-1
 295 910 l 1,34,-1
 697 910 l 1,35,-1
 695 900 l 1,36,-1
 620 790 l 1,37,-1
 218 790 l 1,32,-1
EndSplineSet
Validated: 1
EndChar

StartChar: guillemotright
Encoding: 187 187 123
Width: 1100
GlyphClass: 2
Flags: W
DStem2: 291 297 364 263 0.625082 0.780559<19.092 507.722> 591 1197 441 1136 0.355733 -0.934588<3.64994 472.495> 643 297 716 263 0.625082 0.780559<19.092 507.722> 943 1197 793 1136 0.355733 -0.934588<3.64994 472.495>
LayerCount: 2
Fore
SplineSet
758 755 m 1,0,-1
 364 263 l 1,1,-1
 354 263 l 1,2,-1
 291 297 l 1,3,-1
 610 692 l 1,4,-1
 441 1136 l 1,5,-1
 581 1197 l 1,6,-1
 591 1197 l 1,7,-1
 758 755 l 1,0,-1
1110 755 m 1,8,-1
 716 263 l 1,9,-1
 706 263 l 1,10,-1
 643 297 l 1,11,-1
 962 692 l 1,12,-1
 793 1136 l 1,13,-1
 933 1197 l 1,14,-1
 943 1197 l 1,15,-1
 1110 755 l 1,8,-1
EndSplineSet
Validated: 1
EndChar

StartChar: onequarter
Encoding: 188 188 124
Width: 1572
VWidth: 1401
GlyphClass: 2
Flags: W
HStem: -20 21G<413.284 473.756 1202 1267.29> 180 66<996 1244 1398 1434> 1510 20G<677 737 1332.26 1393.01>
DStem2: 267.81 -20 407.969 -20 0.207912 0.978148<813.276 1460.81> 327 47 460 -20 0.566694 0.823928<20.1671 1799.35> 452 1420 437 1351 0.928477 0.371391<0 106.403> 860 190 996 246 0.666606 0.74541<132.401 647.206> 1202 -20 1342.16 -20 0.207912 0.978148<81.2802 204.362 300.938 663.51>
LayerCount: 2
Fore
SplineSet
727 1530 m 1,0,-1
 737 1530 l 1,1,-1
 571 747 l 1,2,-1
 430 696 l 1,3,-1
 420 696 l 1,4,-1
 571 1409 l 1,5,-1
 437 1351 l 1,6,-1
 452 1420 l 1,7,-1
 727 1530 l 1,0,-1
996 246 m 1,8,-1
 1258 246 l 1,9,-1
 1340 629 l 1,10,-1
 996 246 l 1,8,-1
1212 -20 m 1,11,-1
 1202 -20 l 1,12,-1
 1244 180 l 1,13,-1
 858 180 l 1,14,-1
 860 190 l 1,15,-1
 1376 767 l 1,16,-1
 1509 815 l 1,17,-1
 1519 815 l 1,18,-1
 1398 246 l 1,19,-1
 1474 246 l 1,20,-1
 1472 236 l 1,21,-1
 1434 180 l 1,22,-1
 1384 180 l 1,23,-1
 1353 31 l 1,24,-1
 1212 -20 l 1,11,-1
450 -20 m 1,25,-1
 327 47 l 1,26,-1
 1346 1530 l 1,27,-1
 1356 1530 l 1,28,-1
 1480 1463 l 1,29,-1
 460 -20 l 1,30,-1
 450 -20 l 1,25,-1
EndSplineSet
Validated: 1
EndChar

StartChar: onehalf
Encoding: 189 189 125
Width: 1718
VWidth: 1401
GlyphClass: 2
Flags: W
HStem: -20 21G<413.284 473.756> 0 131<1217 1521> 729 66<1329.95 1555.36> 1510 20G<676.818 737 1332.26 1393.01>
VStem: 1557 134<496.406 727.904>
DStem2: 266.81 -20 406.969 -20 0.207912 0.978148<813.276 1461.02> 327 47 460 -20 0.566694 0.823928<20.1671 1799.35> 451 1420 437 1351 0.92894 0.37023<0 107.4> 1087 123 1217 131 0.819759 0.572708<111.15 518.006> 1406.18 -20 1562.9 -20 0.207912 0.978148<480.966 726.526>
LayerCount: 2
Fore
SplineSet
727 1530 m 1,0,-1
 737 1530 l 1,1,-1
 570 747 l 1,2,-1
 429 696 l 1,3,-1
 419 696 l 1,4,-1
 571 1409 l 1,5,-1
 437 1351 l 1,6,-1
 451 1420 l 1,7,-1
 727 1530 l 1,0,-1
1400 795 m 2,8,-1
 1520 795 l 2,9,10
 1691 795 1691 795 1691 663 c 0,11,12
 1691 638 1691 638 1684 605 c 2,13,-1
 1671 544 l 2,14,15
 1644 417 1644 417 1472 302 c 2,16,-1
 1217 131 l 1,17,-1
 1595 131 l 1,18,-1
 1593 121 l 1,19,-1
 1521 0 l 1,20,-1
 1017 0 l 1,21,-1
 1019 10 l 1,22,-1
 1087 123 l 1,23,-1
 1379 327 l 2,24,25
 1497 410 1497 410 1525 539 c 2,26,-1
 1555 679 l 2,27,28
 1557 688 1557 688 1557 695 c 0,29,30
 1557 729 1557 729 1516 729 c 2,31,-1
 1384 729 l 2,32,33
 1334 729 1334 729 1323 679 c 2,34,-1
 1302 580 l 1,35,-1
 1151 518 l 1,36,-1
 1141 518 l 1,37,-1
 1158 600 l 2,38,39
 1198 795 1198 795 1400 795 c 2,8,-1
450 -20 m 1,40,-1
 327 47 l 1,41,-1
 1346 1530 l 1,42,-1
 1356 1530 l 1,43,-1
 1480 1463 l 1,44,-1
 460 -20 l 1,45,-1
 450 -20 l 1,40,-1
EndSplineSet
Validated: 1
EndChar

StartChar: threequarters
Encoding: 190 190 126
Width: 1796
VWidth: 1401
GlyphClass: 2
Flags: W
HStem: -20 21G<637.284 697.756 1426 1491.29> 180 66<1220 1468 1622 1658> 735 66<480.262 706.033> 1464 66<552 786>
VStem: 339 137<802.354 955.492> 779 133<1071.15 1184.13>
DStem2: 551 47 684 -20 0.566694 0.823928<20.1671 1799.35> 609 1228 767 1250 0.619553 0.784955<115.158 294.91> 1084 190 1220 246 0.666606 0.74541<132.401 647.206> 1426 -20 1566.16 -20 0.207912 0.978148<81.2802 204.362 300.938 663.51>
LayerCount: 2
Fore
SplineSet
552 1530 m 1,0,-1
 988 1530 l 1,1,-1
 767 1250 l 1,2,3
 912 1243 912 1243 912 1117 c 0,4,5
 912 1089 912 1089 905 1055 c 2,6,-1
 878 929 l 2,7,8
 836 735 836 735 652 735 c 2,9,-1
 511 735 l 2,10,11
 339 735 339 735 339 868 c 0,12,13
 339 898 339 898 348 934 c 2,14,-1
 352 951 l 1,15,-1
 501 1003 l 1,16,-1
 511 1003 l 1,17,-1
 478 851 l 2,18,19
 476 842 476 842 476 835 c 0,20,21
 476 801 476 801 518 801 c 2,22,-1
 656 801 l 2,23,24
 705 801 705 801 716 851 c 2,25,-1
 777 1136 l 2,26,27
 779 1145 779 1145 779 1152 c 0,28,29
 779 1186 779 1186 737 1186 c 2,30,-1
 634 1186 l 1,31,-1
 609 1228 l 1,32,-1
 786 1464 l 1,33,-1
 517 1464 l 1,34,-1
 519 1475 l 1,35,-1
 552 1530 l 1,0,-1
1220 246 m 1,36,-1
 1482 246 l 1,37,-1
 1564 629 l 1,38,-1
 1220 246 l 1,36,-1
1436 -20 m 1,39,-1
 1426 -20 l 1,40,-1
 1468 180 l 1,41,-1
 1082 180 l 1,42,-1
 1084 190 l 1,43,-1
 1600 767 l 1,44,-1
 1733 815 l 1,45,-1
 1743 815 l 1,46,-1
 1622 246 l 1,47,-1
 1698 246 l 1,48,-1
 1696 236 l 1,49,-1
 1658 180 l 1,50,-1
 1608 180 l 1,51,-1
 1577 31 l 1,52,-1
 1436 -20 l 1,39,-1
674 -20 m 1,53,-1
 551 47 l 1,54,-1
 1570 1530 l 1,55,-1
 1580 1530 l 1,56,-1
 1704 1463 l 1,57,-1
 684 -20 l 1,58,-1
 674 -20 l 1,53,-1
EndSplineSet
Validated: 1
EndChar

StartChar: questiondown
Encoding: 191 191 127
Width: 1270
GlyphClass: 2
Flags: W
HStem: -410 90<335.909 816.131> 875 245<811.58 962.099>
VStem: 124 193<-306.641 -118.191> 764 246<923.236 1072.41>
DStem2: 62.6052 -410 273.112 -410 0.207912 0.978148<249.052 625.364>
LayerCount: 2
Fore
SplineSet
673 -410 m 2,0,1
 433 -410 l 2,2,3
 124 -410 124 -410 124 -170 c 0,4,5
 124 -120 124 -120 137 -60 c 2,6,-1
 147 -15 l 2,7,8
 217 302 217 302 578 464 c 0,9,10
 678 509 678 509 718 701 c 1,11,-1
 931 794 l 1,12,-1
 941 794 l 1,13,14
 882 517 882 517 650 412 c 0,15,16
 427 311 427 311 378 83 c 2,17,-1
 322 -180 l 2,18,19
 317 -205 317 -205 317 -225 c 0,20,21
 317 -320 317 -320 432 -320 c 2,22,-1
 697 -320 l 2,23,24
 837 -320 837 -320 867 -180 c 2,25,-1
 898 -34 l 1,26,-1
 1124 64 l 1,27,-1
 1134 64 l 1,28,-1
 1107 -60 l 2,29,30
 1031 -410 1031 -410 673 -410 c 2,0,1
913 1120 m 0,31,32
 965 1120 965 1120 991 1084 c 0,33,34
 1010 1058 1010 1058 1010 1025 c 0,35,36
 1010 1012 1010 1012 1007 998 c 0,37,38
 996 948 996 948 953.5 911.5 c 128,-1,39
 911 875 911 875 861 875 c 128,-1,40
 811 875 811 875 783 911 c 0,41,42
 764 935 764 935 764 970 c 0,43,44
 764 984 764 984 767 998 c 0,45,46
 778 1048 778 1048 820.5 1084 c 128,-1,47
 863 1120 863 1120 913 1120 c 0,31,32
EndSplineSet
Validated: 1
EndChar

StartChar: endash
Encoding: 8211 8211 128
Width: 1200
GlyphClass: 2
Flags: W
HStem: 680 150<392 1129>
LayerCount: 2
Fore
SplineSet
392 830 m 5,0,-1
 1226 830 l 5,1,-1
 1224 820 l 5,2,-1
 1129 680 l 5,3,-1
 295 680 l 5,4,-1
 297 690 l 5,5,-1
 392 830 l 5,0,-1
EndSplineSet
Validated: 1
EndChar

StartChar: emdash
Encoding: 8212 8212 129
Width: 1500
GlyphClass: 2
Flags: W
HStem: 680 150<392 1429>
LayerCount: 2
Fore
SplineSet
392 830 m 1,0,-1
 1526 830 l 1,1,-1
 1524 820 l 1,2,-1
 1429 680 l 1,3,-1
 295 680 l 1,4,-1
 297 690 l 1,5,-1
 392 830 l 1,0,-1
EndSplineSet
Validated: 1
EndChar

StartChar: afii00208
Encoding: 8213 8213 130
Width: 1500
GlyphClass: 2
Flags: W
HStem: 680 150<392 1429>
LayerCount: 2
Fore
SplineSet
392 830 m 1,0,-1
 1526 830 l 1,1,-1
 1524 820 l 1,2,-1
 1429 680 l 1,3,-1
 295 680 l 1,4,-1
 297 690 l 1,5,-1
 392 830 l 1,0,-1
EndSplineSet
Validated: 1
EndChar

StartChar: quoteleft
Encoding: 8216 8216 131
Width: 389
GlyphClass: 2
Flags: W
HStem: 1046 554
VStem: 317 166<1169.5 1389.61>
LayerCount: 2
Fore
SplineSet
615 1600 m 1,0,-1
 621 1593 l 1,1,2
 516 1463 516 1463 488 1334 c 0,3,4
 483 1309 483 1309 483 1287 c 0,5,6
 483 1190 483 1190 578 1126 c 1,7,-1
 391 1046 l 1,8,-1
 381 1046 l 1,9,10
 317 1126 317 1126 317 1223 c 0,11,12
 317 1256 317 1256 324 1290 c 0,13,14
 366 1487 366 1487 615 1600 c 1,0,-1
EndSplineSet
Validated: 1
EndChar

StartChar: quoteright
Encoding: 8217 8217 132
Width: 389
GlyphClass: 2
Flags: W
HStem: 1046 554
VStem: 468 166<1257.27 1476.22>
LayerCount: 2
Fore
SplineSet
560 1600 m 1,0,-1
 570 1600 l 1,1,2
 634 1520 634 1520 634 1423 c 0,3,4
 634 1390 634 1390 627 1356 c 0,5,6
 585 1159 585 1159 336 1046 c 1,7,-1
 331 1053 l 1,8,9
 436 1183 436 1183 463 1312 c 0,10,11
 468 1336 468 1336 468 1359 c 0,12,13
 468 1456 468 1456 373 1520 c 1,14,-1
 560 1600 l 1,0,-1
EndSplineSet
Validated: 1
EndChar

StartChar: quotesinglbase
Encoding: 8218 8218 133
Width: 389
GlyphClass: 2
Flags: W
HStem: -276 554
VStem: 187 166<-64.7295 154.218>
LayerCount: 2
Fore
SplineSet
279 278 m 1,0,-1
 289 278 l 1,1,2
 353 198 353 198 353 101 c 0,3,4
 353 68 353 68 346 34 c 0,5,6
 304 -163 304 -163 55 -276 c 1,7,-1
 50 -269 l 1,8,9
 155 -139 155 -139 182 -10 c 0,10,11
 187 14 187 14 187 37 c 0,12,13
 187 134 187 134 92 198 c 1,14,-1
 279 278 l 1,0,-1
EndSplineSet
Validated: 1
EndChar

StartChar: quotereversed
Encoding: 8219 8219 134
Width: 389
GlyphClass: 2
Flags: W
HStem: 1053 547
VStem: 331 143<1149.75 1394.36>
LayerCount: 2
Fore
SplineSet
509 1600 m 1,0,-1
 662 1520 l 1,1,2
 512 1441 512 1441 484 1312 c 0,3,4
 474 1266 474 1266 474 1220 c 0,5,6
 474 1137 474 1137 506 1053 c 1,7,-1
 497 1046 l 1,8,9
 331 1139 331 1139 331 1290 c 0,10,11
 331 1322 331 1322 338 1356 c 0,12,13
 367 1493 367 1493 499 1600 c 1,14,-1
 509 1600 l 1,0,-1
EndSplineSet
Validated: 1
EndChar

StartChar: quotedblleft
Encoding: 8220 8220 135
Width: 688
GlyphClass: 2
Flags: W
HStem: 1046 554
VStem: 317 166<1169.5 1389.61> 616 166<1169.5 1389.61>
LayerCount: 2
Fore
SplineSet
615 1600 m 1,0,-1
 621 1593 l 1,1,2
 516 1463 516 1463 488 1334 c 0,3,4
 483 1309 483 1309 483 1287 c 0,5,6
 483 1190 483 1190 578 1126 c 1,7,-1
 391 1046 l 1,8,-1
 381 1046 l 1,9,10
 317 1126 317 1126 317 1223 c 0,11,12
 317 1256 317 1256 324 1290 c 0,13,14
 366 1487 366 1487 615 1600 c 1,0,-1
914 1600 m 1,15,-1
 920 1593 l 1,16,17
 816 1463 816 1463 788 1334 c 0,18,19
 783 1309 783 1309 782 1287 c 0,20,21
 782 1190 782 1190 877 1126 c 1,22,-1
 690 1046 l 1,23,-1
 680 1046 l 1,24,25
 616 1126 616 1126 616 1223 c 0,26,27
 616 1256 616 1256 623 1290 c 0,28,29
 665 1487 665 1487 914 1600 c 1,15,-1
EndSplineSet
Validated: 1
EndChar

StartChar: quotedblright
Encoding: 8221 8221 136
Width: 688
GlyphClass: 2
Flags: W
HStem: 1046 554
VStem: 468 166<1257.27 1476.22> 767 166<1257.27 1476.22>
LayerCount: 2
Fore
SplineSet
859 1600 m 1,0,-1
 869 1600 l 1,1,2
 933 1520 933 1520 933 1423 c 0,3,4
 933 1390 933 1390 926 1356 c 0,5,6
 884 1159 884 1159 635 1046 c 1,7,-1
 630 1053 l 1,8,9
 735 1183 735 1183 762 1312 c 0,10,11
 767 1336 767 1336 767 1359 c 0,12,13
 767 1456 767 1456 672 1520 c 1,14,-1
 859 1600 l 1,0,-1
560 1600 m 1,15,-1
 570 1600 l 1,16,17
 634 1520 634 1520 634 1423 c 0,18,19
 634 1390 634 1390 627 1356 c 0,20,21
 585 1159 585 1159 336 1046 c 1,22,-1
 331 1053 l 1,23,24
 436 1183 436 1183 463 1312 c 0,25,26
 468 1336 468 1336 468 1359 c 0,27,28
 468 1456 468 1456 373 1520 c 1,29,-1
 560 1600 l 1,15,-1
EndSplineSet
Validated: 1
EndChar

StartChar: quotedblbase
Encoding: 8222 8222 137
Width: 688
GlyphClass: 2
Flags: W
HStem: -276 554
VStem: 187 166<-64.7295 154.218> 486 166<-64.7295 154.218>
LayerCount: 2
Fore
SplineSet
578 278 m 1,0,-1
 588 278 l 1,1,2
 652 198 652 198 652 101 c 0,3,4
 652 68 652 68 645 34 c 0,5,6
 603 -163 603 -163 354 -276 c 1,7,-1
 349 -269 l 1,8,9
 454 -139 454 -139 481 -10 c 0,10,11
 486 14 486 14 486 37 c 0,12,13
 486 134 486 134 391 198 c 1,14,-1
 578 278 l 1,0,-1
279 278 m 1,15,-1
 289 278 l 1,16,17
 353 198 353 198 353 101 c 0,18,19
 353 68 353 68 346 34 c 0,20,21
 304 -163 304 -163 55 -276 c 1,22,-1
 50 -269 l 1,23,24
 155 -139 155 -139 182 -10 c 0,25,26
 187 14 187 14 187 37 c 0,27,28
 187 134 187 134 92 198 c 1,29,-1
 279 278 l 1,15,-1
EndSplineSet
Validated: 1
EndChar

StartChar: dagger
Encoding: 8224 8224 138
Width: 1214
GlyphClass: 2
Flags: W
HStem: -20 21G<503 559.444> 1088 90<438 738 957 1257> 1510 20G<975.556 1032>
DStem2: 503 -20 702.87 -20 0.207912 0.978148<133.566 1132.65 1266.21 1492.55>
LayerCount: 2
Fore
SplineSet
513 -20 m 1,0,-1
 503 -20 l 1,1,-1
 738 1088 l 1,2,-1
 381 1088 l 1,3,-1
 383 1098 l 1,4,-1
 438 1178 l 1,5,-1
 757 1178 l 1,6,-1
 813 1440 l 1,7,-1
 1022 1530 l 1,8,-1
 1032 1530 l 1,9,-1
 957 1178 l 1,10,-1
 1314 1178 l 1,11,-1
 1312 1168 l 1,12,-1
 1257 1088 l 1,13,-1
 938 1088 l 1,14,-1
 722 70 l 1,15,-1
 513 -20 l 1,0,-1
EndSplineSet
Validated: 1
EndChar

StartChar: daggerdbl
Encoding: 8225 8225 139
Width: 1214
GlyphClass: 2
Flags: W
HStem: -20 21G<503 559.444> 332 90<278 578 797 1097> 1088 90<438 738 957 1257> 1510 20G<975.556 1032>
DStem2: 503 -20 702.87 -20 0.207912 0.978148<133.566 359.901 493.467 1132.65 1266.21 1492.55>
LayerCount: 2
Fore
SplineSet
513 -20 m 1,0,-1
 503 -20 l 1,1,-1
 578 332 l 1,2,-1
 221 332 l 1,3,-1
 223 342 l 1,4,-1
 278 422 l 1,5,-1
 597 422 l 1,6,-1
 738 1088 l 1,7,-1
 381 1088 l 1,8,-1
 383 1098 l 1,9,-1
 438 1178 l 1,10,-1
 757 1178 l 1,11,-1
 813 1440 l 1,12,-1
 1022 1530 l 1,13,-1
 1032 1530 l 1,14,-1
 957 1178 l 1,15,-1
 1314 1178 l 1,16,-1
 1312 1168 l 1,17,-1
 1257 1088 l 1,18,-1
 938 1088 l 1,19,-1
 797 422 l 1,20,-1
 1154 422 l 1,21,-1
 1152 412 l 1,22,-1
 1097 332 l 1,23,-1
 778 332 l 1,24,-1
 722 70 l 1,25,-1
 513 -20 l 1,0,-1
EndSplineSet
Validated: 1
EndChar

StartChar: bullet
Encoding: 8226 8226 140
Width: 900
GlyphClass: 2
Flags: W
HStem: 450 610<415.663 805.337>
VStem: 280 661
LayerCount: 2
Fore
SplineSet
551 1060 m 2,0,-1
 759 1060 l 2,1,2
 941 1060 941 1060 941 923 c 0,3,4
 941 897 941 897 934 866 c 2,5,-1
 887 644 l 2,6,7
 846 450 846 450 670 450 c 2,8,-1
 462 450 l 2,9,10
 280 450 280 450 280 587 c 0,11,12
 280 613 280 613 287 644 c 2,13,-1
 334 866 l 2,14,15
 375 1060 375 1060 551 1060 c 2,0,-1
EndSplineSet
Validated: 1
EndChar

StartChar: ellipsis
Encoding: 8230 8230 141
Width: 1012
GlyphClass: 2
Flags: W
HStem: -20 245<116.901 267.42 452.901 603.42 788.901 939.42>
VStem: 69 246<27.5918 176.764> 405 246<27.5918 176.764> 741 246<27.5918 176.764>
CounterMasks: 1 70
LayerCount: 2
Fore
SplineSet
838 -20 m 0,0,1
 786 -20 786 -20 760 16 c 0,2,3
 741 42 741 42 741 75 c 0,4,5
 741 88 741 88 744 102 c 0,6,7
 755 152 755 152 797.5 188.5 c 128,-1,8
 840 225 840 225 890 225 c 128,-1,9
 940 225 940 225 968 189 c 0,10,11
 987 165 987 165 987 130 c 0,12,13
 987 116 987 116 984 102 c 0,14,15
 973 52 973 52 930.5 16 c 128,-1,16
 888 -20 888 -20 838 -20 c 0,0,1
502 -20 m 0,17,18
 450 -20 450 -20 424 16 c 0,19,20
 405 42 405 42 405 75 c 0,21,22
 405 88 405 88 408 102 c 0,23,24
 419 152 419 152 461.5 188.5 c 128,-1,25
 504 225 504 225 554 225 c 128,-1,26
 604 225 604 225 632 189 c 0,27,28
 651 165 651 165 651 130 c 0,29,30
 651 116 651 116 648 102 c 0,31,32
 637 52 637 52 594.5 16 c 128,-1,33
 552 -20 552 -20 502 -20 c 0,17,18
166 -20 m 0,34,35
 114 -20 114 -20 88 16 c 0,36,37
 69 42 69 42 69 75 c 0,38,39
 69 88 69 88 72 102 c 0,40,41
 83 152 83 152 125.5 188.5 c 128,-1,42
 168 225 168 225 218 225 c 128,-1,43
 268 225 268 225 296 189 c 0,44,45
 315 165 315 165 315 130 c 0,46,47
 315 116 315 116 312 102 c 0,48,49
 301 52 301 52 258.5 16 c 128,-1,50
 216 -20 216 -20 166 -20 c 0,34,35
EndSplineSet
Validated: 1
EndChar

StartChar: perthousand
Encoding: 8240 8240 142
Width: 2220
GlyphClass: 2
Flags: W
HStem: -20 21G<444.284 504.756> 0 66<965.412 1267.83 1638.41 1940.83> 544 66<1055.91 1358.33 1728.91 2031.33> 900 66<509.673 812.092> 1444 66<600.17 902.588> 1510 20G<1363.26 1424.01>
VStem: 376 133<966.865 1217.84> 831 134<66.8654 317.844> 903 134<1192.16 1443.13> 1359 133<292.156 543.135> 1504 134<66.8654 317.844> 2032 133<292.156 543.135>
DStem2: 146.212 -20 290.791 -20 0.207912 0.978148<1082.47 1523.67> 358 47 491 -20 0.566694 0.823928<20.1671 1799.35> 600.445 -20 746.024 -20 0.207912 0.978148<1011.28 1452.53> 792.513 -20 938.092 -20 0.207912 0.978148<162.367 603.615> 1247.75 -20 1392.33 -20 0.207912 0.978148<91.0178 532.214> 1465.51 -20 1611.09 -20 0.207912 0.978148<162.367 603.615> 1920.75 -20 2065.33 -20 0.207912 0.978148<91.0178 532.214>
LayerCount: 2
Fore
SplineSet
1679 66 m 2,0,-1
 1889 66 l 2,1,2
 1939 66 1939 66 1950 116 c 2,3,-1
 2030 494 l 2,4,5
 2032 503 2032 503 2032 510 c 0,6,7
 2032 544 2032 544 1991 544 c 2,8,-1
 1781 544 l 2,9,10
 1731 544 1731 544 1720 494 c 2,11,-1
 1640 116 l 2,12,13
 1638 107 1638 107 1638 100 c 0,14,15
 1638 66 1638 66 1679 66 c 2,0,-1
1894 0 m 2,16,-1
 1686 0 l 2,17,18
 1504 0 1504 0 1504 137 c 0,19,20
 1504 163 1504 163 1511 194 c 2,21,-1
 1558 416 l 2,22,23
 1599 610 1599 610 1776 610 c 2,24,-1
 1984 610 l 2,25,26
 2165 610 2165 610 2165 473 c 0,27,28
 2165 447 2165 447 2158 416 c 2,29,-1
 2111 194 l 2,30,31
 2070 0 2070 0 1894 0 c 2,16,-1
1006 66 m 2,32,-1
 1216 66 l 2,33,34
 1266 66 1266 66 1277 116 c 2,35,-1
 1357 494 l 2,36,37
 1359 503 1359 503 1359 510 c 0,38,39
 1359 544 1359 544 1318 544 c 2,40,-1
 1108 544 l 2,41,42
 1058 544 1058 544 1047 494 c 2,43,-1
 967 116 l 2,44,45
 965 107 965 107 965 100 c 0,46,47
 965 66 965 66 1006 66 c 2,32,-1
862 1444 m 2,48,-1
 652 1444 l 2,49,50
 602 1444 602 1444 591 1394 c 2,51,-1
 511 1016 l 2,52,53
 509 1007 509 1007 509 1000 c 0,54,55
 509 966 509 966 550 966 c 2,56,-1
 760 966 l 2,57,58
 810 966 810 966 821 1016 c 2,59,-1
 901 1394 l 2,60,61
 903 1403 903 1403 903 1410 c 0,62,63
 903 1444 903 1444 862 1444 c 2,48,-1
481 -20 m 1,64,-1
 358 47 l 1,65,-1
 1377 1530 l 1,66,-1
 1387 1530 l 1,67,-1
 1511 1463 l 1,68,-1
 491 -20 l 1,69,-1
 481 -20 l 1,64,-1
1221 0 m 2,70,-1
 1013 0 l 2,71,72
 831 0 831 0 831 137 c 0,73,74
 831 163 831 163 838 194 c 2,75,-1
 885 416 l 2,76,77
 926 610 926 610 1103 610 c 2,78,-1
 1311 610 l 2,79,80
 1492 610 1492 610 1492 473 c 0,81,82
 1492 447 1492 447 1485 416 c 2,83,-1
 1438 194 l 2,84,85
 1397 0 1397 0 1221 0 c 2,70,-1
647 1510 m 2,86,-1
 855 1510 l 2,87,88
 1037 1510 1037 1510 1037 1373 c 0,89,90
 1037 1347 1037 1347 1030 1316 c 2,91,-1
 983 1094 l 2,92,93
 942 900 942 900 765 900 c 2,94,-1
 557 900 l 2,95,96
 376 900 376 900 376 1037 c 0,97,98
 376 1063 376 1063 383 1094 c 2,99,-1
 430 1316 l 2,100,101
 471 1510 471 1510 647 1510 c 2,86,-1
1511 1463 m 1025,102,-1
EndSplineSet
Validated: 1
EndChar

StartChar: minute
Encoding: 8242 8242 143
Width: 414
GlyphClass: 2
Flags: W
HStem: 1201 399
VStem: 315 374
LayerCount: 2
Fore
SplineSet
541 1600 m 1,0,-1
 551 1600 l 1,1,-1
 689 1527 l 1,2,-1
 409 1201 l 1,3,-1
 399 1201 l 1,4,-1
 315 1245 l 1,5,-1
 541 1600 l 1,0,-1
EndSplineSet
Validated: 1
EndChar

StartChar: second
Encoding: 8243 8243 144
Width: 667
GlyphClass: 2
Flags: W
HStem: 1201 399
VStem: 315 627
LayerCount: 2
Fore
SplineSet
794 1600 m 1,0,-1
 804 1600 l 1,1,-1
 942 1527 l 1,2,-1
 662 1201 l 1,3,-1
 652 1201 l 1,4,-1
 568 1245 l 1,5,-1
 794 1600 l 1,0,-1
541 1600 m 1,6,-1
 551 1600 l 1,7,-1
 689 1527 l 1,8,-1
 409 1201 l 1,9,-1
 399 1201 l 1,10,-1
 315 1245 l 1,11,-1
 541 1600 l 1,6,-1
EndSplineSet
Validated: 1
EndChar

StartChar: guilsinglleft
Encoding: 8249 8249 145
Width: 748
GlyphClass: 2
Flags: W
VStem: 310 467
DStem2: 310 755 458 818 0.625082 0.780559<141.687 630.317> 458 818 310 755 0.355733 -0.934588<6.23058 475.076>
LayerCount: 2
Fore
SplineSet
310 755 m 1,0,-1
 704 1247 l 1,1,-1
 714 1247 l 1,2,-1
 777 1213 l 1,3,-1
 458 818 l 1,4,-1
 627 374 l 1,5,-1
 487 313 l 1,6,-1
 477 313 l 1,7,-1
 310 755 l 1,0,-1
EndSplineSet
Validated: 1
EndChar

StartChar: guilsinglright
Encoding: 8250 8250 146
Width: 798
GlyphClass: 2
Flags: W
VStem: 291 467
DStem2: 291 297 364 263 0.625082 0.780559<19.092 507.722> 591 1197 441 1136 0.355733 -0.934588<3.64994 472.495>
LayerCount: 2
Fore
SplineSet
758 755 m 1,0,-1
 364 263 l 1,1,-1
 354 263 l 1,2,-1
 291 297 l 1,3,-1
 610 692 l 1,4,-1
 441 1136 l 1,5,-1
 581 1197 l 1,6,-1
 591 1197 l 1,7,-1
 758 755 l 1,0,-1
EndSplineSet
Validated: 1
EndChar

StartChar: fraction
Encoding: 8260 8260 147
Width: 872
GlyphClass: 2
Flags: W
HStem: -20 21G<106.284 166.756> 1510 20G<1025.26 1086.01>
DStem2: 20 47 153 -20 0.566694 0.823928<20.1671 1799.35>
LayerCount: 2
Fore
SplineSet
143 -20 m 1,0,-1
 20 47 l 1,1,-1
 1039 1530 l 1,2,-1
 1049 1530 l 1,3,-1
 1173 1463 l 1,4,-1
 153 -20 l 1,5,-1
 143 -20 l 1,0,-1
EndSplineSet
Validated: 1
EndChar

StartChar: Euro
Encoding: 8364 8364 148
Width: 1400
GlyphClass: 2
Flags: W
HStem: 0 90<525.328 1034.14> 595 90<264 386 616 1058> 795 90<306 429 658 1101> 1420 90<796.555 1294.32>
VStem: 322 192<104.651 293.813> 1312 186<1142.88 1404.49>
DStem2: 259.605 0 470.112 0 0.207912 0.978148<252.193 608.277 744.13 812.847 948.492 1405.97> 1035.11 0 1249.61 0 0.207912 0.978148<182.441 384.393 1216.45 1327.14>
LayerCount: 2
Fore
SplineSet
920 0 m 2,0,-1
 630 0 l 2,1,2
 322 0 322 0 322 243 c 0,3,4
 322 293 322 293 334 350 c 2,5,-1
 386 595 l 1,6,-1
 206 595 l 1,7,-1
 209 605 l 1,8,-1
 264 685 l 1,9,-1
 406 685 l 1,10,-1
 429 795 l 1,11,-1
 249 795 l 1,12,-1
 251 805 l 1,13,-1
 306 885 l 1,14,-1
 448 885 l 1,15,-1
 507 1160 l 2,16,17
 582 1510 582 1510 911 1510 c 2,18,-1
 1201 1510 l 2,19,20
 1498 1510 1498 1510 1498 1260 c 0,21,22
 1498 1209 1498 1209 1485 1148 c 1,23,-1
 1269 1055 l 1,24,-1
 1259 1055 l 1,25,-1
 1307 1280 l 2,26,27
 1312 1303 1312 1303 1312 1325 c 0,28,29
 1312 1420 1312 1420 1197 1420 c 2,30,-1
 912 1420 l 2,31,32
 772 1420 772 1420 742 1280 c 2,33,-1
 658 885 l 1,34,-1
 1158 885 l 1,35,-1
 1156 875 l 1,36,-1
 1101 795 l 1,37,-1
 639 795 l 1,38,-1
 616 685 l 1,39,-1
 1116 685 l 1,40,-1
 1113 675 l 1,41,-1
 1058 595 l 1,42,-1
 596 595 l 1,43,-1
 519 230 l 2,44,45
 514 206 514 206 514 185 c 0,46,47
 514 90 514 90 629 90 c 2,48,-1
 914 90 l 2,49,50
 1054 90 1054 90 1084 230 c 2,51,-1
 1115 376 l 1,52,-1
 1341 474 l 1,53,-1
 1351 474 l 1,54,-1
 1324 350 l 2,55,56
 1248 0 1248 0 920 0 c 2,0,-1
EndSplineSet
Validated: 1
EndChar

StartChar: afii61248
Encoding: 8453 8453 149
Width: 1613
GlyphClass: 2
Flags: W
HStem: -20 21G<471.284 531.756> 0 71<1087.43 1336.65> 724 71<477.619 713.504 1212.35 1461.57> 1450 71<597.974 836.293>
VStem: 338 135<797.634 1046.46> 838 126<1300.63 1448.56> 951 135<71.9032 320.461> 1463 135<474.539 723.097>
DStem2: 145.197 -20 290.713 -20 0.207912 0.978148<901.683 1531.74> 385 47 518 -20 0.566694 0.823928<20.1671 1799.35> 535.033 -20 679.984 -20 0.207912 0.978148<833.2 990.648 1383.92 1461.59> 912.513 -20 1058.03 -20 0.207912 0.978148<160.442 789.616> 1313.49 -20 1459 -20 0.207912 0.978148<94.2935 723.467>
LayerCount: 2
Fore
SplineSet
1422 724 m 2,0,-1
 1266 724 l 2,1,2
 1216 724 1216 724 1205 674 c 2,3,-1
 1088 121 l 2,4,5
 1086 112 1086 112 1086 105 c 0,6,7
 1086 71 1086 71 1127 71 c 2,8,-1
 1283 71 l 2,9,10
 1333 71 1333 71 1344 121 c 2,11,-1
 1461 674 l 2,12,13
 1463 683 1463 683 1463 690 c 0,14,15
 1463 724 1463 724 1422 724 c 2,0,-1
657 1521 m 2,16,-1
 803 1521 l 2,17,18
 964 1521 964 1521 964 1384 c 0,19,20
 964 1354 964 1354 956 1319 c 2,21,-1
 953 1306 l 1,22,-1
 815 1254 l 1,23,-1
 805 1254 l 1,24,-1
 836 1400 l 2,25,26
 838 1409 838 1409 838 1416 c 0,27,28
 838 1450 838 1450 797 1450 c 2,29,-1
 653 1450 l 2,30,31
 603 1450 603 1450 592 1400 c 2,32,-1
 475 847 l 2,33,34
 473 838 473 838 473 831 c 0,35,36
 473 797 473 797 514 797 c 2,37,-1
 658 797 l 2,38,39
 708 797 708 797 719 847 c 2,40,-1
 741 949 l 1,41,-1
 887 1003 l 1,42,-1
 897 1003 l 1,43,-1
 880 921 l 2,44,45
 840 726 840 726 654 726 c 2,46,-1
 508 726 l 2,47,48
 338 726 338 726 338 860 c 0,49,50
 338 887 338 887 345 920 c 2,51,-1
 432 1327 l 2,52,53
 473 1521 473 1521 657 1521 c 2,16,-1
508 -20 m 1,54,-1
 385 47 l 1,55,-1
 1404 1530 l 1,56,-1
 1414 1530 l 1,57,-1
 1538 1463 l 1,58,-1
 518 -20 l 1,59,-1
 508 -20 l 1,54,-1
1277 0 m 2,60,-1
 1123 0 l 2,61,62
 951 0 951 0 951 135 c 0,63,64
 951 162 951 162 958 194 c 2,65,-1
 1045 601 l 2,66,67
 1086 795 1086 795 1272 795 c 2,68,-1
 1426 795 l 2,69,70
 1598 795 1598 795 1598 660 c 0,71,72
 1598 633 1598 633 1591 601 c 2,73,-1
 1504 194 l 2,74,75
 1463 0 1463 0 1277 0 c 2,60,-1
EndSplineSet
Validated: 1
EndChar

StartChar: afii61289
Encoding: 8467 8467 150
Width: 958
GlyphClass: 2
Flags: W
HStem: -20 136<493.285 609.793> 0 21G<50 267.222> 1510 20G<957 1028>
LayerCount: 2
Fore
SplineSet
486 466 m 1,0,1
 648 708 648 708 737 860 c 0,2,3
 896 1134 896 1134 944 1359 c 1,4,5
 826 1238 826 1238 730 1067 c 0,6,7
 544 740 544 740 486 466 c 1,0,1
50 0 m 1,8,9
 205 158 205 158 304 282 c 1,10,11
 310 366 310 366 326 443 c 0,12,13
 366 629 366 629 459 848 c 0,14,15
 633 1251 633 1251 822 1434 c 0,16,17
 920 1530 920 1530 994 1530 c 0,18,19
 1062 1530 1062 1530 1086 1479 c 0,20,21
 1099 1453 1099 1453 1099 1410 c 0,22,23
 1099 1371 1099 1371 1088 1318 c 0,24,25
 1068 1226 1068 1226 1006 1072 c 0,26,27
 862 722 862 722 480 271 c 1,28,29
 480 116 480 116 536 116 c 0,30,31
 560 116 560 116 593.5 145 c 128,-1,32
 627 174 627 174 664 228 c 1,33,-1
 840 228 l 1,34,35
 736 100 736 100 659 40 c 128,-1,36
 582 -20 582 -20 498 -20 c 0,37,38
 378 -20 378 -20 324 90 c 1,39,-1
 251 0 l 1,40,-1
 50 0 l 1,8,9
EndSplineSet
Validated: 1
EndChar

StartChar: trademark
Encoding: 8482 8482 151
Width: 1778
GlyphClass: 2
Flags: W
HStem: 1459 71<454 623 763 947 1123.99 1383.87 1528.23 1788.08>
VStem: 1789 130<1342.32 1457.19>
DStem2: 465 716 605.16 716 0.207912 0.978148<81.2802 759.614> 830 716 969.735 716 0.207912 0.978148<83.2365 788.071> 1235 716 1374.73 716 0.207912 0.978148<83.2365 724.271> 1640 716 1779.73 716 0.207912 0.978148<83.2365 721.312>
LayerCount: 2
Fore
SplineSet
1188 1530 m 2,0,-1
 1343 1530 l 2,1,2
 1421 1530 1421 1530 1461 1497 c 1,3,4
 1517 1530 1517 1530 1593 1530 c 2,5,-1
 1748 1530 l 2,6,7
 1919 1530 1919 1530 1919 1395 c 0,8,9
 1919 1367 1919 1367 1912 1334 c 2,10,-1
 1791 769 l 1,11,-1
 1650 716 l 1,12,-1
 1640 716 l 1,13,-1
 1787 1409 l 2,14,15
 1789 1418 1789 1418 1789 1425 c 0,16,17
 1789 1459 1789 1459 1748 1459 c 2,18,-1
 1583 1459 l 2,19,20
 1533 1459 1533 1459 1522 1409 c 2,21,-1
 1386 769 l 1,22,-1
 1245 716 l 1,23,-1
 1235 716 l 1,24,-1
 1382 1409 l 2,25,26
 1384 1418 1384 1418 1384 1425 c 0,27,28
 1384 1459 1384 1459 1343 1459 c 2,29,-1
 1178 1459 l 2,30,31
 1128 1459 1128 1459 1117 1409 c 2,32,-1
 981 769 l 1,33,-1
 840 716 l 1,34,-1
 830 716 l 1,35,-1
 962 1334 l 2,36,37
 1004 1530 1004 1530 1188 1530 c 2,0,-1
454 1530 m 1,38,-1
 991 1530 l 1,39,-1
 989 1520 l 1,40,-1
 947 1459 l 1,41,-1
 763 1459 l 1,42,-1
 616 767 l 1,43,-1
 475 716 l 1,44,-1
 465 716 l 1,45,-1
 623 1459 l 1,46,-1
 410 1459 l 1,47,-1
 412 1469 l 1,48,-1
 454 1530 l 1,38,-1
EndSplineSet
Validated: 1
EndChar

StartChar: uni2126
Encoding: 8486 8486 152
Width: 1410
GlyphClass: 2
Flags: W
HStem: 0 329<511.23 608 872 979.875> 0 90<257 465 983 1172> 1420 90<727.824 1266.01>
VStem: 312 188<343.896 534.686> 1282 188<1214.31 1405.78>
DStem2: 199.804 0 405.311 0 0.207912 0.978148<492.413 1405.92> 1005.31 0 1209.8 0 0.207912 0.978148<427.933 1335.4>
LayerCount: 2
Fore
SplineSet
608 0 m 1,0,-1
 200 0 l 1,1,-1
 202 10 l 1,2,-1
 257 90 l 1,3,-1
 465 90 l 1,4,-1
 499 248 l 1,5,6
 312 287 312 287 312 478 c 0,7,8
 312 528 312 528 325 589 c 2,9,-1
 447 1160 l 2,10,11
 522 1510 522 1510 851 1510 c 2,12,-1
 1161 1510 l 2,13,14
 1470 1510 1470 1510 1470 1268 c 0,15,16
 1470 1219 1470 1219 1457 1160 c 2,17,-1
 1335 589 l 2,18,19
 1273 297 1273 297 1017 248 c 1,20,-1
 983 90 l 1,21,-1
 1229 90 l 1,22,-1
 1227 80 l 1,23,-1
 1172 0 l 1,24,-1
 802 0 l 1,25,-1
 872 329 l 1,26,-1
 935 329 l 2,27,28
 1075 329 1075 329 1105 469 c 2,29,-1
 1277 1280 l 2,30,31
 1282 1305 1282 1305 1282 1325 c 0,32,33
 1282 1420 1282 1420 1167 1420 c 2,34,-1
 847 1420 l 2,35,36
 707 1420 707 1420 677 1280 c 2,37,-1
 505 469 l 2,38,39
 500 444 500 444 500 424 c 0,40,41
 500 329 500 329 615 329 c 2,42,-1
 678 329 l 1,43,-1
 608 0 l 1,0,-1
EndSplineSet
Validated: 1
EndChar

StartChar: estimated
Encoding: 8494 8494 153
Width: 1330
GlyphClass: 2
Flags: W
HStem: -20 92<474.816 877.904> 525 80<477 1112> 1036 84<679.003 1065.2>
LayerCount: 2
Fore
SplineSet
1147 204 m 1,0,1
 1056 113 1056 113 961 61 c 0,2,3
 813 -20 813 -20 661 -20 c 0,4,5
 405 -20 405 -20 286 139 c 0,6,7
 201 252 201 252 201 407 c 0,8,9
 201 474 201 474 217 550 c 0,10,11
 268 788 268 788 451 952 c 24,12,13
 640 1120 640 1120 904 1120 c 0,14,15
 1153 1120 1153 1120 1269 964 c 272,16,17
 1359 843 1359 843 1359 677 c 0,18,19
 1359 605 1359 605 1342 525 c 1,20,-1
 460 525 l 1,21,-1
 389 192 l 1,22,23
 474 72 474 72 681 72 c 256,24,25
 804 72 804 72 908 132 c 0,26,27
 1001 186 1001 186 1068 266 c 1,28,-1
 1147 204 l 1,0,1
477 605 m 1,29,-1
 1112 605 l 1,30,-1
 1175 903 l 1,31,32
 1072 1036 1072 1036 886 1036 c 0,33,34
 695 1036 695 1036 542 914 c 1,35,-1
 477 605 l 1,29,-1
EndSplineSet
Validated: 1
EndChar

StartChar: partialdiff
Encoding: 8706 8706 154
Width: 1285
GlyphClass: 2
Flags: W
HStem: -20 153<436.608 700.456> 870 170<722.652 999.863> 1378 152<776.721 1116.12>
VStem: 215 190<165.92 478.052> 1176 187<906.621 1315.43>
LayerCount: 2
Fore
SplineSet
528 -20 m 0,0,1
 215 -20 215 -20 215 245 c 0,2,3
 215 303 215 303 230 375 c 0,4,5
 284 631 284 631 459 815 c 0,6,7
 675 1040 675 1040 893 1040 c 0,8,9
 1064 1040 1064 1040 1142 898 c 1,10,11
 1176 1073 1176 1073 1176 1170 c 0,12,13
 1176 1212 1176 1212 1170 1239 c 0,14,15
 1139 1378 1139 1378 971 1378 c 0,16,17
 840 1378 840 1378 695 1294 c 1,18,-1
 732 1468 l 1,19,20
 879 1530 879 1530 1028 1530 c 0,21,22
 1363 1530 1363 1530 1363 1174 c 0,23,24
 1363 1069 1363 1069 1334 934 c 0,25,26
 1251 545 1251 545 1032.5 262.5 c 128,-1,27
 814 -20 814 -20 528 -20 c 0,0,1
553 133 m 0,28,29
 691 133 691 133 833 286 c 128,-1,30
 975 439 975 439 1065 680 c 1,31,32
 1061 765 1061 765 1008.5 817.5 c 128,-1,33
 956 870 956 870 880 870 c 0,34,35
 720 870 720 870 587.5 710 c 128,-1,36
 455 550 455 550 416 369 c 0,37,38
 405 319 405 319 405 280 c 0,39,40
 405 133 405 133 553 133 c 0,28,29
EndSplineSet
Validated: 1
EndChar

StartChar: uni2206
Encoding: 8710 8710 155
Width: 1331
GlyphClass: 2
Flags: W
HStem: 0 90<165 1110>
DStem2: 5 0 165 90 0.509835 0.860272<158.998 1612.13> 1075 1550 906 1340 0.159853 -0.987141<180.284 1446.82>
LayerCount: 2
Fore
SplineSet
5 0 m 1,0,-1
 875 1468 l 1,1,-1
 1065 1550 l 1,2,-1
 1075 1550 l 1,3,-1
 1326 0 l 1,4,-1
 5 0 l 1,0,-1
165 90 m 1,5,-1
 1110 90 l 1,6,-1
 906 1340 l 1,7,-1
 165 90 l 1,5,-1
EndSplineSet
Validated: 1
EndChar

StartChar: product
Encoding: 8719 8719 156
Width: 1400
GlyphClass: 2
Flags: W
HStem: -430 21G<109 165.444 909 965.444> 1420 90<702 1302>
DStem2: 109 -430 308.87 -430 0.207912 0.978148<133.566 1932.07> 909 -430 1108.87 -430 0.207912 0.978148<133.566 1891.28>
LayerCount: 2
Fore
SplineSet
119 -430 m 1,0,-1
 109 -430 l 1,1,-1
 510 1460 l 1,2,-1
 627 1510 l 1,3,-1
 1521 1510 l 1,4,-1
 1128 -340 l 1,5,-1
 919 -430 l 1,6,-1
 909 -430 l 1,7,-1
 1302 1420 l 1,8,-1
 702 1420 l 1,9,-1
 328 -340 l 1,10,-1
 119 -430 l 1,0,-1
EndSplineSet
Validated: 1
EndChar

StartChar: summation
Encoding: 8721 8721 157
Width: 1203
GlyphClass: 2
Flags: W
HStem: -410 90<300 928> 1420 90<638 1297>
DStem2: 638 1420 411 1460 0.318189 -0.948027<0 807.545>
LayerCount: 2
Fore
SplineSet
13 -410 m 1,0,-1
 703 590 l 1,1,-1
 411 1460 l 1,2,-1
 528 1510 l 1,3,-1
 1354 1510 l 1,4,-1
 1352 1500 l 1,5,-1
 1297 1420 l 1,6,-1
 638 1420 l 1,7,-1
 936 574 l 1,8,-1
 300 -320 l 1,9,-1
 985 -320 l 1,10,-1
 983 -330 l 1,11,-1
 928 -410 l 1,12,-1
 13 -410 l 1,0,-1
EndSplineSet
Validated: 1
EndChar

StartChar: minus
Encoding: 8722 8722 158
Width: 1200
GlyphClass: 2
Flags: W
HStem: 680 150<392 1129>
LayerCount: 2
Fore
SplineSet
392 830 m 5,0,-1
 1226 830 l 5,1,-1
 1224 820 l 5,2,-1
 1129 680 l 5,3,-1
 295 680 l 5,4,-1
 297 690 l 5,5,-1
 392 830 l 5,0,-1
EndSplineSet
Validated: 1
EndChar

StartChar: uni2215
Encoding: 8725 8725 159
Width: 872
GlyphClass: 2
Flags: W
HStem: -20 21G<106.284 166.756> 1510 20G<1025.26 1086.01>
DStem2: 20 47 153 -20 0.566694 0.823928<20.1671 1799.35>
LayerCount: 2
Fore
SplineSet
143 -20 m 1,0,-1
 20 47 l 1,1,-1
 1039 1530 l 1,2,-1
 1049 1530 l 1,3,-1
 1173 1463 l 1,4,-1
 153 -20 l 1,5,-1
 143 -20 l 1,0,-1
EndSplineSet
Validated: 1
EndChar

StartChar: uni2219
Encoding: 8729 8729 160
Width: 340
GlyphClass: 2
Flags: W
HStem: 632 245<254.711 405.42>
VStem: 207 246<679.592 828.764>
LayerCount: 2
Fore
SplineSet
356 877 m 0,0,1
 408 877 408 877 434 841 c 0,2,3
 453 816 453 816 453 782 c 0,4,5
 453 768 453 768 450 754 c 0,6,7
 439 704 439 704 396.5 668 c 128,-1,8
 354 632 354 632 304 632 c 128,-1,9
 254 632 254 632 226 668 c 0,10,11
 207 693 207 693 207 727 c 0,12,13
 207 740 207 740 210 754 c 0,14,15
 221 804 221 804 263.5 840.5 c 128,-1,16
 306 877 306 877 356 877 c 0,0,1
EndSplineSet
Validated: 1
EndChar

StartChar: radical
Encoding: 8730 8730 161
Width: 1093
GlyphClass: 2
Flags: W
HStem: -20 21G<315.071 374.4> 1510 20G<1259.23 1318.14>
DStem2: 374 806 207 738 0.144893 -0.989447<43.0853 653.213> 464 159 502 55 0.513262 0.858232<0 1590.84>
LayerCount: 2
Fore
SplineSet
318 -20 m 1,0,-1
 207 738 l 1,1,-1
 364 806 l 1,2,-1
 374 806 l 1,3,-1
 464 159 l 1,4,-1
 1271 1530 l 1,5,-1
 1281 1530 l 1,6,-1
 1359 1488 l 1,7,-1
 502 55 l 1,8,-1
 328 -20 l 1,9,-1
 318 -20 l 1,0,-1
EndSplineSet
Validated: 1
EndChar

StartChar: infinity
Encoding: 8734 8734 162
Width: 1360
GlyphClass: 2
Flags: W
HStem: 450 66<415.516 722.275 871.336 1178.14> 994 66<502.855 810.198 958.915 1265.48>
VStem: 280 133<516.618 766.109> 1268 133<743.891 993.382>
DStem2: 245.764 450 390.343 450 0.207912 0.978148<140.943 583.376> 703.343 450 847.343 450 0.207912 0.978148<132.679 520.046> 1161 450 1305.58 450 0.207912 0.978148<70.3111 512.745>
LayerCount: 2
Fore
SplineSet
1226 994 m 2,0,-1
 1013 994 l 2,1,2
 963 994 963 994 953 944 c 2,3,-1
 872 566 l 2,4,5
 870 557 870 557 870 550 c 0,6,7
 870 516 870 516 912 516 c 2,8,-1
 1125 516 l 2,9,10
 1175 516 1175 516 1185 566 c 2,11,-1
 1266 944 l 2,12,13
 1268 952 1268 952 1268 959 c 0,14,15
 1268 994 1268 994 1226 994 c 2,0,-1
769 994 m 2,16,-1
 556 994 l 2,17,18
 506 994 506 994 496 944 c 2,19,-1
 415 566 l 2,20,21
 413 557 413 557 413 550 c 0,22,23
 413 516 413 516 455 516 c 2,24,-1
 668 516 l 2,25,26
 718 516 718 516 728 566 c 2,27,-1
 809 944 l 2,28,29
 811 952 811 952 811 959 c 0,30,31
 811 994 811 994 769 994 c 2,16,-1
556 1060 m 2,32,-1
 764 1060 l 2,33,34
 858 1060 858 1060 899 1029 c 1,35,36
 953 1060 953 1060 1016 1060 c 2,37,-1
 1224 1060 l 2,38,39
 1401 1060 1401 1060 1401 924 c 0,40,41
 1401 898 1401 898 1394 866 c 2,42,-1
 1347 644 l 2,43,44
 1306 450 1306 450 1125 450 c 2,45,-1
 917 450 l 2,46,47
 838 450 838 450 797 481 c 1,48,49
 743 450 743 450 665 450 c 2,50,-1
 457 450 l 2,51,52
 280 450 280 450 280 586 c 0,53,54
 280 612 280 612 287 644 c 2,55,-1
 334 866 l 2,56,57
 375 1060 375 1060 556 1060 c 2,32,-1
EndSplineSet
Validated: 1
EndChar

StartChar: approxequal
Encoding: 8776 8776 163
Width: 1138
GlyphClass: 2
Flags: W
HStem: 376 127<794.669 967.533> 610 127<407.556 580.331> 776 127<879.669 1052.53> 1010 127<492.556 665.331>
LayerCount: 2
Fore
SplineSet
563 737 m 0,0,1
 672 737 672 737 747 610 c 0,2,3
 811 503 811 503 884 503 c 0,4,5
 999 503 999 503 1042 696 c 1,6,-1
 1135 737 l 1,7,-1
 1145 737 l 1,8,9
 1068 376 1068 376 812 376 c 0,10,11
 703 376 703 376 628 503 c 0,12,13
 564 610 564 610 491 610 c 0,14,15
 376 610 376 610 334 417 c 1,16,-1
 240 376 l 1,17,-1
 230 376 l 1,18,19
 307 737 307 737 563 737 c 0,0,1
648 1137 m 0,20,21
 757 1137 757 1137 832 1010 c 0,22,23
 896 903 896 903 969 903 c 0,24,25
 1084 903 1084 903 1127 1096 c 1,26,-1
 1220 1137 l 1,27,-1
 1230 1137 l 1,28,29
 1153 776 1153 776 897 776 c 0,30,31
 788 776 788 776 713 903 c 0,32,33
 649 1010 649 1010 576 1010 c 0,34,35
 461 1010 461 1010 419 817 c 1,36,-1
 325 776 l 1,37,-1
 315 776 l 1,38,39
 392 1137 392 1137 648 1137 c 0,20,21
EndSplineSet
Validated: 1
EndChar

StartChar: notequal
Encoding: 8800 8800 164
Width: 1200
GlyphClass: 2
Flags: W
HStem: 480 150<350 519 730 1086> 880 150<435 790 1002 1171>
DStem2: 308 170 415 166 0.561828 0.827254<56.8066 374.994 617.628 858.151 1101.35 1420.36>
LayerCount: 2
Fore
SplineSet
435 1030 m 1,0,-1
 892 1030 l 1,1,-1
 1106 1345 l 1,2,-1
 1205 1345 l 1,3,-1
 1213 1341 l 1,4,-1
 1002 1030 l 1,5,-1
 1269 1030 l 1,6,-1
 1267 1020 l 1,7,-1
 1171 880 l 1,8,-1
 900 880 l 1,9,-1
 730 630 l 1,10,-1
 1184 630 l 1,11,-1
 1182 620 l 1,12,-1
 1086 480 l 1,13,-1
 628 480 l 1,14,-1
 415 166 l 1,15,-1
 316 166 l 1,16,-1
 308 170 l 1,17,-1
 519 480 l 1,18,-1
 252 480 l 1,19,-1
 254 490 l 1,20,-1
 350 630 l 1,21,-1
 621 630 l 1,22,-1
 790 880 l 1,23,-1
 337 880 l 1,24,-1
 339 890 l 1,25,-1
 435 1030 l 1,0,-1
EndSplineSet
Validated: 1
EndChar

StartChar: lessequal
Encoding: 8804 8804 165
Width: 1315
GlyphClass: 2
Flags: W
HStem: 275 150<306 1107>
DStem2: 513 912 324 818 0.933865 -0.357626<0 749.109> 421 968 513 912 0.945706 0.325023<68.8037 977.047>
LayerCount: 2
Fore
SplineSet
421 968 m 1,0,-1
 1355 1289 l 1,1,-1
 1374 1217 l 1,2,-1
 1372 1207 l 1,3,-1
 513 912 l 1,4,-1
 1251 643 l 1,5,-1
 1249 633 l 1,6,-1
 1157 499 l 1,7,-1
 324 818 l 1,8,-1
 326 828 l 1,9,-1
 421 968 l 1,0,-1
306 425 m 1,10,-1
 1205 425 l 1,11,-1
 1203 415 l 1,12,-1
 1107 275 l 1,13,-1
 208 275 l 1,14,-1
 211 285 l 1,15,-1
 306 425 l 1,10,-1
EndSplineSet
Validated: 1
EndChar

StartChar: greaterequal
Encoding: 8805 8805 166
Width: 1315
GlyphClass: 2
Flags: W
HStem: 275 150<356 1157>
DStem2: 321 571 338 489 0.945706 0.325023<0 908.243> 536 1279 442 1135 0.933865 -0.357626<0 749.109>
LayerCount: 2
Fore
SplineSet
1272 810 m 1,0,-1
 338 489 l 1,1,-1
 319 561 l 1,2,-1
 321 571 l 1,3,-1
 1180 866 l 1,4,-1
 442 1135 l 1,5,-1
 444 1145 l 1,6,-1
 536 1279 l 1,7,-1
 1369 960 l 1,8,-1
 1367 950 l 1,9,-1
 1272 810 l 1,0,-1
356 425 m 1,10,-1
 1255 425 l 1,11,-1
 1253 415 l 1,12,-1
 1157 275 l 1,13,-1
 258 275 l 1,14,-1
 261 285 l 1,15,-1
 356 425 l 1,10,-1
EndSplineSet
Validated: 1
EndChar

StartChar: lozenge
Encoding: 9674 9674 167
Width: 1134
GlyphClass: 2
Flags: W
HStem: -20 21G<554.926 579.531> 1510 20G<875.965 899.605>
DStem2: 257 738 426 806 0.625536 0.780196<158.769 744.264> 426 806 257 738 0.374342 -0.927291<0 628.938> 657 221 563 -20 0.637091 0.770789<0 576.711> 892 1530 792 1263 0.355404 -0.934713<214.028 844.11>
LayerCount: 2
Fore
SplineSet
657 221 m 1,0,-1
 1019 670 l 1,1,-1
 792 1263 l 1,2,-1
 426 806 l 1,3,-1
 657 221 l 1,0,-1
563 -20 m 1,4,-1
 257 738 l 1,5,-1
 892 1530 l 1,6,-1
 1192 741 l 1,7,-1
 563 -20 l 1,4,-1
EndSplineSet
Validated: 1
EndChar

StartChar: Oslash
Encoding: 216 216 168
Width: 1330
Flags: W
HStem: 0 90<442.021 971.695> 1420 90<679.305 1210.12>
DStem2: 151.103 -40 351.948 -40 0.207912 0.978148<307.215 1446.86> 233 -36 340 -40 0.562139 0.827043<56.8407 124.1 308.708 1665.81 1850.42 1917.11> 961.61 -40 1161.1 -40 0.207912 0.978148<220.311 1359.96>
LayerCount: 2
Fore
SplineSet
840 0 m 2,0,-1
 530 0 l 2,1,2
 443 0 443 0 380 19 c 1,3,-1
 340 -40 l 1,4,-1
 241 -40 l 1,5,-1
 233 -36 l 1,6,-1
 298 60 l 1,7,8
 221 120 221 120 221 242 c 0,9,10
 221 291 221 291 234 350 c 2,11,-1
 407 1160 l 2,12,13
 482 1510 482 1510 811 1510 c 2,14,-1
 1121 1510 l 2,15,16
 1208 1510 1208 1510 1270 1491 c 1,17,-1
 1310 1550 l 1,18,-1
 1409 1550 l 1,19,-1
 1418 1546 l 1,20,-1
 1353 1450 l 1,21,22
 1430 1390 1430 1390 1430 1268 c 0,23,24
 1430 1219 1430 1219 1417 1160 c 2,25,-1
 1244 350 l 2,26,27
 1169 0 1169 0 840 0 c 2,0,-1
519 90 m 2,28,-1
 849 90 l 2,29,30
 989 90 989 90 1019 230 c 2,31,-1
 1244 1291 l 1,32,-1
 440 106 l 1,33,34
 469 90 469 90 519 90 c 2,28,-1
407 219 m 1,35,-1
 1211 1403 l 1,36,37
 1183 1420 1183 1420 1132 1420 c 2,38,-1
 802 1420 l 2,39,40
 662 1420 662 1420 632 1280 c 2,41,-1
 407 219 l 1,35,-1
EndSplineSet
Validated: 1
EndChar

StartChar: oslash
Encoding: 248 248 169
Width: 1150
Flags: W
HStem: 0 80<428 820.773> 1020 80<563.227 955.311>
DStem2: 151.982 -40 331.638 -40 0.207912 0.978148<246.731 1079.22> 289 37 346 -40 0.561501 0.827476<-31.7101 0 153.379 1148.18 1301 1332.71> 801.363 -40 981.982 -40 0.207912 0.978148<170.476 997.022>
LayerCount: 2
Fore
SplineSet
447 80 m 2,0,-1
 737 80 l 2,1,2
 827 80 827 80 846 170 c 2,3,-1
 1009 936 l 1,4,-1
 428 81 l 1,5,6
 437 80 437 80 447 80 c 2,0,-1
375 164 m 1,7,-1
 956 1019 l 1,8,9
 947 1020 947 1020 937 1020 c 2,10,-1
 647 1020 l 2,11,12
 557 1020 557 1020 538 930 c 2,13,-1
 375 164 l 1,7,-1
730 0 m 2,14,-1
 460 0 l 2,15,16
 415 0 415 0 378 6 c 1,17,-1
 346 -40 l 1,18,-1
 247 -40 l 1,19,-1
 239 -36 l 1,20,-1
 289 37 l 1,21,22
 210 85 210 85 210 195 c 0,23,24
 210 234 210 234 220 280 c 2,25,-1
 334 820 l 2,26,27
 393 1100 393 1100 654 1100 c 2,28,-1
 924 1100 l 2,29,30
 969 1100 969 1100 1006 1094 c 1,31,-1
 1037 1140 l 1,32,-1
 1136 1140 l 1,33,-1
 1144 1136 l 1,34,-1
 1094 1063 l 1,35,36
 1174 1015 1174 1015 1174 905 c 0,37,38
 1174 866 1174 866 1164 820 c 2,39,-1
 1050 280 l 2,40,41
 991 0 991 0 730 0 c 2,14,-1
EndSplineSet
Validated: 1
EndChar

StartChar: multiply
Encoding: 215 215 170
Width: 1142
Flags: W
HStem: 430 650
DStem2: 304 490 444 430 0.771307 0.636463<69.7952 413.577 583.216 926.998> 583 1080 417 1020 0.61735 -0.786688<0 277.852 416.849 694.7>
LayerCount: 2
Fore
SplineSet
1019 1080 m 1,0,-1
 1153 1027 l 1,1,-1
 1159 1020 l 1,2,-1
 837 755 l 1,3,-1
 1046 490 l 1,4,-1
 1038 483 l 1,5,-1
 880 430 l 1,6,-1
 709 649 l 1,7,-1
 444 430 l 1,8,-1
 310 483 l 1,9,-1
 304 490 l 1,10,-1
 625 755 l 1,11,-1
 417 1020 l 1,12,-1
 425 1027 l 1,13,-1
 583 1080 l 1,14,-1
 754 861 l 1,15,-1
 1019 1080 l 1,0,-1
EndSplineSet
Validated: 1
EndChar

StartChar: divide
Encoding: 247 247 171
Width: 1200
Flags: W
HStem: 306 245<615.58 766.42> 680 150<392 1129> 959 245<754.58 905.42>
VStem: 568 246<353.592 502.764> 707 246<1006.59 1155.76>
CounterMasks: 1 e0
LayerCount: 2
Fore
SplineSet
856 1204 m 0,0,1
 905 1204 905 1204 933 1168 c 0,2,3
 953 1142 953 1142 953 1109 c 0,4,5
 953 1095 953 1095 950 1081 c 0,6,7
 939 1031 939 1031 896.5 995 c 128,-1,8
 854 959 854 959 804 959 c 0,9,10
 755 959 755 959 727 995 c 0,11,12
 707 1021 707 1021 707 1054 c 0,13,14
 707 1067 707 1067 710 1081 c 0,15,16
 721 1131 721 1131 763.5 1167.5 c 128,-1,17
 806 1204 806 1204 856 1204 c 0,0,1
392 830 m 1,18,-1
 1226 830 l 1,19,-1
 1224 820 l 1,20,-1
 1129 680 l 1,21,-1
 295 680 l 1,22,-1
 297 690 l 1,23,-1
 392 830 l 1,18,-1
665 306 m 0,24,25
 616 306 616 306 588 342 c 0,26,27
 568 368 568 368 568 401 c 0,28,29
 568 414 568 414 571 428 c 0,30,31
 582 478 582 478 624.5 514.5 c 128,-1,32
 667 551 667 551 717 551 c 0,33,34
 766 551 766 551 794 515 c 0,35,36
 814 489 814 489 814 456 c 0,37,38
 814 442 814 442 811 428 c 0,39,40
 800 378 800 378 757.5 342 c 128,-1,41
 715 306 715 306 665 306 c 0,24,25
EndSplineSet
Validated: 1
EndChar

StartChar: uni1E02
Encoding: 7682 7682 172
Width: 1250
Flags: W
HStem: 0 90<419 954.75> 791 90<587 1048.64> 1420 90<702 1139.26> 1630 245<902.711 1053.42>
VStem: 855 246<1677.59 1826.76> 1103 200<464.906 775.999 953.324 1065.06> 1157 188<1094.93 1405.15>
DStem2: 200 0 399.87 0 0.207912 0.978148<133.566 850.226 942.21 1472.15> 879.98 0 1080.04 0 0.207912 0.978148<968.851 1352.41> 960.112 0 1169.61 0 0.207912 0.978148<181.593 709.886>
LayerCount: 2
Fore
SplineSet
419 90 m 1,0,-1
 839 90 l 2,1,2
 979 90 979 90 1009 230 c 2,3,-1
 1098 651 l 2,4,5
 1103 676 1103 676 1103 696 c 0,6,7
 1103 791 1103 791 988 791 c 2,8,-1
 568 791 l 1,9,-1
 419 90 l 1,0,-1
587 881 m 1,10,-1
 927 881 l 2,11,12
 1067 881 1067 881 1097 1021 c 2,13,-1
 1152 1280 l 2,14,15
 1157 1305 1157 1305 1157 1325 c 0,16,17
 1157 1420 1157 1420 1042 1420 c 2,18,-1
 702 1420 l 1,19,-1
 587 881 l 1,10,-1
200 0 m 1,20,-1
 506 1440 l 1,21,-1
 669 1510 l 1,22,-1
 1021 1510 l 2,23,24
 1345 1510 1345 1510 1345 1285 c 0,25,26
 1345 1246 1345 1246 1335 1200 c 2,27,-1
 1313 1096 l 2,28,29
 1275 915 1275 915 1165 871 c 1,30,31
 1303 824 1303 824 1303 671 c 0,32,33
 1303 628 1303 628 1292 576 c 2,34,-1
 1244 350 l 2,35,36
 1170 0 1170 0 840 0 c 2,37,-1
 200 0 l 1,20,-1
1004 1875 m 0,38,39
 1056 1875 1056 1875 1082 1839 c 0,40,41
 1101 1814 1101 1814 1101 1780 c 0,42,43
 1101 1766 1101 1766 1098 1752 c 0,44,45
 1087 1702 1087 1702 1044.5 1666 c 128,-1,46
 1002 1630 1002 1630 952 1630 c 128,-1,47
 902 1630 902 1630 874 1666 c 0,48,49
 855 1691 855 1691 855 1725 c 0,50,51
 855 1738 855 1738 858 1752 c 0,52,53
 869 1802 869 1802 911.5 1838.5 c 128,-1,54
 954 1875 954 1875 1004 1875 c 0,38,39
EndSplineSet
Validated: 1
EndChar

StartChar: uni1E03
Encoding: 7683 7683 173
Width: 1170
Flags: W
HStem: 0 80<401.448 833.751> 1020 80<590.594 1016.02> 1220 245<805.711 956.42> 1510 20G<628.827 685>
VStem: 230 163<83.6652 356.531> 758 246<1267.59 1416.76> 1021 173<737.812 1016.33>
DStem2: 180.484 0 359.865 0 0.207912 0.978148<202.228 1081.29 1140.36 1481.27> 819.865 0 1010.48 0 0.207912 0.978148<131.662 961.816>
LayerCount: 2
Fore
SplineSet
667 1020 m 2,0,1
 577 1020 577 1020 558 930 c 2,2,-1
 396 170 l 2,3,4
 393 154 393 154 393 141 c 0,5,6
 393 80 393 80 467 80 c 2,7,-1
 747 80 l 2,8,9
 837 80 837 80 856 170 c 2,10,-1
 1018 930 l 2,11,12
 1021 946 1021 946 1021 959 c 0,13,14
 1021 1020 1021 1020 947 1020 c 2,15,-1
 667 1020 l 2,0,1
480 0 m 2,16,17
 230 0 230 0 230 195 c 0,18,19
 230 234 230 234 240 280 c 2,20,-1
 488 1449 l 1,21,-1
 675 1530 l 1,22,-1
 685 1530 l 1,23,-1
 589 1079 l 1,24,25
 640 1100 640 1100 694 1100 c 2,26,-1
 944 1100 l 2,27,28
 1194 1100 1194 1100 1194 905 c 0,29,30
 1194 866 1194 866 1184 820 c 2,31,-1
 1070 280 l 2,32,33
 1011 0 1011 0 750 0 c 2,34,-1
 480 0 l 2,16,17
907 1465 m 0,35,36
 959 1465 959 1465 985 1429 c 0,37,38
 1004 1404 1004 1404 1004 1370 c 0,39,40
 1004 1356 1004 1356 1001 1342 c 0,41,42
 990 1292 990 1292 947.5 1256 c 128,-1,43
 905 1220 905 1220 855 1220 c 128,-1,44
 805 1220 805 1220 777 1256 c 0,45,46
 758 1281 758 1281 758 1315 c 0,47,48
 758 1328 758 1328 761 1342 c 0,49,50
 772 1392 772 1392 814.5 1428.5 c 128,-1,51
 857 1465 857 1465 907 1465 c 0,35,36
EndSplineSet
Validated: 1
EndChar

StartChar: uni1E0A
Encoding: 7690 7690 174
Width: 1350
Flags: W
HStem: 0 90<419 974.445> 1420 90<702 1238.09> 1630 245<932.711 1083.42>
VStem: 885 246<1677.59 1826.76> 1257 193<1098.12 1406.21>
DStem2: 200 0 399.87 0 0.207912 0.978148<133.566 1472.15> 980.112 0 1189.61 0 0.207912 0.978148<181.497 1336.49>
LayerCount: 2
Fore
SplineSet
419 90 m 1,0,-1
 859 90 l 2,1,2
 999 90 999 90 1029 230 c 2,3,-1
 1252 1280 l 2,4,5
 1257 1305 1257 1305 1257 1325 c 0,6,7
 1257 1420 1257 1420 1142 1420 c 2,8,-1
 702 1420 l 1,9,-1
 419 90 l 1,0,-1
200 0 m 1,10,-1
 506 1440 l 1,11,-1
 669 1510 l 1,12,-1
 1141 1510 l 2,13,14
 1450 1510 1450 1510 1450 1268 c 0,15,16
 1450 1219 1450 1219 1437 1160 c 2,17,-1
 1264 350 l 2,18,19
 1189 0 1189 0 860 0 c 2,20,-1
 200 0 l 1,10,-1
1034 1875 m 0,21,22
 1086 1875 1086 1875 1112 1839 c 0,23,24
 1131 1814 1131 1814 1131 1780 c 0,25,26
 1131 1766 1131 1766 1128 1752 c 0,27,28
 1117 1702 1117 1702 1074.5 1666 c 128,-1,29
 1032 1630 1032 1630 982 1630 c 128,-1,30
 932 1630 932 1630 904 1666 c 0,31,32
 885 1691 885 1691 885 1725 c 0,33,34
 885 1738 885 1738 888 1752 c 0,35,36
 899 1802 899 1802 941.5 1838.5 c 128,-1,37
 984 1875 984 1875 1034 1875 c 0,21,22
EndSplineSet
Validated: 1
EndChar

StartChar: uni1E0B
Encoding: 7691 7691 175
Width: 1170
Flags: W
HStem: 0 80<387.979 820.773> 1020 80<570.249 1007.95> 1220 245<783.711 934.42> 1510 20G<1258.83 1315>
VStem: 210 173<83.6652 362.188> 736 246<1267.59 1416.76>
DStem2: 160.484 0 349.865 0 0.207912 0.978148<202.228 1038.32> 809.865 0 990.484 0 0.207912 0.978148<129.583 979.464 1103.06 1481.4>
LayerCount: 2
Fore
SplineSet
937 1020 m 2,0,-1
 657 1020 l 2,1,2
 567 1020 567 1020 548 930 c 2,3,-1
 386 170 l 2,4,5
 383 154 383 154 383 141 c 0,6,7
 383 80 383 80 457 80 c 2,8,-1
 737 80 l 2,9,10
 827 80 827 80 846 170 c 2,11,-1
 1008 930 l 2,12,13
 1011 946 1011 946 1011 959 c 0,14,15
 1011 1020 1011 1020 937 1020 c 2,0,-1
460 0 m 2,16,17
 210 0 210 0 210 195 c 0,18,19
 210 234 210 234 220 280 c 2,20,-1
 334 820 l 2,21,22
 393 1100 393 1100 654 1100 c 2,23,-1
 924 1100 l 2,24,25
 997 1100 997 1100 1039 1079 c 1,26,-1
 1118 1449 l 1,27,-1
 1305 1530 l 1,28,-1
 1315 1530 l 1,29,-1
 1050 280 l 2,30,31
 991 0 991 0 730 0 c 2,32,-1
 460 0 l 2,16,17
885 1465 m 0,33,34
 937 1465 937 1465 963 1429 c 0,35,36
 982 1404 982 1404 982 1370 c 0,37,38
 982 1356 982 1356 979 1342 c 0,39,40
 968 1292 968 1292 925.5 1256 c 128,-1,41
 883 1220 883 1220 833 1220 c 128,-1,42
 783 1220 783 1220 755 1256 c 0,43,44
 736 1281 736 1281 736 1315 c 0,45,46
 736 1328 736 1328 739 1342 c 0,47,48
 750 1392 750 1392 792.5 1428.5 c 128,-1,49
 835 1465 835 1465 885 1465 c 0,33,34
EndSplineSet
Validated: 1
EndChar

StartChar: uni1E1E
Encoding: 7710 7710 176
Width: 1010
Flags: W
HStem: -20 21G<196 252.444> 710 90<570 1073> 1420 90<702 1224> 1630 245<892.027 1043.61>
VStem: 845 245<1676.4 1827.97>
DStem2: 196 -20 395.87 -20 0.207912 0.978148<133.566 787.856 879.84 1492.55>
LayerCount: 2
Fore
SplineSet
196 -20 m 1,0,-1
 506 1440 l 1,1,-1
 669 1510 l 1,2,-1
 1281 1510 l 1,3,-1
 1279 1500 l 1,4,-1
 1224 1420 l 1,5,-1
 702 1420 l 1,6,-1
 570 800 l 1,7,-1
 1130 800 l 1,8,-1
 1128 790 l 1,9,-1
 1073 710 l 1,10,-1
 551 710 l 1,11,-1
 415 70 l 1,12,-1
 206 -20 l 1,13,-1
 196 -20 l 1,0,-1
993 1875 m 0,14,15
 1042 1875 1042 1875 1070 1839 c 0,16,17
 1090 1813 1090 1813 1090 1779 c 0,18,19
 1090 1763 1090 1763 1088 1752 c 0,20,21
 1078 1702 1078 1702 1034.5 1666 c 128,-1,22
 991 1630 991 1630 941 1630 c 128,-1,23
 891 1630 891 1630 864 1666 c 0,24,25
 845 1692 845 1692 845 1725 c 0,26,27
 845 1739 845 1739 848 1752 c 0,28,29
 858 1802 858 1802 900.5 1838.5 c 128,-1,30
 943 1875 943 1875 993 1875 c 0,14,15
EndSplineSet
Validated: 1
EndChar

StartChar: uni1E1F
Encoding: 7711 7711 177
Width: 780
Flags: W
HStem: -20 21G<176 232.173> 820 80<551 872> 1430 80<670.227 1041> 1630 245<737.711 888.42>
VStem: 690 246<1677.59 1826.76>
DStem2: 176 -20 355.783 -20 0.207912 0.978148<120.189 896.076 977.863 1477.95>
LayerCount: 2
Fore
SplineSet
186 -20 m 1,0,-1
 176 -20 l 1,1,-1
 441 1230 l 2,2,3
 500 1510 500 1510 761 1510 c 2,4,-1
 1091 1510 l 1,5,-1
 1089 1500 l 1,6,-1
 1041 1430 l 1,7,-1
 754 1430 l 2,8,9
 664 1430 664 1430 645 1340 c 2,10,-1
 551 900 l 1,11,-1
 922 900 l 1,12,-1
 920 890 l 1,13,-1
 872 820 l 1,14,-1
 534 820 l 1,15,-1
 373 61 l 1,16,-1
 186 -20 l 1,0,-1
839 1875 m 0,17,18
 891 1875 891 1875 917 1839 c 0,19,20
 936 1814 936 1814 936 1780 c 0,21,22
 936 1766 936 1766 933 1752 c 0,23,24
 922 1702 922 1702 879.5 1666 c 128,-1,25
 837 1630 837 1630 787 1630 c 128,-1,26
 737 1630 737 1630 709 1666 c 0,27,28
 690 1691 690 1691 690 1725 c 0,29,30
 690 1738 690 1738 693 1752 c 0,31,32
 704 1802 704 1802 746.5 1838.5 c 128,-1,33
 789 1875 789 1875 839 1875 c 0,17,18
EndSplineSet
Validated: 1
EndChar

StartChar: uni1E40
Encoding: 7744 7744 178
Width: 2180
Flags: W
HStem: -20 21G<176 232.444 986 1042.44 1796 1852.44> 1420 90<699.305 1254.31 1509.86 2063.42> 1630 245<1384.71 1535.42>
VStem: 1337 246<1677.59 1826.76> 2077 182<1213.68 1405.35>
DStem2: 176 -20 375.87 -20 0.207912 0.978148<133.566 1426.18> 986 -20 1185.87 -20 0.207912 0.978148<133.566 1373.42> 1796 -20 1995.87 -20 0.207912 0.978148<133.566 1353.64>
LayerCount: 2
Fore
SplineSet
186 -20 m 1,0,-1
 176 -20 l 1,1,-1
 427 1160 l 2,2,3
 501 1510 501 1510 831 1510 c 2,4,-1
 1141 1510 l 2,5,6
 1304 1510 1304 1510 1375 1434 c 1,7,8
 1478 1510 1478 1510 1641 1510 c 2,9,-1
 1951 1510 l 2,10,11
 2259 1510 2259 1510 2259 1267 c 0,12,13
 2259 1218 2259 1218 2247 1160 c 2,14,-1
 2015 70 l 1,15,-1
 1806 -20 l 1,16,-1
 1796 -20 l 1,17,-1
 2072 1280 l 2,18,19
 2077 1305 2077 1305 2077 1325 c 0,20,21
 2077 1420 2077 1420 1962 1420 c 2,22,-1
 1632 1420 l 2,23,24
 1492 1420 1492 1420 1462 1280 c 2,25,-1
 1205 70 l 1,26,-1
 996 -20 l 1,27,-1
 986 -20 l 1,28,-1
 1262 1280 l 2,29,30
 1267 1305 1267 1305 1267 1325 c 0,31,32
 1267 1420 1267 1420 1152 1420 c 2,33,-1
 822 1420 l 2,34,35
 682 1420 682 1420 652 1280 c 2,36,-1
 395 70 l 1,37,-1
 186 -20 l 1,0,-1
1486 1875 m 0,38,39
 1538 1875 1538 1875 1564 1839 c 0,40,41
 1583 1814 1583 1814 1583 1780 c 0,42,43
 1583 1766 1583 1766 1580 1752 c 0,44,45
 1569 1702 1569 1702 1526.5 1666 c 128,-1,46
 1484 1630 1484 1630 1434 1630 c 128,-1,47
 1384 1630 1384 1630 1356 1666 c 0,48,49
 1337 1691 1337 1691 1337 1725 c 0,50,51
 1337 1738 1337 1738 1340 1752 c 0,52,53
 1351 1802 1351 1802 1393.5 1838.5 c 128,-1,54
 1436 1875 1436 1875 1486 1875 c 0,38,39
EndSplineSet
Validated: 1
EndChar

StartChar: uni1E41
Encoding: 7745 7745 179
Width: 1840
Flags: W
HStem: -20 21G<176 232.173 826 882.173 1476 1532.17> 1020 80<583.227 1025.89 1229.45 1672.55> 1220 245<1125.71 1276.42>
VStem: 1078 246<1267.59 1416.76> 1681 163<863.565 1016.02>
DStem2: 176 -20 355.783 -20 0.207912 0.978148<120.189 1058.82> 826 -20 1005.78 -20 0.207912 0.978148<120.189 999.83> 1476 -20 1655.78 -20 0.207912 0.978148<120.189 980.104>
LayerCount: 2
Fore
SplineSet
186 -20 m 1,0,-1
 176 -20 l 1,1,-1
 354 820 l 2,2,3
 413 1100 413 1100 674 1100 c 2,4,-1
 944 1100 l 2,5,6
 1065 1100 1065 1100 1123 1047 c 1,7,8
 1203 1100 1203 1100 1324 1100 c 2,9,-1
 1594 1100 l 2,10,11
 1844 1100 1844 1100 1844 905 c 0,12,13
 1844 866 1844 866 1834 820 c 2,14,-1
 1673 61 l 1,15,-1
 1486 -20 l 1,16,-1
 1476 -20 l 1,17,-1
 1678 930 l 2,18,19
 1681 946 1681 946 1681 959 c 0,20,21
 1681 1020 1681 1020 1607 1020 c 2,22,-1
 1317 1020 l 2,23,24
 1227 1020 1227 1020 1208 930 c 2,25,-1
 1023 61 l 1,26,-1
 836 -20 l 1,27,-1
 826 -20 l 1,28,-1
 1028 930 l 2,29,30
 1031 946 1031 946 1031 959 c 0,31,32
 1031 1020 1031 1020 957 1020 c 2,33,-1
 667 1020 l 2,34,35
 577 1020 577 1020 558 930 c 2,36,-1
 373 61 l 1,37,-1
 186 -20 l 1,0,-1
1227 1465 m 0,38,39
 1279 1465 1279 1465 1305 1429 c 0,40,41
 1324 1404 1324 1404 1324 1370 c 0,42,43
 1324 1356 1324 1356 1321 1342 c 0,44,45
 1310 1292 1310 1292 1267.5 1256 c 128,-1,46
 1225 1220 1225 1220 1175 1220 c 128,-1,47
 1125 1220 1125 1220 1097 1256 c 0,48,49
 1078 1281 1078 1281 1078 1315 c 0,50,51
 1078 1328 1078 1328 1081 1342 c 0,52,53
 1092 1392 1092 1392 1134.5 1428.5 c 128,-1,54
 1177 1465 1177 1465 1227 1465 c 0,38,39
EndSplineSet
Validated: 1
EndChar

StartChar: uni1E56
Encoding: 7766 7766 180
Width: 1210
Flags: W
HStem: -20 21G<196 252.444> 500 90<525 1020.79> 1420 90<702 1185.67> 1630 245<885.711 1036.42>
VStem: 838 246<1677.59 1826.76> 1197 192<1095.86 1405.99>
DStem2: 196 -20 395.87 -20 0.207912 0.978148<133.566 573.089 665.073 1492.55> 915.583 -20 1126.08 -20 0.207912 0.978148<713.295 1355.8>
LayerCount: 2
Fore
SplineSet
702 1420 m 1,0,-1
 525 590 l 1,1,-1
 905 590 l 2,2,3
 1045 590 1045 590 1075 730 c 2,4,-1
 1192 1280 l 2,5,6
 1197 1305 1197 1305 1197 1325 c 0,7,8
 1197 1420 1197 1420 1082 1420 c 2,9,-1
 702 1420 l 1,0,-1
206 -20 m 1,10,-1
 196 -20 l 1,11,-1
 506 1440 l 1,12,-1
 669 1510 l 1,13,-1
 1081 1510 l 2,14,15
 1389 1510 1389 1510 1389 1267 c 0,16,17
 1389 1218 1389 1218 1377 1160 c 2,18,-1
 1311 850 l 2,19,20
 1236 500 1236 500 906 500 c 2,21,-1
 506 500 l 1,22,-1
 415 70 l 1,23,-1
 206 -20 l 1,10,-1
987 1875 m 0,24,25
 1039 1875 1039 1875 1065 1839 c 0,26,27
 1084 1814 1084 1814 1084 1780 c 0,28,29
 1084 1766 1084 1766 1081 1752 c 0,30,31
 1070 1702 1070 1702 1027.5 1666 c 128,-1,32
 985 1630 985 1630 935 1630 c 128,-1,33
 885 1630 885 1630 857 1666 c 0,34,35
 838 1691 838 1691 838 1725 c 0,36,37
 838 1738 838 1738 841 1752 c 0,38,39
 852 1802 852 1802 894.5 1838.5 c 128,-1,40
 937 1875 937 1875 987 1875 c 0,24,25
EndSplineSet
Validated: 1
EndChar

StartChar: uni1E57
Encoding: 7767 7767 181
Width: 1170
Flags: W
HStem: -430 21G<89 145.173> 0 80<397.107 833.751> 1020 80<583.227 1016.02> 1220 245<807.711 958.42>
VStem: 760 246<1267.59 1416.76> 1021 173<737.812 1016.33>
DStem2: 89 -430 268.783 -430 0.207912 0.978148<120.189 498.32 622.126 1477.95> 728.466 -430 919.085 -430 0.207912 0.978148<571.268 1401.42>
LayerCount: 2
Fore
SplineSet
667 1020 m 2,0,1
 577 1020 577 1020 558 930 c 2,2,-1
 396 170 l 2,3,4
 393 154 393 154 393 141 c 0,5,6
 393 80 393 80 467 80 c 2,7,-1
 747 80 l 2,8,9
 837 80 837 80 856 170 c 2,10,-1
 1018 930 l 2,11,12
 1021 946 1021 946 1021 959 c 0,13,14
 1021 1020 1021 1020 947 1020 c 2,15,-1
 667 1020 l 2,0,1
750 0 m 2,16,-1
 480 0 l 2,17,18
 407 0 407 0 364 21 c 1,19,-1
 286 -349 l 1,20,-1
 99 -430 l 1,21,-1
 89 -430 l 1,22,-1
 354 820 l 2,23,24
 413 1100 413 1100 674 1100 c 2,25,-1
 944 1100 l 2,26,27
 1194 1100 1194 1100 1194 905 c 0,28,29
 1194 866 1194 866 1184 820 c 2,30,-1
 1070 280 l 2,31,32
 1011 0 1011 0 750 0 c 2,16,-1
909 1465 m 0,33,34
 961 1465 961 1465 987 1429 c 0,35,36
 1006 1404 1006 1404 1006 1370 c 0,37,38
 1006 1356 1006 1356 1003 1342 c 0,39,40
 992 1292 992 1292 949.5 1256 c 128,-1,41
 907 1220 907 1220 857 1220 c 128,-1,42
 807 1220 807 1220 779 1256 c 0,43,44
 760 1281 760 1281 760 1315 c 0,45,46
 760 1328 760 1328 763 1342 c 0,47,48
 774 1392 774 1392 816.5 1428.5 c 128,-1,49
 859 1465 859 1465 909 1465 c 0,33,34
EndSplineSet
Validated: 1
EndChar

StartChar: uni1E6A
Encoding: 7786 7786 182
Width: 1070
Flags: W
HStem: -20 21G<431 487.444> 1420 90<369 737 937 1324> 1630 245<827.027 978.615>
VStem: 780 245<1676.4 1827.97>
DStem2: 431 -20 630.87 -20 0.207912 0.978148<133.566 1472.15>
LayerCount: 2
Fore
SplineSet
431 -20 m 1,0,-1
 737 1420 l 1,1,-1
 312 1420 l 1,2,-1
 314 1430 l 1,3,-1
 369 1510 l 1,4,-1
 1381 1510 l 1,5,-1
 1379 1500 l 1,6,-1
 1324 1420 l 1,7,-1
 937 1420 l 1,8,-1
 650 70 l 1,9,-1
 441 -20 l 1,10,-1
 431 -20 l 1,0,-1
928 1875 m 0,11,12
 977 1875 977 1875 1005 1839 c 0,13,14
 1025 1813 1025 1813 1025 1779 c 0,15,16
 1025 1763 1025 1763 1023 1752 c 0,17,18
 1013 1702 1013 1702 969.5 1666 c 128,-1,19
 926 1630 926 1630 876 1630 c 128,-1,20
 826 1630 826 1630 799 1666 c 0,21,22
 780 1692 780 1692 780 1725 c 0,23,24
 780 1739 780 1739 783 1752 c 0,25,26
 793 1802 793 1802 835.5 1838.5 c 128,-1,27
 878 1875 878 1875 928 1875 c 0,11,12
EndSplineSet
Validated: 1
EndChar

StartChar: uni1E6B
Encoding: 7787 7787 183
Width: 780
Flags: W
HStem: -20 21G<296 352.076> 1020 80<277 517 709 954> 1510 20G<743.924 800> 1630 245<688.027 839.615>
VStem: 641 245<1676.4 1827.97>
DStem2: 296 -20 471.208 -20 0.207912 0.978148<117.193 1063.22 1181.39 1503.72>
LayerCount: 2
Fore
SplineSet
296 -20 m 1,0,-1
 517 1020 l 1,1,-1
 227 1020 l 1,2,-1
 229 1030 l 1,3,-1
 277 1100 l 1,4,-1
 534 1100 l 1,5,-1
 608 1451 l 1,6,-1
 790 1530 l 1,7,-1
 800 1530 l 1,8,-1
 709 1100 l 1,9,-1
 1004 1100 l 1,10,-1
 1002 1090 l 1,11,-1
 954 1020 l 1,12,-1
 692 1020 l 1,13,-1
 488 59 l 1,14,-1
 306 -20 l 1,15,-1
 296 -20 l 1,0,-1
789 1875 m 0,16,17
 838 1875 838 1875 866 1839 c 0,18,19
 886 1813 886 1813 886 1779 c 0,20,21
 886 1763 886 1763 884 1752 c 0,22,23
 874 1702 874 1702 830.5 1666 c 128,-1,24
 787 1630 787 1630 737 1630 c 128,-1,25
 687 1630 687 1630 660 1666 c 0,26,27
 641 1692 641 1692 641 1725 c 0,28,29
 641 1739 641 1739 644 1752 c 0,30,31
 654 1802 654 1802 696.5 1838.5 c 128,-1,32
 739 1875 739 1875 789 1875 c 0,16,17
EndSplineSet
Validated: 1
EndChar

StartChar: uni1E60
Encoding: 7776 7776 184
Width: 1120
Flags: W
HStem: 0 90<336.68 824.141> 799 90<580.656 956.091> 1110 21G<988 1044.36> 1430 80<679.295 1017.02> 1630 245<864.711 1015.42>
VStem: 133 186<105.513 367.118> 377 190<902.821 1091.36> 817 246<1677.59 1826.76> 975 193<471.195 785.425> 1032 181<1192.39 1414.08>
DStem2: 153.4 0 353.279 0 0.207912 0.978148<1049.13 1444.92> 830.112 0 1039.61 0 0.207912 0.978148<181.401 702.589>
LayerCount: 2
Fore
SplineSet
430 0 m 2,0,1
 133 0 133 0 133 250 c 0,2,3
 133 301 133 301 146 362 c 1,4,-1
 362 455 l 1,5,-1
 372 455 l 1,6,-1
 324 230 l 2,7,8
 319 207 319 207 319 185 c 0,9,10
 319 90 319 90 434 90 c 2,11,-1
 709 90 l 2,12,13
 849 90 849 90 879 230 c 2,14,-1
 970 659 l 2,15,16
 975 683 975 683 975 704 c 0,17,18
 975 799 975 799 860 799 c 2,19,-1
 643 799 l 2,20,21
 377 799 377 799 377 1009 c 0,22,23
 377 1051 377 1051 387 1099 c 2,24,-1
 410 1210 l 2,25,26
 472 1510 472 1510 754 1510 c 2,27,-1
 958 1510 l 2,28,29
 1213 1510 1213 1510 1213 1294 c 0,30,31
 1213 1250 1213 1250 1202 1198 c 1,32,-1
 998 1110 l 1,33,-1
 988 1110 l 1,34,-1
 1027 1295 l 2,35,36
 1032 1319 1032 1319 1032 1336 c 0,37,38
 1032 1430 1032 1430 916 1430 c 2,39,-1
 797 1430 l 2,40,41
 657 1430 657 1430 627 1290 c 2,42,-1
 572 1029 l 2,43,44
 567 1005 567 1005 567 984 c 0,45,46
 567 889 567 889 682 889 c 2,47,-1
 859 889 l 2,48,49
 1168 889 1168 889 1168 648 c 0,50,51
 1168 599 1168 599 1155 539 c 2,52,-1
 1114 350 l 2,53,54
 1038 0 1038 0 710 0 c 2,55,-1
 430 0 l 2,0,1
966 1875 m 0,56,57
 1018 1875 1018 1875 1044 1839 c 0,58,59
 1063 1814 1063 1814 1063 1780 c 0,60,61
 1063 1766 1063 1766 1060 1752 c 0,62,63
 1049 1702 1049 1702 1006.5 1666 c 128,-1,64
 964 1630 964 1630 914 1630 c 128,-1,65
 864 1630 864 1630 836 1666 c 0,66,67
 817 1691 817 1691 817 1725 c 0,68,69
 817 1738 817 1738 820 1752 c 0,70,71
 831 1802 831 1802 873.5 1838.5 c 128,-1,72
 916 1875 916 1875 966 1875 c 0,56,57
EndSplineSet
Validated: 1
EndChar

StartChar: uni1E61
Encoding: 7777 7777 185
Width: 910
Flags: W
HStem: 0 80<291.147 654.036> 562 80<468.781 739.947> 1030 70<536.481 786.993> 1220 245<662.711 813.42>
VStem: 121 167<84.9572 295.36> 288 173<645.173 795.444> 615 246<1267.59 1416.76> 743 174<276.91 556.989> 795 162<844.577 1025.91>
DStem2: 127.53 0 308.409 0 0.207912 0.978148<757.429 1056.14> 639.865 0 830.484 0 0.207912 0.978148<125.821 496.561>
LayerCount: 2
Fore
SplineSet
360 0 m 2,0,1
 121 0 121 0 121 201 c 0,2,3
 121 241 121 241 131 289 c 1,4,-1
 324 373 l 1,5,-1
 334 373 l 1,6,-1
 291 170 l 2,7,8
 288 156 288 156 288 141 c 0,9,10
 288 80 288 80 362 80 c 2,11,-1
 567 80 l 2,12,13
 657 80 657 80 676 170 c 2,14,-1
 740 472 l 2,15,16
 743 486 743 486 743 501 c 0,17,18
 743 562 743 562 669 562 c 2,19,-1
 487 562 l 2,20,21
 288 562 288 562 288 723 c 0,22,23
 288 757 288 757 298 802 c 2,24,-1
 311 860 l 2,25,26
 365 1100 365 1100 582 1100 c 2,27,-1
 750 1100 l 2,28,29
 957 1100 957 1100 957 926 c 0,30,31
 957 892 957 892 948 851 c 1,32,-1
 765 772 l 1,33,-1
 755 772 l 1,34,-1
 792 945 l 2,35,36
 795 959 795 959 795 971 c 0,37,38
 795 1030 795 1030 720 1030 c 2,39,-1
 617 1030 l 2,40,41
 527 1030 527 1030 508 940 c 2,42,-1
 464 732 l 2,43,44
 461 718 461 718 461 703 c 0,45,46
 461 642 461 642 534 642 c 2,47,-1
 686 642 l 2,48,49
 917 642 917 642 917 450 c 0,50,51
 917 410 917 410 907 362 c 2,52,-1
 890 280 l 2,53,54
 832 0 832 0 570 0 c 2,55,-1
 360 0 l 2,0,1
764 1465 m 0,56,57
 816 1465 816 1465 842 1429 c 0,58,59
 861 1404 861 1404 861 1370 c 0,60,61
 861 1356 861 1356 858 1342 c 0,62,63
 847 1292 847 1292 804.5 1256 c 128,-1,64
 762 1220 762 1220 712 1220 c 128,-1,65
 662 1220 662 1220 634 1256 c 0,66,67
 615 1281 615 1281 615 1315 c 0,68,69
 615 1328 615 1328 618 1342 c 0,70,71
 629 1392 629 1392 671.5 1428.5 c 128,-1,72
 714 1465 714 1465 764 1465 c 0,56,57
EndSplineSet
Validated: 1
EndChar

StartChar: Wgrave
Encoding: 7808 7808 186
Width: 2180
Flags: W
HStem: 0 90<437.583 991.141 1246.69 1801.7> 1510 20G<648.556 705 1458.56 1515 2268.56 2325>
VStem: 242 182<104.651 296.323>
DStem2: 179.605 0 380.112 0 0.207912 0.978148<252.163 1472.24> 990.112 0 1190.11 0 0.207912 0.978148<232.277 1472.13> 1442 1937 1300 1880 0.252042 -0.967716<19.3699 321.375> 1800.11 0 1999.61 0 0.207912 0.978148<179.513 1472.13>
LayerCount: 2
Fore
SplineSet
550 0 m 2,0,1
 242 0 242 0 242 243 c 0,2,3
 242 292 242 292 254 350 c 2,4,-1
 486 1440 l 1,5,-1
 695 1530 l 1,6,-1
 705 1530 l 1,7,-1
 429 230 l 2,8,9
 424 205 424 205 424 185 c 0,10,11
 424 90 424 90 539 90 c 2,12,-1
 869 90 l 2,13,14
 1009 90 1009 90 1039 230 c 2,15,-1
 1296 1440 l 1,16,-1
 1505 1530 l 1,17,-1
 1515 1530 l 1,18,-1
 1239 230 l 2,19,20
 1234 205 1234 205 1234 185 c 0,21,22
 1234 90 1234 90 1349 90 c 2,23,-1
 1679 90 l 2,24,25
 1819 90 1819 90 1849 230 c 2,26,-1
 2106 1440 l 1,27,-1
 2315 1530 l 1,28,-1
 2325 1530 l 1,29,-1
 2074 350 l 2,30,31
 2000 0 2000 0 1670 0 c 2,32,-1
 1360 0 l 2,33,34
 1197 0 1197 0 1126 76 c 1,35,36
 1023 0 1023 0 860 0 c 2,37,-1
 550 0 l 2,0,1
1432 1937 m 1,38,-1
 1442 1937 l 1,39,-1
 1523 1626 l 1,40,-1
 1393 1570 l 1,41,-1
 1383 1570 l 1,42,-1
 1300 1880 l 1,43,-1
 1432 1937 l 1,38,-1
EndSplineSet
Validated: 1
EndChar

StartChar: wgrave
Encoding: 7809 7809 187
Width: 1840
Flags: W
HStem: 0 80<401.448 844.548 1048.11 1490.77> 1100 20G<541.827 598 1191.83 1248 1841.83 1898>
VStem: 230 163<83.9795 236.435>
DStem2: 180.484 0 359.865 0 0.207912 0.978148<202.228 1062.14> 829.865 0 1009.87 0 0.207912 0.978148<182.63 1062.27> 1187 1527 1044 1470 0.261536 -0.965194<17.6163 321.098> 1479.87 0 1660.48 0 0.207912 0.978148<129.583 1062.27>
LayerCount: 2
Fore
SplineSet
480 0 m 2,0,1
 230 0 230 0 230 195 c 0,2,3
 230 234 230 234 240 280 c 2,4,-1
 401 1039 l 1,5,-1
 588 1120 l 1,6,-1
 598 1120 l 1,7,-1
 396 170 l 2,8,9
 393 154 393 154 393 141 c 0,10,11
 393 80 393 80 467 80 c 2,12,-1
 757 80 l 2,13,14
 847 80 847 80 866 170 c 2,15,-1
 1051 1039 l 1,16,-1
 1238 1120 l 1,17,-1
 1248 1120 l 1,18,-1
 1046 170 l 2,19,20
 1043 154 1043 154 1043 141 c 0,21,22
 1043 80 1043 80 1117 80 c 2,23,-1
 1407 80 l 2,24,25
 1497 80 1497 80 1516 170 c 2,26,-1
 1701 1039 l 1,27,-1
 1888 1120 l 1,28,-1
 1898 1120 l 1,29,-1
 1720 280 l 2,30,31
 1661 0 1661 0 1400 0 c 2,32,-1
 1130 0 l 2,33,34
 1009 0 1009 0 951 53 c 1,35,36
 871 0 871 0 750 0 c 2,37,-1
 480 0 l 2,0,1
1177 1527 m 1,38,-1
 1187 1527 l 1,39,-1
 1267 1216 l 1,40,-1
 1138 1160 l 1,41,-1
 1128 1160 l 1,42,-1
 1044 1470 l 1,43,-1
 1177 1527 l 1,38,-1
EndSplineSet
Validated: 1
EndChar

StartChar: Wacute
Encoding: 7810 7810 188
Width: 2180
Flags: W
HStem: 0 90<437.583 991.141 1246.69 1801.7> 1510 20G<648.556 705 1458.56 1515 2268.56 2325>
VStem: 242 182<104.651 296.323>
DStem2: 179.605 0 380.112 0 0.207912 0.978148<252.163 1472.24> 990.112 0 1190.11 0 0.207912 0.978148<232.277 1472.13> 1319 1634 1442 1570 0.550881 0.834584<14.3449 363.055> 1800.11 0 1999.61 0 0.207912 0.978148<179.513 1472.13>
LayerCount: 2
Fore
SplineSet
550 0 m 2,0,1
 242 0 242 0 242 243 c 0,2,3
 242 292 242 292 254 350 c 2,4,-1
 486 1440 l 1,5,-1
 695 1530 l 1,6,-1
 705 1530 l 1,7,-1
 429 230 l 2,8,9
 424 205 424 205 424 185 c 0,10,11
 424 90 424 90 539 90 c 2,12,-1
 869 90 l 2,13,14
 1009 90 1009 90 1039 230 c 2,15,-1
 1296 1440 l 1,16,-1
 1505 1530 l 1,17,-1
 1515 1530 l 1,18,-1
 1239 230 l 2,19,20
 1234 205 1234 205 1234 185 c 0,21,22
 1234 90 1234 90 1349 90 c 2,23,-1
 1679 90 l 2,24,25
 1819 90 1819 90 1849 230 c 2,26,-1
 2106 1440 l 1,27,-1
 2315 1530 l 1,28,-1
 2325 1530 l 1,29,-1
 2074 350 l 2,30,31
 2000 0 2000 0 1670 0 c 2,32,-1
 1360 0 l 2,33,34
 1197 0 1197 0 1126 76 c 1,35,36
 1023 0 1023 0 860 0 c 2,37,-1
 550 0 l 2,0,1
1529 1937 m 1,38,-1
 1642 1873 l 1,39,-1
 1442 1570 l 1,40,-1
 1432 1570 l 1,41,-1
 1319 1634 l 1,42,-1
 1519 1937 l 1,43,-1
 1529 1937 l 1,38,-1
EndSplineSet
Validated: 1
EndChar

StartChar: wacute
Encoding: 7811 7811 189
Width: 1840
Flags: W
HStem: 0 80<401.448 844.548 1048.11 1490.77> 1100 20G<541.827 598 1191.83 1248 1841.83 1898>
VStem: 230 163<83.9795 236.435>
DStem2: 180.484 0 359.865 0 0.207912 0.978148<202.228 1062.14> 829.865 0 1009.87 0 0.207912 0.978148<182.63 1062.27> 1054 1224 1177 1160 0.550881 0.834584<14.3449 363.055> 1479.87 0 1660.48 0 0.207912 0.978148<129.583 1062.27>
LayerCount: 2
Fore
SplineSet
480 0 m 2,0,1
 230 0 230 0 230 195 c 0,2,3
 230 234 230 234 240 280 c 2,4,-1
 401 1039 l 1,5,-1
 588 1120 l 1,6,-1
 598 1120 l 1,7,-1
 396 170 l 2,8,9
 393 154 393 154 393 141 c 0,10,11
 393 80 393 80 467 80 c 2,12,-1
 757 80 l 2,13,14
 847 80 847 80 866 170 c 2,15,-1
 1051 1039 l 1,16,-1
 1238 1120 l 1,17,-1
 1248 1120 l 1,18,-1
 1046 170 l 2,19,20
 1043 154 1043 154 1043 141 c 0,21,22
 1043 80 1043 80 1117 80 c 2,23,-1
 1407 80 l 2,24,25
 1497 80 1497 80 1516 170 c 2,26,-1
 1701 1039 l 1,27,-1
 1888 1120 l 1,28,-1
 1898 1120 l 1,29,-1
 1720 280 l 2,30,31
 1661 0 1661 0 1400 0 c 2,32,-1
 1130 0 l 2,33,34
 1009 0 1009 0 951 53 c 1,35,36
 871 0 871 0 750 0 c 2,37,-1
 480 0 l 2,0,1
1264 1527 m 1,38,-1
 1377 1463 l 1,39,-1
 1177 1160 l 1,40,-1
 1167 1160 l 1,41,-1
 1054 1224 l 1,42,-1
 1254 1527 l 1,43,-1
 1264 1527 l 1,38,-1
EndSplineSet
Validated: 1
EndChar

StartChar: Wdieresis
Encoding: 7812 7812 190
Width: 2180
Flags: W
HStem: 0 90<437.583 991.141 1246.69 1801.7> 1510 20G<648.556 705 1458.56 1515 2268.56 2325> 1640 227<1243.23 1389.64 1519.14 1665.57>
VStem: 242 182<104.651 296.323> 1202 229<1681.58 1825.8> 1479 229<1682.58 1826.8>
DStem2: 179.605 0 380.112 0 0.207912 0.978148<252.163 1472.24> 990.112 0 1190.11 0 0.207912 0.978148<232.277 1472.13> 1800.11 0 1999.61 0 0.207912 0.978148<179.513 1472.13>
LayerCount: 2
Fore
SplineSet
550 0 m 2,0,1
 242 0 242 0 242 243 c 0,2,3
 242 292 242 292 254 350 c 2,4,-1
 486 1440 l 1,5,-1
 695 1530 l 1,6,-1
 705 1530 l 1,7,-1
 429 230 l 2,8,9
 424 205 424 205 424 185 c 0,10,11
 424 90 424 90 539 90 c 2,12,-1
 869 90 l 2,13,14
 1009 90 1009 90 1039 230 c 2,15,-1
 1296 1440 l 1,16,-1
 1505 1530 l 1,17,-1
 1515 1530 l 1,18,-1
 1239 230 l 2,19,20
 1234 205 1234 205 1234 185 c 0,21,22
 1234 90 1234 90 1349 90 c 2,23,-1
 1679 90 l 2,24,25
 1819 90 1819 90 1849 230 c 2,26,-1
 2106 1440 l 1,27,-1
 2315 1530 l 1,28,-1
 2325 1530 l 1,29,-1
 2074 350 l 2,30,31
 2000 0 2000 0 1670 0 c 2,32,-1
 1360 0 l 2,33,34
 1197 0 1197 0 1126 76 c 1,35,36
 1023 0 1023 0 860 0 c 2,37,-1
 550 0 l 2,0,1
1618 1868 m 128,-1,39
 1664 1868 1664 1868 1690 1835 c 0,40,41
 1708 1812 1708 1812 1708 1779 c 0,42,43
 1708 1767 1708 1767 1706 1755 c 0,44,45
 1696 1709 1696 1709 1655.5 1675 c 128,-1,46
 1615 1641 1615 1641 1569 1641 c 0,47,48
 1524 1641 1524 1641 1498 1675 c 0,49,50
 1479 1699 1479 1699 1479 1730 c 0,51,52
 1480 1743 1480 1743 1482 1755 c 0,53,54
 1492 1801 1492 1801 1532 1834.5 c 128,-1,38
 1572 1868 1572 1868 1618 1868 c 128,-1,39
1341 1867 m 128,-1,56
 1387 1867 1387 1867 1413 1834 c 0,57,58
 1431 1811 1431 1811 1431 1778 c 0,59,60
 1431 1766 1431 1766 1429 1754 c 0,61,62
 1419 1708 1419 1708 1378.5 1674 c 128,-1,63
 1338 1640 1338 1640 1292 1640 c 0,64,65
 1247 1640 1247 1640 1221 1674 c 0,66,67
 1202 1698 1202 1698 1202 1729 c 0,68,69
 1203 1742 1203 1742 1205 1754 c 0,70,71
 1215 1800 1215 1800 1255 1833.5 c 128,-1,55
 1295 1867 1295 1867 1341 1867 c 128,-1,56
EndSplineSet
Validated: 1
EndChar

StartChar: wdieresis
Encoding: 7813 7813 191
Width: 1840
Flags: W
HStem: 0 80<401.448 844.548 1048.11 1490.77> 1100 20G<541.827 598 1191.83 1248 1841.83 1898> 1230 227<993.232 1139.64 1269.14 1415.57>
VStem: 230 163<83.9795 236.435> 952 229<1271.58 1415.8> 1229 229<1272.58 1416.8>
DStem2: 180.484 0 359.865 0 0.207912 0.978148<202.228 1062.14> 829.865 0 1009.87 0 0.207912 0.978148<182.63 1062.27> 1479.87 0 1660.48 0 0.207912 0.978148<129.583 1062.27>
LayerCount: 2
Fore
SplineSet
480 0 m 2,0,1
 230 0 230 0 230 195 c 0,2,3
 230 234 230 234 240 280 c 2,4,-1
 401 1039 l 1,5,-1
 588 1120 l 1,6,-1
 598 1120 l 1,7,-1
 396 170 l 2,8,9
 393 154 393 154 393 141 c 0,10,11
 393 80 393 80 467 80 c 2,12,-1
 757 80 l 2,13,14
 847 80 847 80 866 170 c 2,15,-1
 1051 1039 l 1,16,-1
 1238 1120 l 1,17,-1
 1248 1120 l 1,18,-1
 1046 170 l 2,19,20
 1043 154 1043 154 1043 141 c 0,21,22
 1043 80 1043 80 1117 80 c 2,23,-1
 1407 80 l 2,24,25
 1497 80 1497 80 1516 170 c 2,26,-1
 1701 1039 l 1,27,-1
 1888 1120 l 1,28,-1
 1898 1120 l 1,29,-1
 1720 280 l 2,30,31
 1661 0 1661 0 1400 0 c 2,32,-1
 1130 0 l 2,33,34
 1009 0 1009 0 951 53 c 1,35,36
 871 0 871 0 750 0 c 2,37,-1
 480 0 l 2,0,1
1368 1458 m 128,-1,39
 1414 1458 1414 1458 1440 1425 c 0,40,41
 1458 1402 1458 1402 1458 1369 c 0,42,43
 1458 1357 1458 1357 1456 1345 c 0,44,45
 1446 1299 1446 1299 1405.5 1265 c 128,-1,46
 1365 1231 1365 1231 1319 1231 c 0,47,48
 1274 1231 1274 1231 1248 1265 c 0,49,50
 1229 1289 1229 1289 1229 1320 c 0,51,52
 1230 1333 1230 1333 1232 1345 c 0,53,54
 1242 1391 1242 1391 1282 1424.5 c 128,-1,38
 1322 1458 1322 1458 1368 1458 c 128,-1,39
1091 1457 m 128,-1,56
 1137 1457 1137 1457 1163 1424 c 0,57,58
 1181 1401 1181 1401 1181 1368 c 0,59,60
 1181 1356 1181 1356 1179 1344 c 0,61,62
 1169 1298 1169 1298 1128.5 1264 c 128,-1,63
 1088 1230 1088 1230 1042 1230 c 0,64,65
 997 1230 997 1230 971 1264 c 0,66,67
 952 1288 952 1288 952 1319 c 0,68,69
 953 1332 953 1332 955 1344 c 0,70,71
 965 1390 965 1390 1005 1423.5 c 128,-1,55
 1045 1457 1045 1457 1091 1457 c 128,-1,56
EndSplineSet
Validated: 1
EndChar

StartChar: Ygrave
Encoding: 7922 7922 192
Width: 1210
Flags: W
HStem: -20 21G<501 557.444> 450 90<473.583 601 801 987.695> 1510 20G<588.556 645 1358.56 1415>
VStem: 278 182<554.651 745.868>
DStem2: 115.704 -20 316.21 -20 0.207912 0.978148<732.663 1492.61> 501 -20 700.87 -20 0.207912 0.978148<133.566 480.521> 1004 1937 862 1880 0.252042 -0.967716<19.3699 321.375> 886.21 -20 1085.7 -20 0.207912 0.978148<660.013 1492.5>
LayerCount: 2
Fore
SplineSet
511 -20 m 1,0,-1
 501 -20 l 1,1,-1
 601 450 l 1,2,-1
 586 450 l 2,3,4
 278 450 278 450 278 693 c 0,5,6
 278 742 278 742 290 800 c 2,7,-1
 426 1440 l 1,8,-1
 635 1530 l 1,9,-1
 645 1530 l 1,10,-1
 465 680 l 2,11,12
 460 655 460 655 460 635 c 0,13,14
 460 540 460 540 575 540 c 2,15,-1
 865 540 l 2,16,17
 1005 540 1005 540 1035 680 c 2,18,-1
 1196 1440 l 1,19,-1
 1405 1530 l 1,20,-1
 1415 1530 l 1,21,-1
 1260 800 l 2,22,23
 1186 450 1186 450 856 450 c 2,24,-1
 801 450 l 1,25,-1
 720 70 l 1,26,-1
 511 -20 l 1,0,-1
994 1937 m 1,27,-1
 1004 1937 l 1,28,-1
 1085 1626 l 1,29,-1
 955 1570 l 1,30,-1
 945 1570 l 1,31,-1
 862 1880 l 1,32,-1
 994 1937 l 1,27,-1
EndSplineSet
Validated: 1
EndChar

StartChar: ygrave
Encoding: 7923 7923 193
Width: 1210
Flags: W
HStem: -410 80<283 753.129> 0 80<401.448 832.437> 1100 20G<541.827 598 1191.83 1248>
VStem: 230 163<83.9795 236.435>
DStem2: 93.336 -410 272.717 -410 0.207912 0.978148<621.388 1481.3> 870 1527 727 1470 0.261536 -0.965194<17.6163 321.098> 742.865 -410 922.484 -410 0.207912 0.978148<129.309 440.53 499.799 1481.4>
LayerCount: 2
Fore
SplineSet
480 0 m 2,0,1
 230 0 230 0 230 195 c 0,2,3
 230 234 230 234 240 280 c 2,4,-1
 401 1039 l 1,5,-1
 588 1120 l 1,6,-1
 598 1120 l 1,7,-1
 396 170 l 2,8,9
 393 154 393 154 393 141 c 0,10,11
 393 80 393 80 467 80 c 2,12,-1
 757 80 l 2,13,14
 847 80 847 80 866 170 c 2,15,-1
 1051 1039 l 1,16,-1
 1238 1120 l 1,17,-1
 1248 1120 l 1,18,-1
 982 -130 l 2,19,20
 922 -410 922 -410 663 -410 c 2,21,-1
 233 -410 l 1,22,-1
 235 -400 l 1,23,-1
 283 -330 l 1,24,-1
 670 -330 l 2,25,26
 760 -330 760 -330 779 -240 c 2,27,-1
 834 21 l 1,28,29
 784 0 784 0 730 0 c 2,30,-1
 480 0 l 2,0,1
860 1527 m 1,31,-1
 870 1527 l 1,32,-1
 950 1216 l 1,33,-1
 821 1160 l 1,34,-1
 811 1160 l 1,35,-1
 727 1470 l 1,36,-1
 860 1527 l 1,31,-1
EndSplineSet
Validated: 1
EndChar

StartChar: AE
Encoding: 198 198 194
Width: 1688
Flags: W
HStem: -20 21G<176 232.444> 0 90<1047 1600> 710 90<550 979 1198 1701> 1420 90<699.305 1130 1330 1852>
DStem2: 176 -20 375.87 -20 0.207912 0.978148<133.566 787.856 879.84 1426.18> 823.749 -20 1023.62 -20 0.207912 0.978148<154.013 746.326 879.892 1472.21>
LayerCount: 2
Fore
SplineSet
1600 0 m 1,0,-1
 828 0 l 1,1,-1
 979 710 l 1,2,-1
 531 710 l 1,3,-1
 395 70 l 1,4,-1
 186 -20 l 1,5,-1
 176 -20 l 1,6,-1
 427 1160 l 2,7,8
 501 1510 501 1510 831 1510 c 2,9,-1
 1909 1510 l 1,10,-1
 1907 1500 l 1,11,-1
 1852 1420 l 1,12,-1
 1330 1420 l 1,13,-1
 1198 800 l 1,14,-1
 1758 800 l 1,15,-1
 1756 790 l 1,16,-1
 1701 710 l 1,17,-1
 1179 710 l 1,18,-1
 1047 90 l 1,19,-1
 1657 90 l 1,20,-1
 1655 80 l 1,21,-1
 1600 0 l 1,0,-1
1130 1420 m 1,22,-1
 822 1420 l 2,23,24
 682 1420 682 1420 652 1280 c 2,25,-1
 550 800 l 1,26,-1
 998 800 l 1,27,-1
 1130 1420 l 1,22,-1
EndSplineSet
Validated: 1
EndChar

StartChar: Eth
Encoding: 208 208 195
Width: 1350
Flags: W
HStem: 0 90<419 974.445> 710 90<248 351 570 843> 1420 90<702 1238.09>
VStem: 1257 193<1213.98 1405.78>
DStem2: 200 0 399.87 0 0.207912 0.978148<133.566 725.879 859.445 1472.15> 980.112 0 1189.61 0 0.207912 0.978148<181.497 1336.49>
CounterMasks: 1 e0
LayerCount: 2
Fore
SplineSet
200 0 m 1,0,-1
 351 710 l 1,1,-1
 191 710 l 1,2,-1
 193 720 l 1,3,-1
 248 800 l 1,4,-1
 370 800 l 1,5,-1
 506 1440 l 1,6,-1
 669 1510 l 1,7,-1
 1141 1510 l 2,8,9
 1450 1510 1450 1510 1450 1268 c 0,10,11
 1450 1219 1450 1219 1437 1160 c 2,12,-1
 1264 350 l 2,13,14
 1189 0 1189 0 860 0 c 2,15,-1
 200 0 l 1,0,-1
419 90 m 1,16,-1
 859 90 l 2,17,18
 999 90 999 90 1029 230 c 2,19,-1
 1252 1280 l 2,20,21
 1257 1305 1257 1305 1257 1325 c 0,22,23
 1257 1420 1257 1420 1142 1420 c 2,24,-1
 702 1420 l 1,25,-1
 570 800 l 1,26,-1
 900 800 l 1,27,-1
 898 790 l 1,28,-1
 843 710 l 1,29,-1
 551 710 l 1,30,-1
 419 90 l 1,16,-1
EndSplineSet
Validated: 1
EndChar

StartChar: Dcroat
Encoding: 272 272 196
Width: 1350
Flags: W
HStem: 0 90<419 974.445> 710 90<248 351 570 843> 1420 90<702 1238.09>
VStem: 1257 193<1213.98 1405.78>
DStem2: 200 0 399.87 0 0.207912 0.978148<133.566 725.879 859.445 1472.15> 980.112 0 1189.61 0 0.207912 0.978148<181.497 1336.49>
CounterMasks: 1 e0
LayerCount: 2
Fore
SplineSet
200 0 m 1,0,-1
 351 710 l 1,1,-1
 191 710 l 1,2,-1
 193 720 l 1,3,-1
 248 800 l 1,4,-1
 370 800 l 1,5,-1
 506 1440 l 1,6,-1
 669 1510 l 1,7,-1
 1141 1510 l 2,8,9
 1450 1510 1450 1510 1450 1268 c 0,10,11
 1450 1219 1450 1219 1437 1160 c 2,12,-1
 1264 350 l 2,13,14
 1189 0 1189 0 860 0 c 2,15,-1
 200 0 l 1,0,-1
419 90 m 1,16,-1
 859 90 l 2,17,18
 999 90 999 90 1029 230 c 2,19,-1
 1252 1280 l 2,20,21
 1257 1305 1257 1305 1257 1325 c 0,22,23
 1257 1420 1257 1420 1142 1420 c 2,24,-1
 702 1420 l 1,25,-1
 570 800 l 1,26,-1
 900 800 l 1,27,-1
 898 790 l 1,28,-1
 843 710 l 1,29,-1
 551 710 l 1,30,-1
 419 90 l 1,16,-1
EndSplineSet
Validated: 1
EndChar

StartChar: Hbar
Encoding: 294 294 197
Width: 1400
Flags: W
HStem: -20 21G<196 252.444 996 1052.44> 710 90<570 1151> 1265 90<366 469 688 1269 1488 1591> 1510 20G<668.556 725 1468.56 1525>
DStem2: 196 -20 395.87 -20 0.207912 0.978148<133.566 787.856 879.84 1313.68 1447.25 1492.55> 996 -20 1195.87 -20 0.207912 0.978148<133.566 746.274 838.258 1313.68 1447.25 1492.55>
LayerCount: 2
Fore
SplineSet
206 -20 m 1,0,-1
 196 -20 l 1,1,-1
 469 1265 l 1,2,-1
 309 1265 l 1,3,-1
 311 1275 l 1,4,-1
 366 1355 l 1,5,-1
 488 1355 l 1,6,-1
 506 1440 l 1,7,-1
 715 1530 l 1,8,-1
 725 1530 l 1,9,-1
 688 1355 l 1,10,-1
 1288 1355 l 1,11,-1
 1306 1440 l 1,12,-1
 1515 1530 l 1,13,-1
 1525 1530 l 1,14,-1
 1488 1355 l 1,15,-1
 1648 1355 l 1,16,-1
 1646 1345 l 1,17,-1
 1591 1265 l 1,18,-1
 1469 1265 l 1,19,-1
 1215 70 l 1,20,-1
 1006 -20 l 1,21,-1
 996 -20 l 1,22,-1
 1151 710 l 1,23,-1
 551 710 l 1,24,-1
 415 70 l 1,25,-1
 206 -20 l 1,0,-1
669 1265 m 1,26,-1
 570 800 l 1,27,-1
 1170 800 l 1,28,-1
 1269 1265 l 1,29,-1
 669 1265 l 1,26,-1
EndSplineSet
Validated: 1
EndChar

StartChar: IJ
Encoding: 306 306 198
Width: 1660
Flags: W
HStem: -20 21G<196 252.444> 0 90<816.68 1301.7> 1420 90<994 1602> 1510 20G<668.556 725>
VStem: 613 186<105.513 367.118>
DStem2: 196 -20 395.87 -20 0.207912 0.978148<133.566 1492.55> 1295.86 -20 1495.35 -20 0.207912 0.978148<199.864 1472.18>
LayerCount: 2
Fore
SplineSet
910 0 m 2,0,1
 613 0 613 0 613 250 c 0,2,3
 613 301 613 301 626 362 c 1,4,-1
 842 455 l 1,5,-1
 852 455 l 1,6,-1
 804 230 l 2,7,8
 799 207 799 207 799 185 c 0,9,10
 799 90 799 90 914 90 c 2,11,-1
 1179 90 l 2,12,13
 1319 90 1319 90 1349 230 c 2,14,-1
 1602 1420 l 1,15,-1
 937 1420 l 1,16,-1
 939 1430 l 1,17,-1
 994 1510 l 1,18,-1
 1821 1510 l 1,19,-1
 1574 350 l 2,20,21
 1499 0 1499 0 1170 0 c 2,22,-1
 910 0 l 2,0,1
196 -20 m 1,23,-1
 506 1440 l 1,24,-1
 715 1530 l 1,25,-1
 725 1530 l 1,26,-1
 415 70 l 1,27,-1
 206 -20 l 1,28,-1
 196 -20 l 1,23,-1
EndSplineSet
Validated: 1
EndChar

StartChar: lslash
Encoding: 322 322 199
Width: 684
Flags: W
HStem: -20 21G<248 304.173> 1510 20G<700.827 757>
VStem: 182 650
DStem2: 196 685 182 599 0.920487 0.390773<0 189.204 455.242 644.054> 248 -20 427.783 -20 0.207912 0.978148<120.189 726.858 816.885 849.21 940.008 1501.77>
LayerCount: 2
Fore
SplineSet
258 -20 m 1,0,-1
 248 -20 l 1,1,-1
 399 691 l 1,2,-1
 182 599 l 1,3,-1
 179 608 l 1,4,-1
 196 685 l 1,5,-1
 418 779 l 1,6,-1
 560 1449 l 1,7,-1
 747 1530 l 1,8,-1
 757 1530 l 1,9,-1
 615 863 l 1,10,-1
 832 955 l 1,11,-1
 835 946 l 1,12,-1
 818 868 l 1,13,-1
 597 774 l 1,14,-1
 445 61 l 1,15,-1
 258 -20 l 1,0,-1
EndSplineSet
Validated: 1
EndChar

StartChar: Lslash
Encoding: 321 321 200
Width: 1020
Flags: W
HStem: 0 90<419 972> 1510 20G<668.556 725>
DStem2: 200 0 399.87 0 0.207912 0.978148<133.566 638.016 739.219 774.517 875.72 1472.15> 266 686 333 624 0.921007 0.389546<0 37.5557 333.39 638.026>
LayerCount: 2
Fore
SplineSet
200 0 m 1,0,-1
 333 624 l 1,1,-1
 250 589 l 1,2,-1
 247 598 l 1,3,-1
 266 686 l 1,4,-1
 354 723 l 1,5,-1
 506 1440 l 1,6,-1
 715 1530 l 1,7,-1
 725 1530 l 1,8,-1
 573 816 l 1,9,-1
 902 955 l 1,10,-1
 905 946 l 1,11,-1
 886 858 l 1,12,-1
 552 717 l 1,13,-1
 419 90 l 1,14,-1
 1029 90 l 1,15,-1
 1027 80 l 1,16,-1
 972 0 l 1,17,-1
 200 0 l 1,0,-1
EndSplineSet
Validated: 1
EndChar

StartChar: Eng
Encoding: 330 330 201
Width: 1370
Flags: W
HStem: -410 90<745 896.176> -20 21G<176 232.444> 1420 90<699.305 1253.42>
VStem: 1267 182<1213.55 1405.35>
DStem2: 93.1029 -410 292.973 -410 0.207912 0.978148<532.279 1824.9> 903.112 -410 1102.61 -410 0.207912 0.978148<179.418 1752.35>
LayerCount: 2
Fore
SplineSet
186 -20 m 1,0,-1
 176 -20 l 1,1,-1
 427 1160 l 2,2,3
 501 1510 501 1510 831 1510 c 2,4,-1
 1141 1510 l 2,5,6
 1449 1510 1449 1510 1449 1267 c 0,7,8
 1449 1218 1449 1218 1437 1160 c 2,9,-1
 1177 -60 l 2,10,11
 1102 -410 1102 -410 773 -410 c 2,12,-1
 688 -410 l 1,13,-1
 690 -400 l 1,14,-1
 745 -320 l 1,15,16
 922 -320 922 -320 952 -180 c 2,17,-1
 1262 1280 l 2,18,19
 1267 1305 1267 1305 1267 1325 c 0,20,21
 1267 1420 1267 1420 1152 1420 c 2,22,-1
 822 1420 l 2,23,24
 682 1420 682 1420 652 1280 c 2,25,-1
 395 70 l 1,26,-1
 186 -20 l 1,0,-1
EndSplineSet
Validated: 1
EndChar

StartChar: OE
Encoding: 338 338 202
Width: 1674
Flags: W
HStem: 0 90<417.218 833 1033 1586> 710 90<1184 1687> 1420 90<679.305 1116 1316 1838>
VStem: 221 183<103.79 411.875>
DStem2: 159.605 0 360.112 0 0.207912 0.978148<250.977 1405.97> 813.87 0 1013.87 0 0.207912 0.978148<133.593 767.489 859.472 1451.79>
CounterMasks: 1 e0
LayerCount: 2
Fore
SplineSet
833 90 m 17,0,-1
 1116 1420 l 1,1,-1
 802 1420 l 2,2,3
 662 1420 662 1420 632 1280 c 2,4,-1
 409 230 l 2,5,6
 404 205 404 205 404 185 c 0,7,8
 404 90 404 90 519 90 c 2,9,-1
 833 90 l 17,0,-1
1586 0 m 1,10,-1
 530 0 l 2,11,12
 221 0 221 0 221 242 c 0,13,14
 221 291 221 291 234 350 c 2,15,-1
 407 1160 l 2,16,17
 482 1510 482 1510 811 1510 c 2,18,-1
 1895 1510 l 1,19,-1
 1893 1500 l 1,20,-1
 1838 1420 l 1,21,-1
 1316 1420 l 1,22,-1
 1184 800 l 1,23,-1
 1744 800 l 1,24,-1
 1742 790 l 1,25,-1
 1687 710 l 1,26,-1
 1165 710 l 1,27,-1
 1033 90 l 1,28,-1
 1643 90 l 1,29,-1
 1641 80 l 1,30,-1
 1586 0 l 1,10,-1
EndSplineSet
Validated: 1
EndChar

StartChar: Thorn
Encoding: 222 222 203
Width: 1210
Flags: W
HStem: -20 21G<196 252.444> 250 90<472 968.395> 1170 90<668 1132.33> 1510 20G<668.556 725>
VStem: 1144 191<845.859 1155.99>
DStem2: 196 -20 395.87 -20 0.207912 0.978148<133.566 317.533 409.517 1258.18 1350.16 1492.55> 915.722 -20 1126.21 -20 0.207912 0.978148<450.322 1100.04>
LayerCount: 2
Fore
SplineSet
649 1170 m 1,0,-1
 472 340 l 1,1,-1
 852 340 l 2,2,3
 992 340 992 340 1022 480 c 2,4,-1
 1139 1030 l 2,5,6
 1144 1055 1144 1055 1144 1075 c 0,7,8
 1144 1170 1144 1170 1029 1170 c 2,9,-1
 649 1170 l 1,0,-1
206 -20 m 1,10,-1
 196 -20 l 1,11,-1
 506 1440 l 1,12,-1
 715 1530 l 1,13,-1
 725 1530 l 1,14,-1
 668 1260 l 1,15,-1
 1028 1260 l 2,16,17
 1335 1260 1335 1260 1335 1017 c 0,18,19
 1335 969 1335 969 1323 910 c 2,20,-1
 1258 600 l 2,21,22
 1185 250 1185 250 853 250 c 2,23,-1
 453 250 l 1,24,-1
 415 70 l 1,25,-1
 206 -20 l 1,10,-1
EndSplineSet
Validated: 1
EndChar

StartChar: Tbar
Encoding: 358 358 204
Width: 1070
Flags: W
HStem: -20 21G<431 487.444> 475 90<398 536 755 893> 1420 90<369 737 937 1324>
DStem2: 431 -20 630.87 -20 0.207912 0.978148<133.566 506.014 639.58 1472.15>
LayerCount: 2
Fore
SplineSet
441 -20 m 1,0,-1
 431 -20 l 1,1,-1
 536 475 l 1,2,-1
 341 475 l 1,3,-1
 343 485 l 1,4,-1
 398 565 l 1,5,-1
 555 565 l 1,6,-1
 737 1420 l 1,7,-1
 312 1420 l 1,8,-1
 314 1430 l 1,9,-1
 369 1510 l 1,10,-1
 1381 1510 l 1,11,-1
 1379 1500 l 1,12,-1
 1324 1420 l 1,13,-1
 937 1420 l 1,14,-1
 755 565 l 1,15,-1
 950 565 l 1,16,-1
 948 555 l 1,17,-1
 893 475 l 1,18,-1
 736 475 l 1,19,-1
 650 70 l 1,20,-1
 441 -20 l 1,0,-1
EndSplineSet
Validated: 1
EndChar

StartChar: tbar
Encoding: 359 359 205
Width: 780
Flags: W
HStem: -20 21G<296 352.076> 480 80<252 402 594 749> 1020 80<277 517 709 954> 1510 20G<743.924 800>
DStem2: 296 -20 471.208 -20 0.207912 0.978148<117.193 511.112 629.283 1063.22 1181.39 1503.72>
LayerCount: 2
Fore
SplineSet
306 -20 m 1,0,-1
 296 -20 l 1,1,-1
 402 480 l 1,2,-1
 202 480 l 1,3,-1
 204 490 l 1,4,-1
 252 560 l 1,5,-1
 419 560 l 1,6,-1
 517 1020 l 1,7,-1
 227 1020 l 1,8,-1
 229 1030 l 1,9,-1
 277 1100 l 1,10,-1
 534 1100 l 1,11,-1
 608 1451 l 1,12,-1
 790 1530 l 1,13,-1
 800 1530 l 1,14,-1
 709 1100 l 1,15,-1
 1004 1100 l 1,16,-1
 1002 1090 l 1,17,-1
 954 1020 l 1,18,-1
 692 1020 l 1,19,-1
 594 560 l 1,20,-1
 799 560 l 1,21,-1
 797 550 l 1,22,-1
 749 480 l 1,23,-1
 577 480 l 1,24,-1
 488 59 l 1,25,-1
 306 -20 l 1,0,-1
EndSplineSet
Validated: 1
EndChar

StartChar: thorn
Encoding: 254 254 206
Width: 1190
Flags: W
HStem: -430 21G<109 165.173> 0 80<417.107 853.751> 1020 80<610.594 1036.02> 1510 20G<648.827 705>
VStem: 1041 173<737.812 1016.33>
DStem2: 109 -430 288.783 -430 0.207912 0.978148<120.189 498.32 622.126 1520.92 1579.98 1920.9> 748.466 -430 939.085 -430 0.207912 0.978148<571.268 1401.42>
LayerCount: 2
Fore
SplineSet
687 1020 m 2,0,1
 597 1020 597 1020 578 930 c 2,2,-1
 416 170 l 2,3,4
 413 154 413 154 413 141 c 0,5,6
 413 80 413 80 487 80 c 2,7,-1
 767 80 l 2,8,9
 857 80 857 80 876 170 c 2,10,-1
 1038 930 l 2,11,12
 1041 946 1041 946 1041 959 c 0,13,14
 1041 1020 1041 1020 967 1020 c 2,15,-1
 687 1020 l 2,0,1
770 0 m 2,16,-1
 500 0 l 2,17,18
 427 0 427 0 384 21 c 1,19,-1
 306 -349 l 1,20,-1
 119 -430 l 1,21,-1
 109 -430 l 1,22,-1
 508 1449 l 1,23,-1
 695 1530 l 1,24,-1
 705 1530 l 1,25,-1
 609 1079 l 1,26,27
 660 1100 660 1100 714 1100 c 2,28,-1
 964 1100 l 2,29,30
 1214 1100 1214 1100 1214 905 c 0,31,32
 1214 866 1214 866 1204 820 c 2,33,-1
 1090 280 l 2,34,35
 1031 0 1031 0 770 0 c 2,16,-1
EndSplineSet
Validated: 1
EndChar

StartChar: eth
Encoding: 240 240 207
Width: 1150
Flags: W
HStem: 0 80<381.448 820.773> 1020 80<563.227 939.294> 1510 20G<744.686 812.814>
VStem: 210 163<83.9795 236.032> 1011 163<863.968 1016.2>
DStem2: 160.484 0 339.865 0 0.207912 0.978148<202.228 1038.32> 604 1322 591 1236 0.920186 0.391482<0 152.844 298.528 449.531> 799 1530 676 1479 0.562265 -0.826957<0 92.8543 193.6 434.871> 809.865 0 990.484 0 0.207912 0.978148<129.583 960.685>
LayerCount: 2
Fore
SplineSet
730 0 m 2,0,-1
 460 0 l 2,1,2
 210 0 210 0 210 195 c 0,3,4
 210 234 210 234 220 280 c 2,5,-1
 334 820 l 2,6,7
 393 1100 393 1100 654 1100 c 2,8,-1
 940 1100 l 1,9,-1
 789 1319 l 1,10,-1
 591 1236 l 1,11,-1
 588 1245 l 1,12,-1
 604 1322 l 1,13,-1
 745 1381 l 1,14,-1
 676 1479 l 1,15,-1
 789 1530 l 1,16,-1
 799 1530 l 1,17,-1
 866 1433 l 1,18,-1
 1060 1516 l 1,19,-1
 1063 1507 l 1,20,-1
 1047 1429 l 1,21,-1
 908 1370 l 1,22,-1
 1141 1027 l 2,23,24
 1174 979 1174 979 1174 906 c 0,25,26
 1174 866 1174 866 1164 820 c 2,27,-1
 1050 280 l 2,28,29
 991 0 991 0 730 0 c 2,0,-1
447 80 m 2,30,-1
 737 80 l 2,31,32
 827 80 827 80 846 170 c 2,33,-1
 1008 930 l 2,34,35
 1011 946 1011 946 1011 959 c 0,36,37
 1011 1020 1011 1020 937 1020 c 2,38,-1
 647 1020 l 2,39,40
 557 1020 557 1020 538 930 c 2,41,-1
 376 170 l 2,42,43
 373 154 373 154 373 141 c 0,44,45
 373 80 373 80 447 80 c 2,30,-1
EndSplineSet
Validated: 1
EndChar

StartChar: oe
Encoding: 339 339 208
Width: 1717
Flags: W
HStem: 0 80<387.979 813.569 977.627 1374.16> 1020 80<570.249 997.881 1162.91 1563.02>
VStem: 210 173<83.6652 362.188> 1001 174<738.75 1001.79> 1568 173<866.057 1016.02>
DStem2: 160.484 0 349.865 0 0.207912 0.978148<202.228 1038.32> 799.865 0 990.484 0 0.207912 0.978148<148.602 420.805 517.888 966.853> 1089 468 1069 373 0.917466 0.397813<0 453.67> 1361.87 0 1557.48 0 0.207912 0.978148<126.962 306.779 698.982 962.886>
LayerCount: 2
Fore
SplineSet
457 80 m 2,0,-1
 727 80 l 2,1,2
 817 80 817 80 836 170 c 2,3,-1
 998 930 l 2,4,5
 1001 946 1001 946 1001 959 c 0,6,7
 1001 1020 1001 1020 927 1020 c 2,8,-1
 657 1020 l 2,9,10
 567 1020 567 1020 548 930 c 2,11,-1
 386 170 l 2,12,13
 383 154 383 154 383 141 c 0,14,15
 383 80 383 80 457 80 c 2,0,-1
1297 0 m 2,16,-1
 1047 0 l 2,17,18
 950 0 950 0 895 33 c 1,19,20
 825 0 825 0 730 0 c 2,21,-1
 460 0 l 2,22,23
 210 0 210 0 210 195 c 0,24,25
 210 234 210 234 220 280 c 2,26,-1
 334 820 l 2,27,28
 393 1100 393 1100 654 1100 c 2,29,-1
 924 1100 l 2,30,31
 1020 1100 1020 1100 1076 1067 c 1,32,33
 1146 1100 1146 1100 1241 1100 c 2,34,-1
 1491 1100 l 2,35,36
 1741 1100 1741 1100 1741 905 c 0,37,38
 1741 867 1741 867 1731 820 c 2,39,-1
 1694 644 l 1,40,-1
 1069 373 l 1,41,-1
 1050 280 l 2,42,43
 1029 180 1029 180 976 112 c 1,44,45
 991 80 991 80 1044 80 c 2,46,-1
 1289 80 l 2,47,48
 1379 80 1379 80 1398 170 c 2,49,-1
 1426 300 l 1,50,-1
 1629 388 l 1,51,-1
 1639 388 l 1,52,-1
 1617 280 l 2,53,54
 1560 0 1560 0 1297 0 c 2,16,-1
1089 468 m 1,55,-1
 1505 649 l 1,56,-1
 1565 930 l 2,57,58
 1568 946 1568 946 1568 959 c 0,59,60
 1568 1020 1568 1020 1494 1020 c 2,61,-1
 1244 1020 l 2,62,63
 1191 1020 1191 1020 1162 988 c 1,64,65
 1175 954 1175 954 1175 910 c 0,66,67
 1175 869 1175 869 1164 820 c 2,68,-1
 1089 468 l 1,55,-1
EndSplineSet
Validated: 1
EndChar

StartChar: eng
Encoding: 331 331 209
Width: 1190
Flags: W
HStem: -410 80<558 753.129> -20 21G<176 232.173> 1020 80<583.227 1022.55>
VStem: 1031 163<863.44 1016.02>
DStem2: 93.1029 -410 272.886 -410 0.207912 0.978148<518.901 1457.53> 742.865 -410 922.484 -410 0.207912 0.978148<129.309 1378.87>
LayerCount: 2
Fore
SplineSet
186 -20 m 1,0,-1
 176 -20 l 1,1,-1
 354 820 l 2,2,3
 413 1100 413 1100 674 1100 c 2,4,-1
 944 1100 l 2,5,6
 1194 1100 1194 1100 1194 905 c 0,7,8
 1194 866 1194 866 1184 820 c 2,9,-1
 982 -130 l 2,10,11
 922 -410 922 -410 663 -410 c 2,12,-1
 508 -410 l 1,13,-1
 510 -400 l 1,14,-1
 558 -330 l 1,15,-1
 670 -330 l 2,16,17
 760 -330 760 -330 779 -240 c 2,18,-1
 1028 930 l 2,19,20
 1031 946 1031 946 1031 959 c 0,21,22
 1031 1020 1031 1020 957 1020 c 2,23,-1
 667 1020 l 2,24,25
 577 1020 577 1020 558 930 c 2,26,-1
 373 61 l 1,27,-1
 186 -20 l 1,0,-1
EndSplineSet
Validated: 1
EndChar

StartChar: kgreenlandic
Encoding: 312 312 210
Width: 1170
Flags: W
HStem: -20 21G<196 252.173 826 882.173> 676 80<700 949.552> 1100 20G<561.827 618 1075.93 1152.83>
VStem: 958 163<520.185 672.021>
DStem2: 196 -20 375.783 -20 0.207912 0.978148<120.189 750.13 829.586 1082.64> 540 755 700 756 0.840841 0.541282<135.076 674.325> 826 -20 1005.78 -20 0.207912 0.978148<120.189 628.473>
LayerCount: 2
Fore
SplineSet
206 -20 m 1,0,-1
 196 -20 l 1,1,-1
 421 1039 l 1,2,-1
 608 1120 l 1,3,-1
 618 1120 l 1,4,-1
 540 755 l 1,5,-1
 1107 1120 l 1,6,-1
 1117 1120 l 1,7,-1
 1203 1072 l 1,8,-1
 700 756 l 1,9,-1
 871 756 l 2,10,11
 1121 756 1121 756 1121 561 c 0,12,13
 1121 523 1121 523 1111 476 c 2,14,-1
 1023 61 l 1,15,-1
 836 -20 l 1,16,-1
 826 -20 l 1,17,-1
 955 586 l 2,18,19
 958 600 958 600 958 615 c 0,20,21
 958 676 958 676 884 676 c 2,22,-1
 614 676 l 2,23,24
 524 676 524 676 505 586 c 2,25,-1
 393 61 l 1,26,-1
 206 -20 l 1,0,-1
EndSplineSet
Validated: 1
EndChar

StartChar: ij
Encoding: 307 307 211
Width: 1100
Flags: W
HStem: -410 80<448 643.129> -20 21G<196 252.173> 1100 20G<561.827 618 1081.83 1138> 1220 245<499.711 650.42 1019.71 1170.42>
VStem: 452 246<1267.59 1416.76> 972 246<1267.59 1416.76>
DStem2: 113.103 -410 292.886 -410 0.207912 0.978148<518.901 1481.35> 632.865 -410 812.484 -410 0.207912 0.978148<129.309 1481.4>
LayerCount: 2
Fore
SplineSet
398 -410 m 1,0,-1
 400 -400 l 1,1,-1
 448 -330 l 1,2,-1
 560 -330 l 2,3,4
 650 -330 650 -330 669 -240 c 2,5,-1
 941 1039 l 1,6,-1
 1128 1120 l 1,7,-1
 1138 1120 l 1,8,-1
 872 -130 l 2,9,10
 812 -410 812 -410 553 -410 c 2,11,-1
 398 -410 l 1,0,-1
601 1465 m 0,12,13
 653 1465 653 1465 679 1429 c 0,14,15
 698 1404 698 1404 698 1370 c 0,16,17
 698 1356 698 1356 695 1342 c 0,18,19
 684 1292 684 1292 641.5 1256 c 128,-1,20
 599 1220 599 1220 549 1220 c 128,-1,21
 499 1220 499 1220 471 1256 c 0,22,23
 452 1281 452 1281 452 1315 c 0,24,25
 452 1328 452 1328 455 1342 c 0,26,27
 466 1392 466 1392 508.5 1428.5 c 128,-1,28
 551 1465 551 1465 601 1465 c 0,12,13
1121 1465 m 0,29,30
 1173 1465 1173 1465 1199 1429 c 0,31,32
 1218 1404 1218 1404 1218 1370 c 0,33,34
 1218 1356 1218 1356 1215 1342 c 0,35,36
 1204 1292 1204 1292 1161.5 1256 c 128,-1,37
 1119 1220 1119 1220 1069 1220 c 128,-1,38
 1019 1220 1019 1220 991 1256 c 0,39,40
 972 1281 972 1281 972 1315 c 0,41,42
 972 1328 972 1328 975 1342 c 0,43,44
 986 1392 986 1392 1028.5 1428.5 c 128,-1,45
 1071 1465 1071 1465 1121 1465 c 0,29,30
196 -20 m 1,46,-1
 421 1039 l 1,47,-1
 608 1120 l 1,48,-1
 618 1120 l 1,49,-1
 393 61 l 1,50,-1
 206 -20 l 1,51,-1
 196 -20 l 1,46,-1
EndSplineSet
Validated: 1
EndChar

StartChar: hbar
Encoding: 295 295 212
Width: 1210
Flags: W
HStem: -20 21G<196 252.173 846 902.173> 1020 80<610.656 1042.55> 1270 80<360 470 667 817> 1510 20G<648.827 705>
VStem: 1051 163<863.565 1016.02>
DStem2: 196 -20 375.783 -20 0.207912 0.978148<120.189 1101.79 1160.85 1318.78 1437.99 1501.77> 846 -20 1025.78 -20 0.207912 0.978148<120.189 980.104>
LayerCount: 2
Fore
SplineSet
206 -20 m 1,0,-1
 196 -20 l 1,1,-1
 470 1270 l 1,2,-1
 310 1270 l 1,3,-1
 312 1280 l 1,4,-1
 360 1350 l 1,5,-1
 487 1350 l 1,6,-1
 508 1449 l 1,7,-1
 695 1530 l 1,8,-1
 705 1530 l 1,9,-1
 667 1350 l 1,10,-1
 867 1350 l 1,11,-1
 865 1340 l 1,12,-1
 817 1270 l 1,13,-1
 650 1270 l 1,14,-1
 609 1079 l 1,15,16
 662 1100 662 1100 714 1100 c 2,17,-1
 964 1100 l 2,18,19
 1214 1100 1214 1100 1214 905 c 0,20,21
 1214 866 1214 866 1204 820 c 2,22,-1
 1043 61 l 1,23,-1
 856 -20 l 1,24,-1
 846 -20 l 1,25,-1
 1048 930 l 2,26,27
 1051 946 1051 946 1051 959 c 0,28,29
 1051 1020 1051 1020 977 1020 c 2,30,-1
 687 1020 l 2,31,32
 597 1020 597 1020 578 930 c 2,33,-1
 393 61 l 1,34,-1
 206 -20 l 1,0,-1
EndSplineSet
Validated: 1
EndChar

StartChar: longs
Encoding: 383 383 213
Width: 820
Flags: W
HStem: -20 21G<216 272.173> 820 80<234 394> 1430 80<710.227 1081>
DStem2: 216 -20 395.783 -20 0.207912 0.978148<120.189 858.652 940.439 1477.95>
LayerCount: 2
Fore
SplineSet
226 -20 m 1,0,-1
 216 -20 l 1,1,-1
 394 820 l 1,2,-1
 184 820 l 1,3,-1
 186 830 l 1,4,-1
 234 900 l 1,5,-1
 411 900 l 1,6,-1
 481 1230 l 2,7,8
 540 1510 540 1510 801 1510 c 2,9,-1
 1131 1510 l 1,10,-1
 1129 1500 l 1,11,-1
 1081 1430 l 1,12,-1
 794 1430 l 2,13,14
 704 1430 704 1430 685 1340 c 2,15,-1
 413 61 l 1,16,-1
 226 -20 l 1,0,-1
EndSplineSet
Validated: 1
EndChar

StartChar: florin
Encoding: 402 402 214
Width: 800
Flags: W
HStem: -410 80<-72 123.129> 820 80<571 892> 1430 80<690.227 1061>
DStem2: 112.865 -410 292.484 -410 0.207912 0.978148<129.309 1294.84 1376.62 1876.71>
LayerCount: 2
Fore
SplineSet
-122 -410 m 1,0,-1
 -120 -400 l 1,1,-1
 -72 -330 l 1,2,-1
 40 -330 l 2,3,4
 130 -330 130 -330 149 -240 c 2,5,-1
 461 1230 l 2,6,7
 520 1510 520 1510 781 1510 c 2,8,-1
 1111 1510 l 1,9,-1
 1109 1500 l 1,10,-1
 1061 1430 l 1,11,-1
 774 1430 l 2,12,13
 684 1430 684 1430 665 1340 c 2,14,-1
 571 900 l 1,15,-1
 942 900 l 1,16,-1
 940 890 l 1,17,-1
 892 820 l 1,18,-1
 554 820 l 1,19,-1
 352 -130 l 2,20,21
 292 -410 292 -410 33 -410 c 2,22,-1
 -122 -410 l 1,0,-1
EndSplineSet
Validated: 1
EndChar

